<mxfile host="app.diagrams.net" agent="Mozilla/5.0 (Windows NT 10.0; Win64; x64) AppleWebKit/537.36 (KHTML, like Gecko) Chrome/137.0.0.0 Safari/537.36" version="27.1.4">
  <diagram name="Page-1" id="SZ-wEr8igipfxHib-3c2">
    <mxGraphModel dx="925" dy="-624" grid="1" gridSize="10" guides="1" tooltips="1" connect="1" arrows="1" fold="1" page="1" pageScale="1" pageWidth="827" pageHeight="1169" math="0" shadow="0">
      <root>
        <mxCell id="0" />
        <mxCell id="1" parent="0" />
        <mxCell id="yOwYsY-LEfKTVWmutYIh-1" value="" style="rounded=0;whiteSpace=wrap;html=1;" vertex="1" parent="1">
          <mxGeometry x="830" y="1360" width="440" height="160" as="geometry" />
        </mxCell>
        <mxCell id="yOwYsY-LEfKTVWmutYIh-2" value="ARM MCU&lt;br&gt;&lt;div&gt;ATSAMD21G18A-AUT&lt;/div&gt;&lt;div&gt;&lt;br&gt;&lt;/div&gt;" style="whiteSpace=wrap;html=1;aspect=fixed;" vertex="1" parent="1">
          <mxGeometry x="950" y="1593" width="150" height="150" as="geometry" />
        </mxCell>
        <mxCell id="yOwYsY-LEfKTVWmutYIh-3" style="edgeStyle=orthogonalEdgeStyle;rounded=0;orthogonalLoop=1;jettySize=auto;html=1;entryX=0;entryY=0.5;entryDx=0;entryDy=0;endArrow=none;startFill=0;" edge="1" parent="1" source="yOwYsY-LEfKTVWmutYIh-4" target="yOwYsY-LEfKTVWmutYIh-6">
          <mxGeometry relative="1" as="geometry" />
        </mxCell>
        <mxCell id="yOwYsY-LEfKTVWmutYIh-4" value="&lt;div&gt;&lt;span style=&quot;color: rgb(34, 34, 34); font-family: Arial, Helvetica, sans-serif; font-size: small; text-align: start; background-color: rgb(255, 255, 255);&quot;&gt;Lithium Ion Polymer Battery 3.7v 100mAh&lt;/span&gt;&lt;/div&gt;" style="whiteSpace=wrap;html=1;aspect=fixed;" vertex="1" parent="1">
          <mxGeometry x="860" y="1380" width="100" height="100" as="geometry" />
        </mxCell>
        <mxCell id="yOwYsY-LEfKTVWmutYIh-5" style="edgeStyle=orthogonalEdgeStyle;rounded=0;orthogonalLoop=1;jettySize=auto;html=1;endArrow=none;startFill=0;" edge="1" parent="1" source="yOwYsY-LEfKTVWmutYIh-6" target="yOwYsY-LEfKTVWmutYIh-7">
          <mxGeometry relative="1" as="geometry" />
        </mxCell>
        <mxCell id="yOwYsY-LEfKTVWmutYIh-6" value="&lt;div&gt;&lt;span style=&quot;color: rgb(34, 34, 34); font-family: Arial, Helvetica, sans-serif; font-size: small; text-align: start; background-color: rgb(255, 255, 255);&quot;&gt;Lithium Ion Polymer Battery 3.7v 100mAh&lt;/span&gt;&lt;/div&gt;" style="whiteSpace=wrap;html=1;aspect=fixed;" vertex="1" parent="1">
          <mxGeometry x="1000" y="1380" width="100" height="100" as="geometry" />
        </mxCell>
        <mxCell id="yOwYsY-LEfKTVWmutYIh-7" value="&lt;div&gt;&lt;span style=&quot;color: rgb(34, 34, 34); font-family: Arial, Helvetica, sans-serif; font-size: small; text-align: start; background-color: rgb(255, 255, 255);&quot;&gt;Lithium Ion Polymer Battery 3.7v 100mAh&lt;/span&gt;&lt;/div&gt;" style="whiteSpace=wrap;html=1;aspect=fixed;" vertex="1" parent="1">
          <mxGeometry x="1150" y="1380" width="100" height="100" as="geometry" />
        </mxCell>
        <mxCell id="yOwYsY-LEfKTVWmutYIh-8" value="1S3P Config 3.7V 300mAh" style="text;html=1;align=center;verticalAlign=middle;whiteSpace=wrap;rounded=0;" vertex="1" parent="1">
          <mxGeometry x="982" y="1490" width="136" height="30" as="geometry" />
        </mxCell>
        <mxCell id="yOwYsY-LEfKTVWmutYIh-9" value="" style="shape=image;verticalLabelPosition=bottom;labelBackgroundColor=default;verticalAlign=top;aspect=fixed;imageAspect=0;image=https://cdn-shop.adafruit.com/970x728/1570-00.jpg;clipPath=inset(9.56% 16.33% 14% 14%);" vertex="1" parent="1">
          <mxGeometry x="1340" y="1390" width="220" height="181.05" as="geometry" />
        </mxCell>
        <mxCell id="yOwYsY-LEfKTVWmutYIh-10" value="These will interface with&amp;nbsp;&lt;span style=&quot;background-color: transparent;&quot;&gt;B2B-PH-K-S&lt;/span&gt;&lt;div&gt;&lt;span style=&quot;background-color: transparent; color: light-dark(rgb(0, 0, 0), rgb(255, 255, 255));&quot;&gt;&lt;br&gt;&lt;/span&gt;&lt;/div&gt;" style="text;html=1;align=center;verticalAlign=middle;resizable=0;points=[];autosize=1;strokeColor=none;fillColor=none;" vertex="1" parent="1">
          <mxGeometry x="1320" y="1593" width="220" height="40" as="geometry" />
        </mxCell>
        <mxCell id="yOwYsY-LEfKTVWmutYIh-11" value="" style="shape=image;verticalLabelPosition=bottom;labelBackgroundColor=default;verticalAlign=top;aspect=fixed;imageAspect=0;image=data:image/png,iVBORw0KGgoAAAANSUhEUgAABCAAAAJGCAYAAACKkfQYAAAAAXNSR0IArs4c6QAAAARnQU1BAACxjwv8YQUAAAAJcEhZcwAADsMAAA7DAcdvqGQAAP+lSURBVHhe7P1/YF1Fnf+PP+ece3MLlLDwJrViA2oi7l5kJf7AZu1HQt02FDdB3obi2lYXW2RpZbUFFyKrBHchsGKrsi3rksLbbcsHQv1i010wuJTUD5qKaNhF7mo3USG8tTbYNrdp0/vjzHz/mJlz5sw99+YmTUvSvB443HNn5syvc6l9Pc9rXsNGRkYECIIgCIIgCIIgCIIgTiCOnUEQBEEQBEEQBEEQBDHZkABBEARBEARBEARBEMQJhwQIgiAIgiAIgiAIgiBOOGwyYkAIcdxNEARBEARBEARBEARxClPgASGEGHciCIIgCIIgCIIgCIIohUNiAkEQBEEQBEEQBEEQJ5oCDwiCIAiCIAiCIAiCIIjJhh0+fLik2wN5RRAEQRAEQRAEQRAEcbyEPCDs7RgkPhAEQRAEQRAEQRAEMRmwdDo9LpWBRAmCIAiCIAiCIAiCIMZLZAwI2wuCPCIIgiAIgiAIgiAIgjgefA+I8YoL461PEARBEARBEARBEMTMxT+G08b2fLATQRAEQRAEQRAEQRBEubDh4eExPSBKlREEQRAEQRAEQRAEQYwFO3ToUEhdGI/YMJ66BEEQBEEQBEEQBEHMXBxY2y1M7G0XdiIIgiAIgiAIgiAIgigHtn//flISCIIgCIIgCIIgCII4oTBBrgwEQRAEQRAEQRAEQZxgHDuDIAiCIAiCIAiCIAhisiEBgiAIgiAIgiAIgiCIEw4JEARBEARBEARBEARBnHBIgCAIgiAIgiAIgiAI4oRDAgRBEARBEARBEARBECccEiAIgiAIgiAIgiAIgjjhkABBEARBEARBEARBEMQJhwQIgiAIgiAIgiAIgiBOOCRAEARBEARBEARBEARxwiEBgiAIgiAIgiAIgiCIEw4JEARBEARBEARBEARBnHBIgCAIgiAIgiAIgiAI4oRDAgRBEARBEARBEARBECccEiAIgiAIgiAIgiAIgjjhkABBEARBEARBEARBEMQJhwQIgiAIgiAIgiAIgiBOOCRAEARBEARBEARBEARxwiEBgiAIgiAIgiAIgiCIEw4JEARBEARBEARBEARBnHBIgCAIgiAIgiAIgiAI4oRDAgRBEARBEARBEARBECccEiAIgiAIgiAIgiAIgjjhkABBEARBEARBEARBEMQJhwkhhJ15MvD4G9ItQRDEG4LrMDuLIAiCIAiCIGYUJEAQBEGcBEiAIIiA73T+Fl+/71f47f89ZhcV5Y5/eCc+eV21nU0QBEEQxDSCtmAQBEEQBHHS4Fyg7fZfjkt8IAiCIAji1IA8IAiCIE4C5AFBEJJDB3N477t244K3no5dP/wzu5ggCIIgiFMYEiAIgiBOAlNPgBhER1MD2lN2vkGiEtUXXIS6xc24/q+WInm2XcHASyP1xEbcvXkHXh4YQtoDgAQqL3wPrvjfq7D6kw2oTtg39WBtzUp02dkmlVWornkPGhuXYnlkG+PgmbWo+UzJ3uSck/Vo/vhnsaIpiaqC/uwxN2PzwAY0hOoY2H1evRkD9xWtXZxy23mlA02L2pHyjLyLW9H9nVWodY28scgMIbVzC/7p0S70pgaRzsjsxNnVSL6/GUtXr8BVF1ehYHnKYHg4h/ckd+Ntbz8d//H/BQLEL/57BMOHcqG6mjfNTeCtbzvdziYIgiAIYppBWzAIgiCIaDJpDO7tRdc/taLpA/Ox8tF+u4ZkoBMrP1SHpls70LtXiw8AkEF6by8671mJhroWdAyEbyuL9BAG+7rRcc9KNNQ1on1P2q4xuWTSGOzrxsZbmzC/rgXr+05wf5OJ14+Oz1niQ1UzNv/r+MSH9J52NNbNR9OtG9HdF4gPAJA5OIi+pzei9aPzUbekHb2TtDzLrvkpPvLne/CJlp9Gpr9Y9GP8uPegfRtBEARBENMMEiAIgiCIsfGG0HP7crTuNqxRAEj3YO2yVvTsC2cXkOlD+7JW9By1C8ZBph8dn1yGjlfsghNEpg8br102MeHkpJNGz63L0f6SkeUm0bptAxoqjbwxyOxuxeJlHei3HnMUmb0dWL64DX2m4DEBBvqPYM+PDuKP/iiOD9SfXZDeMm8WRkc9rFzxIvb8iEQIgiAIgpjOkABBEARBAKjFmsf2YM8enXqw8/41aJhr1hlC56ZODPnfM+j5ylp0BRmouqwVW3f3IbU3hT3bWtFQFZRhqBMdZuUCGrHB738P9uzpxtavrECt6efvpbBxc6+RcRxcucHoy5izOWYvhfYvbjHmPDXpf3AZVj5hjrIKzQ9sw6oaI2tMBrHlPvP5AokLV6D9uz3B+txrPY+hLVj7zVL7eAoRXH5y9XlkRCoY735PJR7Z/t6C9L+vOQ8AMDrq4bplfeQJQRAEQRDTGBIgCIIgCAAVqKyqQpWfqpG8ch02f6cNdWa1F36Gl/W114sdXYYPfuUKbHhwFernVSLhJlA1fxU2fbkxKAfQ+5J/dwQJawy1qF/Whu6HVsB8iZ/uexmDxvcJk6g0+jLm/PQGNJpbFl7oxI6T5XUxEQY6sParYREgedtWbPjwOFwfAGCoFz1mM5UrsPnf2rD04upgfVra0P3YGpiHYQ4+/SyKbM6ZdLJZjr/6BIkQBEEQBDFdIQGCIAiCKM7celx+oZ2peK0f/ab7/YcbUG/FGkhc9B4kzYwyXPsLeH998SCPJ4LKZlx1pZmRwssny8IeL+kerF0WjvtQdfVmbLu+1qxVHkfTGDa/z61CVVTsiIvr0TivGtU6HU2fVA8REiEIgiAIYvpCAgRBEARRnKMpvLzX+D6vGnP86xXYZm5h+HK9UVEx9BpeM75Wz/XvLp/Uy+gzv8+bE4zhBDHn7HF6D7whDKLjkytDW2CQXIet9zaEPEbK5oL34r3mjXvXY+19vRgqEI3q0bq7Bz1+akXEky+OOhCGqc+xzsTS9UyyWY5P/WUfXvnN8QQVIQiCIAjiZEMCBEEQBBFJZl8vOj57N7qNvPobVwQeDa61ZaLSPpQxje6tOxBs0qhG85Uhf4gxyCC9txutN280tlxUYcXK5gkd/1g+g/jpC+HjHWbFQl+nABn0P7i6MOjk19eM68SLMHVYeVP4+aQeWI75dQ1YfnsHul8aQuY4A05OhPl/djb+Zt3bQ6mm9gzkchy/31egjhAEQRAEMYUhAYIoQAhRkIpRoghQb7aECFIpyqlDEMSJIoX2hTWoqQlS8oPL0b47eL1e+8mt2PRxM0JjadLP3IE7dhqG/OJ1WFVSf+jCSqP/mpok6pasRqd/CkUVGu7airb3he+aTDLpfnR+/hq0m7EQ3GY0LjC+h7DHbKXPdNk3TA4/a8eqe+y4D5vGGXSykOpPb8Nm+xlnBtH7aDtWf3Q+khc3YPldnUgdz+4H9ed8uX/ef6D+bHzu5reH0ttrTwfG0QZBEARBEFMDEiAIoIjoYIsPjLFQApghGoTLdDmEriPUp8yPrBtqLxp7bOYY7TaLJYIgxk/V+1Zh5TUXle/aP9CBZTd2BbEB3Hq039Fc/v0FJFDbtAIr6s3whwDQg7W20W+ktc9Y1U2eWFlQP1nXiNad4YgGydvWoWHCXgWlOI6xvzJYEIgzdf96dIcdNwAAPbcUtu2nW3qs2pVouGs3eu63TrvQZAbR+1Armt6XRONdPUhPgkdEKZGbIAiCIIhTCxIgZjjFRIaoOoV/SRRgTAAQEIKDc5nCogDgOMxPjIX384bb5tpnoqA/W0SISuUynroEMZOonGsEFpxXjeqzAwt06IUOtDbNR8tDZURjHOhA0xIzMGIVmh/YhKWhIz2jSKDS7H9eNap8xSKD/p3rsXLRZWh9JsLKPkHUfnIrtn3aFj2mKOku3PblbmPLy0RJoPrKNnS/lEL3Q61YuqA6YstLBv0PrcTi6zsLhBCCIAiCIIhikABBhDwI9GcpI90WB8y8sKAgfMFBthkdTAxGkDH9abcV1SdBEJNJEmseMQML9qDnhRRST61D0n/7n0HfPW3o3Be+M8RAB1qabPHh6TKPhGzEhlBwwx7s6RtA3wPN8DcFeEPovH09+ibhzXtR3ErULliF9p196L6jfgyvjUZsMANx2um+8DGkk01tU2PolJH0zttwx9PHL0EAMsZH7WWr0P7tHqRSfeh+qBXNF4aliKHdrWh99GSegUEQBEEQxHSGBAgiRJTwYHoZCCHgeZ7v6WCKFlokML0gxhINzLYdx4HjyJ+k2RbnHJ7nFU1RfZTbP0EQpUlcuAb3fsbwAPB60dVTxOAc6MTKZe3o8+MCVqHx6zuxYXFpE34sKhffgy8uNjKGdmCHfyxGAzYMDGCgSNrwYeM+mys3FAoGL6QwsLcP3d9uxdJkOeO2AnHaqSAwp8lxjF0dt/n41zfh3htND400um69I7QVo+G+wrb9dF+ZB5wmKlF72SpseCqF7tvCgTx6H90xLi+IWae5+Jt1b8dfrZTjjvr/nbEI/r/HLiEIgiAIYipDAsQMRxvoxbweTIFAE95OEXg5mFstHEf/xVCA8zw8Lw/Py8HzcsjngyTz8+DcA+cehOCqLSlGRCVzTFFj1nMiEYIgJoczzzoz9H348LHQdwDAwW6sXdaKQJuQASM3NZUftLI4CVSeYX5PY3jY/D5BEpWFgoGx7WRK87427FTHbSbXbsKaC4yyCW7FCMeKqEPbC3YNSe2nP4tmM+Oll+HHCS2DWbMcfO7mt+OTamsL5+P/Mzr4c94uIQiCIAhiKkMCxAynmAFfTJjQQoOO+yC9IaSAACVGKCcGCHBwob0l5Ke85r7YID9Vgqwnt26ERQYzjUeE0NckQhDEREmj72fh0xbOOnNW6DvSPVi7ZDW6LPFh88drw/UmipfCz35mZlTirLPM7zOQ6mpU6a0xbhLr/nFFsE1lglsx5rwl7EnxvX/33UzCDO0Pezy41u+BIAiCIAiiCCRAEAVG/NjGOgfneeTyGYweO4Kjo0dxLHMUuVwGHs9L0UEEHg/MEXBdB7FYkOJx1792XAfMkd4UAsG2i6igllDjtT0iNGZd+z6CIEqRRXpoCENm2tuLLbdfg7VPm/Wq8Z4/NUzddA/WLl5piA8J1N0+UfEhUzCGwZe6sf76T2PjK0Y1tx71JY/znIG8rw0PfDIkQRRsxRiL5F+uRr1x2sfQv7ag8fMd6NlrPo9OtH6yDSFporEB9eZ3giAIgiCIIjDxBllo3gRcLokTh2nE67gKpqeBULEfPC8Hj+eQzWaRyWRwLHMMgnMwxhCPxxGLxxFzXcgjNeUzTiQSiLmubEu16VjeC6Ffg3AitbEoTweN344lQJhl5lwI4mTjOsV/v28Mg+hoakB72LlhTCqbNmH31xtVYMZBbLm2oairfjGa/0XHN+jB2pqV6LIrjEHylm7svHECAscza1HzGaO3qzeXHwPBxx5zMzYPbEDRVialzzLbOdqD1oUr0WmE6Ag/r7Hpf6gFzXf1wQ/jMRZuEq1P7cSqGrugfPr/5wgaG3rxR38Uxzv/ZLZdHMneX47g4IEc/u37H8CfJMNbhAiCIAiCmLoUWnnEjCbKa0CLD5lMBkeOHEE6PYxDhw7iwIE/4A9/eB1Drw9h/9B+7B/aj6Gh/Xj99ddx8OABHDp0EMPDh3D4cBqHRw5j5MgIjh49gtFjR3EscwzZXBa5fA55Kw5EsS0Y9hjFGAEv7ftQlncHQRDFqLqsHY9/LWzMZo4aX04CtZ/cim0TER9mAqc3oO3epce1FaP209ux+4EVqC0nFEaiFqv+ddtxiQ8AUPuOM/Cxpefh0KEcftx7sKx08EAOH1t6HokPBEEQBDHNIAGCGBPP8zA6OorDhw/j0KFDOHDwAIaHhzFyZATHjh3DsWPHMDo6ipGRERw+fBjpdBrD6WGkD6dx+PBhvP6H17F/aD9+v//3+P3+32P/743r/VKw+MMf/oADBw7gwIEDOHLkKHK5HPL5PPL5fOjEC865Py6mtmLAEiVs4cL0fIgSKgiCKE7l3GrULV6D9u/uwe6HlqLWcNE/OSRQOa8W9R9vxeanU2UcizmzSVzWinuuPr6tGFWL29Ddtwc7712D5gW1qDIXPFGJ6rpGrLl3J/b0daN1/uQ8jX/ckMS//8d8PLL9vWWlf/+P+fjHDbQPhyAIgiCmG7QFgwCsLQye5wGQJ1EAQDabxcjICA4NH8KRIyPI5o6GjPko498OFKn7MMsdZsRxcBgc5gAMSMRPQzw+K6jnOnAdF47jwHVduK68LtVHFPYYCeJkMvW2YBAEQRAEQRDEyYUEiBmONsrNYI5agGCMgXOO0dFRpNPD0jvh6Ag8nkUsFpMxH2IxsFCMiMBLwRYHbLFCYwsIngcILsUHN+YiHoujIl6BigqZ4vE44vEYYrE4HMdBLBZDLBbz79fCSal+7eCVBHGiIQGCIAiCIAiCmOmQADHjCQI1CiGPyAQYAAHBOdKHh5FOD2N4+JAUGIQ8PlN6L8igkn5LQgBCBOeyy2bgcU92w+AHn5SF6j4Y4oAABBgAR9YwvSZUn47yhtAiQjwWQyKRgIAAgxQgpEASC9XVHhSO4/pjZGBgjuoDLBiW8fOU7QaChZCDDOGLGf79wRzl3HS+7ljPS+UjtCQF6Nt0W1I0YupI1LExug0JMeanKQKZn8TkQAIEQRAEQRAEMdMhAWKGw5hhiCoBgjkOuOchkz2G118fwvDwQRw5OoJ4PA7XdUPeCyZRBqsQAvl8XhnMxY/ONI/cZI4LxhzfUNbluq5tIMfcGBKJCr+OwxzlJRGHG3P9rR7am8J1Y2BQp3JYR3rqsemkYcwJFALm/yso9y+YsvaZH2JFCPkvc9mkBnP8AkTEkhdBr1lYdDCvZXl4baOeKTExSIAgCIIgCIIgZjokQMxwGJNeC5xz6aGgjKTR0VGkhw/hwMHXcfToEeS9HBKJBBzHCQWCNCn2U8rn84Da9lCOAOE4Md+zQpdFtW224TDmHx8KAK4+9pMxCC6kF4MSG2KxOE5LnA7XjfleEbFYzP/UScebYIxBT5mx4CjRSHyjnoGxcUbrU01GTDUS2U+hiIAIAcH+NIm6X1CsjEmHBAiCIAiCIAhipkMCxAyHQRqxWoBgTMaASA8fwuuvv47DI8PIezm4roOKigo4juPHiNDYBqz9k/I9EyK8DITl5SCEgOPKrRNmWVS7vnGs8s0jOR1ja4gWN/Q9ruPCdeMq6CWDY3hBaNHBD3bpymCZFRUJxOMVhVtAHLkthDG1ZQRqd4ZgMjGmHCaijU9/fkLIXRuGp4LpEsFYoXhgroe9NigiNpjrUA7l1iPGhgQIgiAIgiAIYqZDAsSMR2+9ENLeFTLo5IEDf8Dv9/8emewxOA5w2mmzDG+AsEeCKRBE/Zx0XpQAAUs4EJYAYd5vt63vF0LGqzD7NwUO07vC79MzhI3A7AdjMq6CFBmksOA4Ds44/QwkErOKChWu60oxQioFvgChx6G9JmT/wdYJwTm4HrfKC9dRI4sUIBAaPVQ9deXnaUwhBsb62e2alCojxgcJEARBEARBEMRMhwSIGY8UIMAYBPeQy2Vx6NAhHDh4AAcO/AGMCcQrYpg1KxEy7k1RoNi1iTTso7dgwBAhAIA5MlAkSogPJkIIeGqbh27XFDlMgUOTz+f9rRmyDMqYhzL+A88FxgAGNxADtFDhBkKEv3VDbetwnOC40KitHdp7AkL4vcpgl7IHTSlBIZ/XW04MocNPdm0AYEW3d9jPA2OsOTF+SIAgCIIgCIIgZjokQMx4BPS5E5nMMRw5MoIDBw9g5PBhjB4bRSzuIhZzEY+7/tYLx5EBIhEhOtiCgTCO+NQihPkZdR9jDpglQJRCKA8IKENaCwSmza77CBIPiQ5hAaIQz5NeE3K7ivzUhr/rCxExxJS4AEhBwXEcxFwXrhIf4jF5fKje3iHXQJ7EYQo0jiO3foTm4a+FzBNcZul11Gssx6VuUSd2+OvKCj1L9L3mp6ac9SfKgwQIgiAIgiAIYqZDAsSMR4CpGBAjI4dx8OABHDx0ELlcFowxJBJxMIdBCM8XIFzjJAxbPLCNW2EJEFp8MAUIuz5CJ04oT4Sx0EETrdrav0CPLYhHEW10M7CCewCAewDnMs/jHrhXuJ3BnJfn5ZHNZUKCgh/o0g0CXMoyueUjFpfihDxCVIoUruv6WzGEEP41YwyuEwsFurTFA6g5cLXFhjEXDov589JzgyFe6KTvJSYPEiAIgiAIgiCImQ4JEDMdwcG5h2PHjuHQ8EEcOPAHjI6OwnEczJqVgOsycO4hm8sAobfsRhMRAoRZZt6jDXRHeQnYbQGAEDI0JmNBEMdiwgJUPVd5C5jGs052HhccQDgYo25fb8koiEvBZIwH6XogezfnK4QKJKlbEQJRHhV6ukx5PejglVwI5PI5OK6LingcFYkEKuLxwFtCx54wBA3XrZAihPaeUPEq7GckhDoFBC6YIUDYW1Ps+8znRBw/JEAQBEEQBEEQMx0SIGY4npdHLpvB4cOHcejQQQynD4Fzjop4HKeddhoEODwv57/NjxYMDCPc+IzCNJBNgzdsMEu/jFC5jo6gxQS9tUAfr8lYsGXBDGwJUZAfEiBUn/pKQN3Hlfigtlw4jqu2MITHpceg+wuCXUovC23g2wa/XiLdDOccmWwWzHEQj8dQUVEB143Btb1HXFeKEK4Lh8XhOsFRom5MeleYcSYc5iihg4ExFwwxOewSopGGMQbXHedRokRRSIAgCIIgCIIgZjokQMxwMpljODJyGIcOHUL68DBGR48iHo8jUVGBRCKBvJdF3sshn8+p7QBBAEqbYvmBUa6MaOstfcighxQf9DYDxoyYDgVCReBpIERYaPC4B865358u40JunXAcHfAxjDkHcyuG3H4RHr/DAu8AYWx1kFszBBgLe1HYXhUmAgAX3PducBwHnAtw7iGfz8Pz5BYYcw0Fd+W2CsdBPB5HPB5HRVw+t0QigYqKCsTjckuH3M4Rh8Piwbra626MTajnRQLE5EECBEEQBEEQBDHTIQFihjMychjDhw7i4KGDGB0dheflMGvWLMRiUmzwvJzvMaDd8c3YByamMasRQvixI2C49dsGcNgYZioOBHzhIMpY1p9Me0Do4I9CIO/lfYNfCxBQRr4QAq4jvQ/MdsxtHTC8LgBI7wFDcAjQ3gzyM/DM4ADkvPW2Dt+rQvWl71P/Axjzj/5kjEEIDs/zkM974NxTnhiOH/SSew44N8eovEAcBledwuG68kQOuTYOAOUlEY+hIl7hixQ65oR+NmabxORAAgRBEARBEAQx0yEBYoYgRDjmgRAC+Xwehw7J4zYPjxyGl8+DOQyzEgkwdXwlFx4AAceV5rgQQVsmUYaq/mnZAoT+tIWF4NMBmKOOv9R11PcIDwzGpMFtCiQ6UGSwRSMQICD0fJRo4AsCsl2G4OQJLUK4bswXIGS9sLeAkLKJggHgEEytkxIm/L70CRwhISK8PUX2w+FxDi/vBeN25OkZruNACBdCqOfEObgnvT644cHA9LoyBsFlIE035iIei6OiogKzlLdEIjEL8QrlLSEjdKqZyLWXgTIdXxwB/CqyFpOfSkmRhfoxKaFHz1POUf6WjKU+5SEBgiAIgiAIgpjpkABxihEYrzr4ojR4PS8PAYGY2kaRy+UwPHwIr/9hCAcPHQQAOOrNuePKYIva0NbtOlIRkOc/Wv3pPvVn1LWNea+J3oLgB6D0jfLA0PUNXlXuOjK2AYsQKHR+mKBOYfVAUJBltvEs++emR4PgaryqXMVdkM3J9oQRlyIwyPX6MGX4y5EF7cojRrlQHhT6eQCIx+NyK4ba3qGTFDiCMetxc55H3svKOmrsritP37C9ICAAxhzE3ArEladEIjELFRVxJcboZ6CFEylSMM8F4AYCBJPBMPK5PDyPgwuGeFx6cHgcYExgpsS5JAGCIAiCIAiCmOmQAHGKYRvg0kgUyHs5CMHhug64x3EscwwHDx7EoeGDOHJkRLn2B14EMAQFZmybgBDgPG+0HxYg9D3FPsvBFyAUuo9AiAj3K7cduKEtE3YdW4Cwx2OX2+htJ3otYIsEQgAs2DKiy038tfD3XKh8GXKzsF3by8LsC0DMldstYAbdtOqYY+AiD85lPAktVuj5mIErgzEAENJbIh6XHhOxuKpnbPWIxYLAlxXOLLhOXJ3uoSJxuq46tlSAC6htIQx5T4A5gEsCBEEQBEEQBEHMCEiAOMXQAoTwgz4CgIDH8+BcbqfI5XI4evQoDh06hNHRo6ETLmxBQbfpqDgKQnDk89lQf2Z92/CdyM/LHsdY1/LtezhYoi9GqG0c+hpAyPjXmH2afWj03Mx1sg1+na+9EsytJzZ2H2b/9jqaQoTM1B8y2KVGCClk6PqFbXkQCDwltABhJo0sF/DyKoaGEinMujrORCKR8D0oTk+cgbibUEeCunDcGNyKCrleahuI7ibncTgMcN3C9T4VIQGCIAiCIAiCmOmQAHGKYRrG0lCENFWFB8/LI5vN4OjRoxgZGcHIkRFw7oGp2AooMFgnR4CwjduxKPaTLNaGFiCiys08e6xmHmNy+4QWLMwxMxUPw5yLuV4mWqAQRQSIYuOJInI9De8Jj+chRCAiAIbYourqNuT9HGB2XvhZBds4BAAGh0nRwS7XHiEOc+QWjpiKH8HicCCfRUW8AqefPhtnnf1HiCdmwXFjEFxvDSIBgiAIgiAIgiBmGiRAnGJo41f4MSAAxgQEOHK5LI4cGcHhw4cxcmQEmUwGjEmXePM+0zg123WYAwEB7uVC+ZpiRq1pIJeD3fdYMMbgqBgQNuUY/ME6GSKEutZjLyZA2O3oFLUWE8G+1/xuCxB6vGbdkPcEE3B08EcjX8aXCIQFz5hrzFXeC6quPg5Ub+MA4G/dcF0XzHNUiBCBiopZOPPMSrzpTXNx2hlnwI1XQMidKgCTWzActUtjJkACBEEQBEEQBDHTIQHiFMM2fpk6kAAQyGaP4dDwIQynh3HkyBF4ngfXdRCLuSFj2Ux224AoGYTSbEd/Rhnrx0PhuAq3YGjMvqOu7fHpa9uo18d3mnml7jPzELE25hzs+ZSLEBwCPCQ8FO0TAkz9Huxyro77tL0bAGYEnJQ3ci7rmvVhzjsPcE8KFfF4BSorz8J5583D7MozUTFrFjjXY2TgamwzxS4nAYIgCIIgCIKY6ZAAcYqhDUWh3OUZk6dbAAKZzDEcOPgHpNNpHB09CsaYHxDQNI7tTzNJIzZ4dkUNXutzPNjGvU1hmywkQETda+fZ47bRY9AeEebc7DL/2mjXD9qpMPsw27LLNPZ4ozCfQ9R6h9rVzflZ8jwNfWKGeaKHrsS5jBfiz1clXc9eEwBw4UJ4HNlsDo7j4IwzzsSb33wezjzrj1Ax6zR1hCsDmIyTIdduZkACBEEQBEEQBDHTmSHOzzMXbYNKV/xgfz9jDLGYPHaR6RgPRnJdVx7Jqb5rA1OarePDNljHSjCN/AhD3DaIzTrF6tvf7fuEFf/A9wZQa2bne54Hj4e9Bsy6tkeBPb+osYyV7GfkqOcTNZeCfqR0JMvV70Imma/bc90YXDeufhtyW0ux52P+VoIx6fECnuchl88im80g7+UhhFwT2Q4PRBGCIAiCIAiCIGYE5AFxiqEN0cBYFHAcBi48HDs2ioMHDmDkyAhyuRzi8TgYgzxNIeJxCAgILo1ubWwLwcGMysUMX/MzyiAuhX0caClk/4FxHc4v/t1RJ1XopA1js76+hxlHm0bVsQUAjcMc+bLf8o6w2zY/ixFdLp+vOX6utkRoocjcnhEID4ViQmhs6k6Pe8hmjvlt2c9UExqbx+Hl8shm88jn85g16zTMedNcnFs1B7PPrAQXqg8leASrc+pDHhAEQRAEQRDETKc8K4+YxijjU711FhBgDgNzjDfqTP4MTMNUiOC0hbEM7XKw2yiVTIPaNpbtNjV2Hbt+VLlOdl8mUfOOGpfdninacO0dodbf7lPfb2OX24kbnhZmXWjhwRAfimHOz2EOmJKXOOcQnMNxAw+YcpIMewkwJ3g+ctuFkNuBXAbHYXCY3r5ij4ggCIIgCIIgiFMVEiBOYaRRKK+lwSoNVAZlbFrWn2k8+0atb1Lqt+PjtxhtI3WsBGMsttEdTbTwEFVf55keA8XaZsbxo+bY9KdG36vb0W36eUp0KJZC6221YZbbKXQihREYFMaah/LUP6EcxmQQTwS/B87VaRfcOGHDSlFbPyCkx4z2unEcpoQIlVSefy/UPhCCIAiCIAiCIGYEJECcgmjDFYaxLLjwAw7a9Uwj1+Me8vk88p5M/ht2Q5AYL7bxOlaKMrrNsdoIa1tBqSTrB3O28zWhMTmBYMPGeGVvt2Eb6kLIUye4UGttrHNIUDCFBi7jTfjJC98nn4+ch91neMwMDA4YHEB9MijxwXHB4EAIBu4J5PMc+ZwHLx94WGjsOWkxJJfPw/Ny4NxT8wccYwyOSmACYIFHCEEQBEEQBEEQMwMSIKYD8qVyQZwGbURz7ik3dwDgADgEz0P4+fKNtOu4/nYLCClKwHzTr9/2q73qQfsc3DDYCw3bAJ1nf55I/Dfslku/vDYXT/jrobcEMHVKiFwDZtwv63LPg+flwYWnjHAtWMjyqPZ0vzLoZxA7wx6L2YY+5jMq6er6e6gu1DGaSpzIezL2gp2ksJGHx/Pq9+JBwIOAPMoTxifAASY/OfcgPJU4B7gAuAATQuoIQv4hwtQfJnJccq5ccDAHOO200xCLx2UtIcUPLYDYsTsIgiAIgiAIgjh1IQFiiiNd5pl/WoHe18+Up4B+Yy4EB2Pa6JVvoj0vC8/LQQiu3j7LPf6+G75Q78SN0wxisVgoCKQpQmhjuJQAAdt7IOLYxrFSFMX60oRFCKGOqIxOcq0C8UEmLUTI+7V4kPdyyOf1W30tJMhPM+m2TQHC8wxj36pnj0cKAMHc7TVkTD03Y3n0kuhn5HnSeyWbyyKbyyKXz/lJekzk4HGZOJenUhQkeACTvyXGAHAB4XEIjwMeB7hOUoTQUoILBpc5YGo8ev0YYzj99NMRj0kBQigRgsEFYy6YFsQIgiAIgiAIgjjlob/9TxNs+zvwRpDeDYwBEBz5XBaZY8cwOjqKo0ePYvToURwbHcXo6CiOHTsGz/PAIL0hYrGYLxCYaIGiwABmTL7EjhAL7Gu7zfHADI8Mfa2xxYqJ9mXfr5M9X3/eY1DuWMzycurDbFv9E+TZNcNE9WVuO4na5mGWQ8oFketgXgdzVyKVH/PCr2LUtXMIgiAIgiAIgpgp0DGcUxwGZhltOqhhYOxJ41AafcPDhzB69ChyuRyEkG/1Y7E4hJBv5DOZLDjnAAPisZhqrdD9X267MI1RbdCK0DGcQX7htf5u541FOQa/iS1SlIM5rmKGtZ1nr5Eu00KJxlwv23jX1+E11e3EAu8UFghBfl3fsNf3So8Ke0z6U1NsbLrMHL+wPF4c679Tcx66vhmzIp/PKs8HB9lsDmeeeRYuvPCPccbsSsTiCQg4YCqeht/yOH8f0xU6hpMgCIIgCIKY6ZAAMdURyrsB0vs+iCcQnFAAJo3FXC6HwcFXMXzoEPL5PGAYmA5z/O32rusi5sakB4QjgwKahqkQWuQozIcQEEIGGdSYP6Gon1NUXilMg10T1YbOY4zBdV27uCT+lhLLqLYNbH2t5296COj6eo015pqN1bY5BsdxpfKAQHwwKXwmhQJE1Drp/uw6xcbn1xECLsJiiTlnXS+IMeGpLT+yXjabR2VlJd7xDilAxCtmgYtAgPCnGDHmUxESIAiCIAiCIIiZzvheGxMnn5DNIvwktyhIzwfP83Ds2ChGRkaQz+fAHMCNOWAOIMDh8TzyPAfP2PfPhYwJIFM+cMG3giHCNEiVEeyPxjJ47Wu7fDyY9xdrwzSGJ4otBthzLtV/sXyNPa6otoOysB0ebLgw/ikYU2E7/v1FnouN2V54+0Xh+katlXmvjEUix6VqqTkF4/fv968IgiAIgiAIgpgpkAAxHWDB22/4gQ61YSiQy2UxOnoUh0fS8HhebbtwVdJCBWRyVBwHCHCRlycj2Mc/jnUiwxhG7fES6q8IpnFsG/rlUuw+e862YW7XNT/HolS9Yn2gyH1mlnlvVF0Te972fHUd7algr7FZV2+9KL5GQo6zMJsgCIIgCIIgiBkGCRBTHKaCPkpDjqs86fmg87KZYxgZOYx0+hAE9xCPu6ioiGHWrArMmpXArFkVSCTiqKiIo6IihljMhePIdjm3xIcIg9JOJ4NifTIjZkGUcVwuUW0wa6uFvRawxqWJKrPXyS6LqqOx69jt6+sozPyoa3u+Os+sa5fb6HHY61NsTARBEARBEARBECABYjohBQd9xKRQxzxmshmMHhvF6OhRjI4eRSZzDNlsFrlcDvl8PmQ8azFDHpEoj0m0DUjbiDTzhZD9yrYKjVT7upgBOxZ2n8U4nj5QxBNAf0Ylm6i8YphtRN0XPJvo/uz7i9WzKVZuPz97LWRZuF8YfdteM0KYR5CayHbsfPs7QRAEQRAEQRCnPiRATHmk8ABttOntE9xDNpdRwsMoMtkMcvkscvkc8vmcL0AE+/ID8cE2HMs1ZosFC7SFh2JlE2XMcR0H9vii+orK05hrWw5R9c0xmPnh51Z4bdaz77O/R2GLEFHY9woj3oP5O5KoH6gfuES3LVOpfgiCIAiCIAiCOPUhAWKKIw1AaQRK+02KD5nMMRw9egSHRw7jWGYUHvcQi8VQURFHPB5HLObAdRkcRx7FKbdsaK+HPDjP+1s6orYjROWBMTBlSNrGa9S1mTcedP/mGExKGePlog3pYtsHzPGXe8SnbsduSzNWucYsN+vb+WMFUrDr6znb/ZvjspO9RjrPFCB0e8Hz0usn2/efoY5DEuERQRAEQRAEQRDEqU95lhXxBiH8oxbBhLTalPt7JpPB0dGjOHr0CLK5LAAhxYdYDK6rjjk02kGEAew4DMwJjGxbdLC/ayPSxuwr3O/EKejXwjaUx4ttVEe1YY9B14mqW4qo+tF92gJDIcXyUaTMzBMRATXt8qhk1tN5WoQwBY1CwSgQIdS3yONFCYI4+Qw9vR6tt69H9z67ZAzSfdhyVyvat/UhbZcR04LBB5tQU1ODmpq16LELCYIgCOIEw0SU1XIS8Pgb0u20Qhp7Hpij3hqDIe/lkc0ew/DwMA6PDGPkyAg49+A4DuJxFw6koZzP5yGU87vjOHIjhzIaYXgZgLkApOFYaEBGGa0CjmFDmj8f+6dkG63lYo8BEW1rhBBgjMF1XbuoKEKJODZ2v1Fj0Oth1vHX0qg3lmhh38cYg27W7lci1FGd8hkIAeXVUigcmJhtaW8G8zkXm5Mel8h7cgMFYwDkuuXzeeRycnuPbs915akrnHtKNGPI5fI488yzcOGFf4zTzzgT8YpZEHD9MYnwv055XPM/HIKYbJ5Zi5rPdIXzEpWoff9SrLx1DZYmK42CHqytWYkuALi4FT3fXYVqo7QUgw82oeGeFABg6UMDaL9sEB1NDWhPAUi2omen0dZAB5qWtCPlAahqxqanNqDxbLO1SSRq/gDgVqLqTxuw5rY7seJ95hqcDIy1cRux4YVNaDaH8EoHmha2IwUgeVsPdl5f7lM4PoJn2IzNAxvQYFcgJokD6Fp7Le7/ObCw7fto/aBR9OL9uPoLXRgxsjShuuXWK8Xoq3juOw/j4Z9ehDs2tOB8v+BVPHL9Sjz8m1DtMG+9Dpsf/IR/z4EXH8HXNmzD87/NAqjA7As/jJu/vA4L3mTdZ6LnYLUVxXN3L8Kdz87Gwr9/DK3zK+xivLp1JVZ+G7juoc34hPrPRd4TrldxXhJXXHsTljXW4pzy/3pIEMRJgjwgpgOCAYLB4xzZbBYjI0dx8OBBHDlyFBBALBaH4zjI5TzkvDw87gGMwXEYHNfxvRyY48BxXTCHQQDwItzrbQNWY9fRSRuyZrLvg2Fw2+W6jplsF39t6EaNVaeoumay69tj1skeh05QQo40tGNwXReu6/rGvFnfnIOImL/dftAnhxCe2iYjDfkgyXJAexwIcG6LQ+F+7LVmSqixy1iEt4uQagdcRwodnOeRy2WQy2WRz+ekMMYEXJfJoKjCU/lyTtlsFo7joKKiAhUVFWCMqXUMfl8iONWVIIgTQSaN/uc60NpUh6b7TI+Fi3B5UxWABOqaG8oWHwCgev4VqE0AmLsUjXV2qcHRHrQuU+IDqrD03ntOnPhQCi+Nob4utF1bh6YH++3SCdNzS430ImjqwKBdGIXXjTu+0oOMnU+csox0fw33/9zOVRwZwQhmo/aDS7CkMZwumjuBehFkB5/DI3+/Eh+5eiXu/PZzeHUka9WYiwXXt6L1ixHp1mbUAphbf2kgGLx4P1Z+4WGkZl+BG77Yita1Lah9/Snc+anb8VSUQgIAXj++dV+0gFKcEey672t4ftTOL0USLf74b0DLvBF8b8ONWPE32/Fq4fsmgiDeYEiAmMIwfy+9emOsAkhms1kcHR1FNpsDALiu3D4h6yijjgHMccAc331CChGOFCJ0MEttuMp7gzfqdl45mEZtufdF1QsM8vD47DIYfdr32PXs77ahrtux52DfZ99r1jURludIsfrhPkyhIfg0k7wv/N3uuxhR4x6rTH4VxnGtOnZIcOqFWUePx/M8MMZ8sYZZR30KyN8qKRAEMfk03rcHe/bswZ6nNmPNZVUAgNQDLbhtp5YgqtD89T0YGEhh+6drQ/eOycVr0J0awMAP29FQ1KEgjZ4v34bOIfktedtWtF+WsCudMPz579mDPU+1o1EuAVL33IYt491yMomkn7gN7S/YucQpyejzuP/B53H+W6Pf97/6634Al2DZl9Zh3S3h1Fwz/nqFPIevffpOPPwT4NLld+C6+XY5AFTg/EsXYuHlhemSkX70I4mrmvSfD1k89XgXRmYvwR3fvAktly/Ewiuvw1fvuw7ne8/jkc5oce/V73wN24+cj/PVf4NlM7wL7Q++aOeWYC4u8sffguvu2ozHNjRj7t5v4XP3PQ9beiEI4o2FBIgpTfBmWqMNvODtOcDgwHXkm/mobRQmpqEZVc82jM08u06p62KMVV+U8E4olcaLOT8buz17zW2vA31PVLLbMOuaFBvLVMAem/3dxJyjDhhiz5UgiBNLorIKVVVVqLqwAese3Ip1SZnffddG9AFqa4B6g3+LEQXgYB86bmxAsqYGNTVJNNzYgc67GsNv+p9Zq+IHNKHjleBWk/4Hl2HlE1J9qLp6M7ZdHxY5Mq90o61lPuoulGOoW7waHS8ocWRPG+pqZP7yR5WCAbPfGqx+srQfgT//qipUXbgUm+5qViV9+Nl/qcvMILrvWo7GOrUOF9ah8cYO9B3UrfRgrepv7ZP96PzMfHn9/3agqaYGK59Q1VLtaKipQdOD5fhBDGHLnRvRX/SNrPFcTM+KV2SfNUY/vgfGLd0YeroNLe9LoqamBsmFq9HRlwb2daOtpU4+ywvr0PTlbgxF9Dv4dBua1BrULVb3mmQG0f3lFszX61TXiNUP9iGt2/LH1oiNL/SifUmy5G9jpvDig+3YNasFrSuiBb7s6Agw+xzMHmN7QLn1Cknimm8+hn/v2ow7li/A+afZ5aXox47tKWD+VWj2hYMX8eJPgdmXL8Ql5liqF2BBNbDvpRQOGNkAgKEufO2hflz61zfjw2fYhaW4BAsvn42RnV/Dt/baZeUz+1034eaPnoOR/9iGLuOPEoIg3nhIgJg2BMac4zA4TuD+r209ee2EkrxP5stYDzLJ+2NwjG0E2lDUxrJOusxxHDis9E+mHOO0GFHlpvFqGvb2mCeKLSLY6DWIEh/s8Zrjs9czyhvCLLfbmhoI/+TV8YxRV2OGB0/U2hIEcRJwa7F0Wb28HurGsy/ZFRReH9qWtKD96UG1TSCDwafb0fpQ9JvNYmQGNmKtihGBC9bgoXsbEHKUGOhAy6LV2NI35Bux6YFutF+7GGufSQPvb8RV6obe3b3+loW+55RQ4jbiqoZxelPMqfa3mQwdGAK8fnRc24DVD/WiPw1Unl0JeGn0P92OliWt6Dkavr3r841ofUZZME4Cc+ZVo1IPwa1E1bxqzDndvCMCbbSl1qPt8Um0hrpWY/6NW9B3UD21V+Razv/oamzpS8v189JIbVuNa76pnktwM9pu3IKU0hzkc1iGjgFVrNdpWx+GtC6R7kf3PS1YfGuPFYS0H+s/sRwde0uLQzOCvd/C13YCC2+8DrVFhIN9QwcApPDwmqvxkUWLsOiKj2DF7Y8gZe1VKLdeIeeg9k/OQWEUhTL4aRe6fj8bzR9bGNz/21fxqgecc8454bo4H+94G4CREWubxQie+vr9SFVfhxsaZ4dKxuYc/D9/czMWzN6H7V/5VgnBbmySixbiHKTw//2wQB4hCOINpLQ1SUwhpOEq4xDEEIvpGARhw85hDA5zQ+JDIEIEAoXjBDEMinlZ2Ma548h4EqWYTEPTbCvq+niMW3t+UZh1zDXRYoLOR5Ex6byo+6LKpyLFtumURtdRc/R/guHnxHQ+QRAnlKoq/RpzEIP7rULF0KN3YYveMnHLTqT2ptD33VbUF91mEUG+B23L1kOauUmse3AdkiEDLIX116u4EMlV2LonhYGXutF+ZRWAIXTdsh59bj0am1SnzzyLXk/e9+wuZe42XoWGsYx9k6P96Ny0RXkTVOM9f1oFPLcZ7S8BQCWWPpRC3wt9SD2mgmcOdaLzGcuI9hKoXbwGbfe14vKLV2Dz7h5suFKVvXMNHt/dg83Lxoik8c51aP+kfA69X74DXZN2hEgSa7btQWpvCjtvUa4u3hCG5q7DzpcGkNqzGSsukNmDu35kxauoRP3tO5HaO4DUTvWsvBTav96NDIDUN1epdUpileqj+95GVAEYemIt1hdsJ6lC/cdbseErK1A7nmd0SvEqtq/fjn2XfgY3fbCY+f8qXv01gNEDwNxmXPfFG/CJ987Fgecfxuf+2jS4y603mRzA9m8/hZE/WYZllxjZXrb4NgYXwG9ewatGVnbP/fiX5+ei5Qulg04WZfYC3Lx2AWb/fjvat5otj5PTzsRsACMjYyo2BEGcREiAmNIYgQYBOMxBLBZDRUUcFfEKxGIxJTQAQtUDk3EeTGHBTrpMJrk/v5hHgXmPbVjb9c18O09fR91vfzeNfTPZROWNl6g27P70tZ1n5utkigwmUXnTAnXyRrG5l4IpDwj4YphRFvpGEMTJov9XUVsFhvDsk3JzBuatwb03JpFwE6i8eBVWfdiuW4K9vej1X+6/hv4By8p+5Ud4VrnmN9/UivqqBHB6LZZ+Zqk0/tM/xU9fAeqvvEp6TXg96OlT970m72tc0oCx/B+6PqO2C9TUoObiRrQ+LcdRdXUbViUBXNaOgYEBDAz0+bEpEu+rh46pObgvrNJUX78N3Q+sw4qrV6FZ2fjjJ4H6L9wjT8GYzICU77wK18yvQsJNIHnlVdDDa169BsnTgURVAxreozJTL0M7N0gasOrTSSRcIJFcg5v1TpXnepHCIH60S/1Wmj6LVtVHbctnsXQeAKTx077wb6nh7qex9a5VaF62FA3j3fN/inDgu1/Dt35Tixv+egmKv/c/H5/Y+AQe274F3/jSdWhRMQse+FQt8PvtuH+nfltfbr1JZGAHdvw3cGlzM2xfh7LxXsS37tsF/PlNuO5Cu7B8Zn/oZnzmUuDVrXeWPqmDIIhpBwkQUxzffhfSamNMn2ZhCgYqyCRjYHBCSXtD2HlBUkKE+jRFAZ0cJvN1PX1t1wvdY5SPVTeqDsow+O3riWK2VQo9Lk3UOESECDFW+5MxhxOBENIDIvgeHqP9XecJYYhTTP82SXQgiKlA7duj3tQfQ1prBe9/j2/EThgXANLouvUOdJsaRP/LyjsC6LrREAk+ulG9mU/h5X4Y2zDS6OlJYei578n7JrL9AgAqa9F423Y8bW4H2deLjluM2Ab6WNIIzvxf59pZE+P0Btz5lUZAB6TsnRQJIpoirv+lqHmnevLpYQxjAC/rh7VzdfCsapqwUYlBqV+G5YzKs8fjLnMKMvIUvvbPKcz92M1oifrPzKRiNs6ZHfaQOP8vl2EBgFTK2CozVr3BR7By0SIs8tNKPBKlMZZFFrv+zyPYN3sJrrm8mPfG2PQ/9DV0jVyKz6y5tMgWkFfxyPXmmBdhZaSXw2ws+fxNSLqv4pF7toc8LAiCmN6QADGlCXsUFNp7ulx6R0gjPiw2MLhwEIPDzGQJEJb4oEUGPzkyzxcrVN2wJ0W4HbOeXTeq3M4rhmnoT6bhPtE27fvsNkp9jrevN4Qi84kieG66jhaTdCokOpcgiMlkaEi7JVSjeo5VOMkkb+tG39ekkY10F+74ih0rQFI5txrV8wrTnAQAYxvG4O5ObNTeGWVuvzBPwehLDWCgrxubrq9DpTbK93Vi+YeWo/2JPgydXo+lt23ApvtX+R4QJ5LKpla0XgwZkPLeDihbfmpTWVXwnKrnVaP67AmIQacsWTz3zX/B87ObcfN4T5bRuOfj/LGEC1j1zl0gj8Q0jqBcMFG9bKgLO/YA53+sJRxoEgDciiJiAgAPwFsvkFstBh9Be+c+JP/6Ziwp6gJSePznDQuKnCla1Yw7/joJDHwL7Z0TkCD+8AccADB7dtHBEATxBkACxBTHNMY5l8dwenkP+bznH3sIMLiui3gsHng8MAeM6RgPbijJfDMpUUCJDMwWFQzhQee5Tli80J+u4wZljhOKM6GTmee6MhZFVD0nwivC5HiMeLM93YYZZNKO11AKcxxm4pz7deznONFxn1wK54QxRAgT+dzs3IBSZQRBTBJePzq39crrqkZcfrFdAQDmYM48dfmzn/leCuPmwnXYcH0tKpvuRLs69m/oidvQvlu96TeCQb5nbRd6dvcE6eludO/uQesCWe5vw0htwZY9Mq+c7RewTsHwg0UaDD65RcWWaMSG729F+/XNaLyy3h/biaUaq/5+jdpyki4UZ2zD7yQy8Bv15CvPwlmYg2r9m6hbhy7zWe3uRvfTPei5XQU3JYDfdmHbsyPAcBe+cIXxdr9tFwBgV9siLFrUjucAYKAL6++7H3qHS8Cr2GfmlVPvtPNxaegIzUvHeeJFwIv/7zak3Eux7GMRURvOOx/nu8Cr/9c+x/ZV/M+vAcyejdkAnn/kYbwKILXx2pBXxsO/AfCbh7Fy0SKs3Lqv4PjPS99aVN7AOR+9GTfUSM+KHeOM3/ris7swgiT+nw9OeEMJQRAnABIgpg0CQmgDWSZtyEpPdwZXxXOQj7WUCCHLZJ1CDwXXFBIsMcBhEQKCVc9Oui2zzaj2TTEiSpgwxYixRIGxsNuIMrTNulF1oupqosqj+osqm0qYszPHXGreGjkl5ns5RM4xIosgiOMjkx7C0NAQhvb2YP31y7Fe2ZWNt68p8pY/gfoFquSVjbj1gRQyXgbplzrQ8YxdtwSxhBIIqrD07lYVgHIInbe2yZMlLr4CzSogYs8Xl2H9niFkAGT29WL9tXVoedA4ccM4DQM4ju0XUfjB+wYx+DsAyGDoyR1QMs34eG0AqXQaGevkjJJcvA4bVEDKMNWovUhd/rIHPa9kgMwQeh/fMXFRqCQ96HgohYwHZFIb8bXHVfaCeiSRxBUfVZLM7lYsu68XQxkAR4fQe18L6q7tOEFBEKcpZ1+K60KeCCp9TG5rSX6sFa1fVDE6zgZe6e7Cw98LnzAz8oNn8DyASy+9VLVZZr3JYHQXHn9yBLMbr8HCSAHjEnzg/QD2PIcXzee+9ynsGgTOf+8lOAdAbXPEGnzxBiyoAlAlvTWKejsU5Xy03HYdapFC15Ple0GM/LAddz45gtl/vsw4TpQgiKkACRDThLDRG87Xru7MUZvtDQNbGu+2kKBT2KC3hYNihr9d7hTzdDA8IQryI66Ltaev9ac9nkjDtgz0vebaml4QZh0ozwWz3Ex2mygwxoOx2vdOdPwnC3uONvYzMKv6+VN8jgRxKtF9y3zMnz8f85esxMbd8pVh8sbtuEefLhFB1cdvxwr1l/TUfU1IXphE3Ufb0Vvwir5MLliFDWtVTIGhTtz21T51MoYSJrwUNi6bj2RNDZIfXI6NL2WQ+vee4JQGtx4NZgDMMrdflEP1By9X3g4prF9cg5qaJObf1AX9cjWbHzs2w0V1SrBJd2J1XR1athW8pi5JnQ5IaVG/sFkF4OxF28IkapLzsfyBEyM/AGn03tWE5IU1SDatl6eTuEm0fr4RCQDJv+lQ20WA1APLMT9Zg5qL5XgyqR3omRb7R04SBZ4IKl0sje25Fy/EwsuTMrDjOc24rmk29nV+Divv245dz+7Cru+048a7n8NIzXW4QcdfKLfeJPDqd7bheW8umpvNoy9MKrBwRQvmjjyF269fj+3P7sKuJx/GF764HfvOWojrPiq9Js75k4g1uPxSvOMMAGe8A5eO4e1QlLd+Aq1/GeGZ4bMPLz+7S67Rs9tx/9oVuLZtF7IX3oBv3FIsFgVBEG8UJEBMA6QBKK8DQ1wb4/C9ITwvHPxQG3+m8Wsbi2Z5sbrFki0G6O9aOLDrl5ts4cFsL6rtiRB1XzEjmzEWKT7oMt2WOX5mCA32OE3xwexjShKxJsXWCX5ZsDY2Qp2qQRDESSBRidoFq9C+sw87b6kLAjBG4dah7entaF1cLb0Y3Eokl21CW5NdsXxqP3Mv1iiPh6F/vRFtLwCoWYWdP9iEVQtqg+0RlbWo//Qm7PmOOgpT0bBEH8tQ/vaLskiuQ9f2VjReoFqsrEXjVzZhnTK2+/8rNeYJFVUfvwfti2tVXIkEzhqvOGIEpDRJfPgePP6VRtSqh5W4oB5rtrUjWIlJJLkK7beZfTWi9bFtWFWjyt1arPrOHmz6dD1qdbwHV/6mNv1gJ1apZ0uMn0v+Zgu+8deXomLPw2i/ux3tDz2P2R+8Ad+47xM439iGU26948J7Edu/8yrwrmtwlX72UVx4Ax7YcB0u8Z7Bt+5uR/uG7eh/0xLcsbEVC05CiIXzl7ei5U12riaF7Xe3yzW6+2HsGj4HV6x9AFu+2TJ560QQxKTBxBtkDXj8Del2miGNOWmscghwZLNZHD16FPuHfo9sNgNAoKIi5hu9EK6/tcJxmO/p4LeoDERtCLLAaaJMRGCUGicbCEjrUgh1boJ+vFF11KdGXobz/XH6YzW9DsIigLz2myswfO3vQZ72eDDblOVy7YKUz+fBuedPiIHJddN1fAFCikJcCHCP+3Udh8l7/fHK+TEnOFlEjcwaY4A5Z/3dxK5vIoQo3O2gTrkoto4QHILnwT0PnuepNdDbfsICkDknLjg4ByrPPAtVVXNx/ltr4LpxAAzC3/ajnrgoGNUpi+vMnLkS05R0GunKSkOo6MfGJY1YvxfA/Hbs2bYUJ9WT+YU21F27BWm3EZte3ITG8Rr5BEEQBEFMOcgDYgojBOB5crOd67qIuTEIIZDL5ULGpykyOK6DWMyFq47plGKDjhnh+YY2EMSOCLZklJfAZCBLxmIAi0HAhRAMHgc8DnAOCDhw3BhisQrE4rMQiyfguhVw3DgcJyY/3Qo4bgXcWByOE/fbgzq1gzEXDK5huHMI4YGLvJFyEMIrMIhLodclWAOZ5zgMjgM4js6DXy8WY4hXOIjHGWIuwBwOAQ9C5MF5Dp6fsvB4FkAerisAeOAih7yXhUAezOFwYwLM4QDjAPIA8wBWuK1DJ9v7Qnq76ACkwZzMZHuJ6OSCwREAEwATAowLgAuIvKdSPkicB+KRNSazT3NMjHE4joAQecRiccRjCYg8A7gDqN+JXFX5LAWCQJ0EQbyRDKHzxvm45vZuDGYAeBmkHmpDx15ZWnfl5SdVfMikU9j4D1tkkMZJ3H5BEARBEMQbCwkQ0wbTsA6/+Yb19ts2FM06poFazEgtlYJ4E/a9UpyQp2zItuWY9bjMT6Mdda/vSaD7sb/7RzqabSkvACUglEK3E2zlMLd6yKS3fdhbP+Q9Kjn6lBBdrzBIphAyFXMtMR+L0FsSlPeB/cxsxirXmPX865B3gyEoFDuVQ43H/j2Zz8VO8tHoeuZzMX8LyhsjenkIgngjeO176PxJBv2PrkZDsgY1FybRdFevFAAubsU9Hz958sPgg01I1jVh/UsAUIUVn5IxCQiCIAiCmP6QADENsU3QkJ1r25CW0VhoWI/PCjSNeDuZwSJ9g1RRYNxahNuC3OKgLFRmzFGXRxE1F3uMzF8DKR7IIJjmiRvB9+BTr5NMQf2Y/6nvs4USxkwhhinxIbg2kx6v+TkeotZY50WVQeVHiQ96nYuXBePUv6XA60b3p+dt3Ks+/RbHP02CIE4E81Zg+4+3o+3qOj82Q+JsGZuh57FVqD2Z+6gTOjZDEise2Im299kVCIIgCIKYrlAMiCmMEAKc530DD+A4cuQIhtPDOHjoAHK5LBgDEokKOI50hXdYzNeVTKM76rvZz3gw7y92r2m4MuvkB405nlBwRwFloqqtB3rrBffUp84TEIJLjwsWjxyL2YeZHN9Qhoo+EfZAsNfI4zlwHmz1MOuYczPn6DiOPy9dX99j58s4EMF2E7t/Xdfsw5yPxrw274GMDALXWGvPk2tpthduQ/7+8vl8qC7U3HTS93POASbr5nIe5pz7FsyZ8xa8ac5b4MYrAMeBAMAYl+vNuByVmBk6KMWAIAiCIAiCIGY6M+Nv/tMY0xiU/5b/BOU6aUM0bGgH9QqNcNPgHG+CYdjqPNOrwq4ThVnP9qpw7Gvfs0AFgbQMdN2e/T3Upun54XtB6KNApTdEsS0YDlPeEUwGjSy4Dn2XeVIYCddlzFFzMbZ1GB4SUfOIyjPnVaxOKUzhwRYqYLVlr6NZVuwe+R3y2TlMebXIpH/J8H1cCIIgCIIgCIKYCZAAMQ3Qhp0vPAhtxYUNV0Abe9FJYxuN4002thBh9xUlQph19LUWIfQJFLaYokUIf2sGY6GtGUFeMAZ9LUWEcNL5gVCghAarnsOkSOE6MRlAUwkKftwLpu5TZa4Tk6IGc+Q2DSco0/f59/gBPaPHPVbSmNdRyGcQCA3aY8EMbllIxDMwxmfDmH4y+pmb9+gHJYchZOgOgiAIgiAIgiBmECRATGGY8aZfKMPRf3NtlAcJgSHtG/PBvnwYxqcpDNgGZqlUrA0z37622yiWdF1IFwdj/oYBayD7sHMLvS50+yEPCOtkDykC6HgPWhQwRAY3hpgbR8xVIoRVzpj0dIi5cbh+iqkURywmv0tviSAvFpN1HCcWGqe9NhNNJvo3pJMpPNhrJr8LXwyyxxTVjjylRIoL0EeZ+sFIJXJIsm2CIAiCIAiCIGYWJEBMF6wTCbQBJ410Xam0AWoSbuv4MduLajNqXPa1X9dPukzNUVUpbD1A922PQffliw9w1M/f9ooItlPII0B1Hb01Q4sPKpltaHFBeUAw5sJhWoQI7nMcHcBS1fWFibBwFBZMbAElmI8tDkSuKWOh31DUFgwTmS+v7XbNOnY7Op6Gvs/RD8/6KRo/YYIgCIIgCIIgZggkQEwnlMFmxoAw3eT11yhjVDOWUDAeotqHYfzr8igD2bwvqg0gEBzCSMs1GHvhfMaal+MwQIkQDKbHg9wSEQgMQR1zi4VOWnzQbeg4Ea4b88UJud1CtWnc62/VcOO++BC1Xqb4YOYVEx70Wpqf/voap1rYa2beH1Vut6XLwgJEIFwIHSTTcdRztB9m6WdEEARBEARBEMSpBwkQUxzfeFTCgxD6lAjTaNTf5atl24A0U5SxOh70fVFGMCzxwbGO5IxK5j0a2zTVBq18gx9810m/2Zd1C+cMSG+KoF9HBbnUXgu2t0Hhd9N+NtfAPKbTnk9YKApPLDwe1Z7vhRG+ZiyIf1FMdAi1Y9WB/h1Z62auu1lXI0Q4RoR9n3k/1O9PrYBKqk1d4Dcv1OkjBEEQBEEQBEHMJEiAmDYoo02ET8GQBMajKCu4YIBtdJaDNnJtESKqjnmiRJSRqylm1Jr4AoyavzSGA0PfvLdYO4FhbgsOpneCzAtiO8g4BrJJaUn796sAlQ4LxzoQQkDw8JMSkOKJzDREA8OLhSnxwSwLfR9ngvWMTQFBY5Zr5O+o8LdU7Dn5/fm/Q6U7sJDy4JcRBEEQBEEQBDHzIAFimiCNNmW5lTDguCFAaIPRNBa1oaiN7/Gi7zXbKEeAsA1iMxUjGHapeRd/lW4bySZm/1HzMcfMGAOEEiCEEgv8bRlWPAjhQHAGwRm4AATXiQFczkmoNiBkfZkKxQM7SZEj/AzschbxHHSSIlb4N6Hrm/cFdQrFBzuF+ij4PRV/tgRBEARBEARBzDxsi4GYUgRvj9W5FxBCwPM85PMeOOeyTEgDUbrtB4a/6X2gsY1Jef/Yb8V1HdMg5ZzD8+Q4zPv1vWYdXc9sK6pfx3HAHAZoEUBvgdDGrBAAF2BcgAkZgYFBgIs8hPDAhQcBDwA3FAu9jlpIYOCqLhcePJ4PfQpwCHCACT8xR43NZep0h3CzzIE8AtVhcFwGx3XUCRcOHD+5cNX8pB8Lh4BsW25VkXEiVGMymR2AhU7n0AKI48gYE6EBKY8NMwEMjoNQkmvEIUSwZo7D4LoOYrHAI0QuffCson5jwQGpEn0kLLhnqkmBYGHUJQiCIAiCIAji1IcEiCkOU4EDoeI32IY/AHCu3kQ7rCB+gfmmXNYNb80wRQD9GfVW3Kyrx6CTKULYb9LNerbgYLYH0zBVhr42YKUIoTYqCEN8MAQIIZR4IDwpyMgND74IoXqAUIY55xwez/uig51sEUKKClJ8CNv5WqSQGoGjxu3GpAHvxlwlPsg8x3X8oygFtLghBQsttgSCi2xUGNeyXJ7OoQNZmkeCRgkPvgChdkg4jhJRGHzRQYpYHACH4wCuyxCLuUqEiPasMH9fkvCWE4fJUzAE5xA88FTxf4+kQBAEQRAEQRDEjIIEiGmCgDQetfEmgyhqoSAsJPj3RORFGZMnGtNYLSed5OH5TNa6jNWOb4Ab1+NNTsF2hwDdtvmdsSAIpSkKIUIIMsWiAnFIJbsd+V3/1sJ1CYIgCIIgCIIgQALE9ED4r7BNLwHTGNSGZVhssJk+RuFJGJ91XGkU5eVH1ymG2Z/dvl1WLBk3BNcWkfUjYkBEXdt1oNozxSstQGjvFy1CwAg+6XuuMFZqqARBEARBEARBzBBIgJjSGMahypGGXaFx6RuMyvizDUldX3oZyGvTwDyRmMZwOelEwwArWkFxio3HzI+qY8/Jnp+dV24K3Wv1WZgRRgtVdpJlhd99USFivGad0BYbvdlFBcUMRIsxBkcQBEEQBEEQxCkPCRBTGsPoVAacUG+ZDacIAFpgCBvWpkEJw4g82cagbfCOld5oTCNbfy+Vb1+beaVSufVKJfN+GL+TUozVhknIu8HCfl7y96fEB0PoIvcHgiAIgiAIgiBAAsT0QBpxgRuEPvXC9JDQ9UrZerbhGWVwnihskaFUCvw9Tizm/E1D3M6b6HWpFFUn6l7ze7Ey/z4lPvif9tiCr6F2tJeC3TaMeBA6XoSJPQ55LZMUINQJGlbfBEEQBEEQBEHMTEiAmCYwKTeoN9LCECFkqQ7gWMzSsw1F08g80dgCw9jJbmGyiX4rH7UmUXmIMu6N66i1jsovVqfs8iJjQ8TzBqQwYbehxYdwENDgntD2Cms7hnktk+MvreOoEz9cdaxoxO8yfGYGQRAEQRAEQRCnOiRATEO0kR4YhDKfMVZg1JnGIvQWjiJlJwqzz6lG1BrYeXa5plQds43AQI82/otRqgyGSV8wjtK3+djjGas/+7djixZ2mes48rQWv8QitI2IIAiCIAiCIIhTHRIgpi1FLLeQMFHcqNRG4smg2BimEnqMxcZabC1tw9vGNO7NNuy8qHvLwW5vLMYjBgkVvDSKqLEXEyiKIcWy8sdDEARBEARBEMT0prh1QEwptG0XbfhJ409uzSh0lTcNxGJlJxp73KXSG0U5fUfVMfPsuegyO8/On0xsn4OgD3urS/B7KHZdzMOBWQKD/P3JrRpmGWNFPDLkcAiCIAiCIAiCmEGQADHFCbZaCGlaauOOFbrvh+NCRBvLZrltWJ4oTKO7vGS3MPmwIutjUqy8WL6NrmfXt7/rPDvffFbmdTmY66kRhrhQToIlQNjj0+j6nHNLVCh+D/zx2LkEQRAEQRAEQZyqkAAxpdHCQ4FdB6aOOJT2XbTxiDIM2+NBt2O3H4VpEI+VjOgGMs9qSxvSwTdJaBgqW1fzAzDq1vzKdp9his2tMN/+LjHrhZfdfC7R95ai5CMs1pwSs/TaRf0O7N+QLT6En1PQRvh3p+uoryYC+mkoEciuQBAEQRAEQRDEqQoJEFMa00iVJxLkcjlks1nfCBQqkJ8QAhCA4wTBDU1j0k6e5yGfz4NzbhnJgSt91OkHAOB5HjzPC+UXe1Ou2/E8L/JEBV3HTL63hxZZDE8NAUCodnRbegyMBVsCuODwPLUlwDglRLfDmAPG1DGR0hSGENFJljvqnugk23ZDeUGbMLbH6LbMPuUz1GPSyXGir4Pvcq56zf2kFAg733EYXFfO2XxO4bUP7oNxDKfO13n6N6B/P7FYDIlEAq4bA4MDwRk4l3ODALgHeHkBzgEIBjAHzHHB6I8ggiAIgiAIgpgx0N/+pwHa8IM+htPjusTP979GCACmsW/mca7bKcS+xySqzDZ2o7DvM8dmGsG6mpwOk2/JVZPhekHdUkSNS7etxYfS6HKzfmEKtxe0qwWG8FjD/coyS0hQ22wKr1VfzPxthCn0G4kWiuyk65nfTcznZaLb1t2aAoxGQAkSanwMReJDEARBEARBEARxSkICxDRBmYaBYSighAfTEIwyO994ooxcE1tUGAu7hjC8NWD05/jbVGTS7XNhH1Y6UxhbcLCTSdSziaoj/DZh7nQJvhf+BAiCIAiCIAiCmAGQADFdsAxqbcSZNqE09k68dWcbnbCM02KGqm3w2vgihCUPCFtnsRDKM8QMwqkFG8cxrWB9Q4nGTmGkABAWGEp5Q5jPyRaJ7Huhtr3YIlDwJFT/aixBWyqDIAiCIAiCIIhTHhIgpjghl3U/1kDYKITQokChUT8WUWJBOegxoEzxIeraxpwPlOYQalsF2yzACK5YWK6DHUaLHjOVYusRlQdLgIBxv9mO4AKCy70mvjih7pfiR/gnKoUm+3kRBEEQBEEQBHGqQgLElEZACBWngQFOgdGnDD9Vm7HASC83TYQoI7VYe1GGqok9FvmpFQjdnvKKsJr37y3wmBDq1ugxFXhEzEDs34GdysUXH9R9XN3rOE54Q5DliCKgBIvyuyIIgiAIgiAIYppDAsQ0QAghTTmmPSFUCL9JsqNt47NUsjHzosqjRIexkBqE2a6yWI0Msy+9Jr4gIwSE4P7JE9yozxwmhZwJeItMd4TlKVJOsiklKAnZAcDkaRvMCEoZhWy9sA+CIAiCIAiCIE5NSICYBgSGnrGJPmQIGpXHSZSROV7MNsxr20AdD7qVUNtaXPBzAqLexAdHdUovEsYYHHWaRCnD+NSlUGAoN9no9WZGcE+oZ8SUAOFoUajwdkXRAoIgCIIgCIIgTkFIgJji+Ia18W/pzl74Flp7DtjGY6k0EaL7DrcXVRbVn9mW36a6Naq+iVBv3IPYEGqVCuYZvs8c20xC/jyC5xC1vmaeXV7suQdl8ANduq4rv0B37N8i60N6rhAEQcwEMns7sbalDsmaGtTUJNH2nF2DIKY6r6Pjw/+Bmrf8B2o+92u7kMAo+h56Ea1tKfSl7TKCIExIgJjSqDfICmlvC3/LgcMcPy6ELC80tqcatlFrw5gySwvqKfd+VeYb0X6RJXIYt5tmbtFAljMAZokvUUKMnce5ikESIUCE1lvWkLKCcUKG/NEaVaznQRAEMR4GH2xCTU2NSsvROWTXAIAMum/SdWpQU7MWPXaVk8m+Tqz8i1Z09aWRAQBkMCwviFOd7/9EGuxv+Q+s/b6Rnz+Cvod+gpa6XX55Xd0Psfah3yKdL7y3dPoBOn5jtG1STj/ThSMDWK3n3JRC5H/6byS/GcCXv/Q6Oh/8LVraXrFLTwzFfl8EMcUhAWKK49uD2tLW+ToWBJPB/qQxGBiL48E03sdKiDBSbUPUvI4yVu36mpBxGyoJzksQonALhh14E2rdihnMIsIonhmEPU3GSjDWzC6zn6VfRz1H13WNNniEoERKBEEQx0svOp+OMEOO9mBHt535xjHU04VeDwAq0fz1PUgNpHDPArvW8dCDtUpsaXpw0C4kphr519HR3IuWLw2jb3/w97b0/lF0fSmFuuafo38yxIGT1c9JIvP91+H/Z/2zg/je78LlbzjzzsUVtQDgYOmSOXYpQRAGJEBMI0wbzjSww0QYem8wppGqDVcT27gdr2UqhHxTz3lY+HAcmULrpLwlpuI6nXDUEtjrrZN/dGaE0GDep6/N5+mvr/pdOswB8599sNr+NdP/Gt+zJgiCMOnr+l7Bm9DMMzvQ7VmZbyDHDg+rqwZc1VSFBBJIJKxKxIxh8MEU2v9TXidveid6Xvog+l56D7beVCEz/3MfbvvXYeBD78Kevg/4absuRwXW7Azy9/S9Fyvm+c37lN3PtOAwdmw7bHwfxeat+43vU4DYXKzZ/ecY+L8L0b7oNLuUIAgDEiCmDdJoto35sEEvN+EHmoQ2tDkEOAQ8CHiAkYTwgrZ4qcT9pM3Jgr51l2AQHBAc8Dw9Rt8EhRDcyJPfzbkxqMSM+iqYpICQXTkqMQBMvn13HFm/UMOQ/TAGMEeKN6bXhMY0vKMoVQZjPYJ2zbkH8w8nnVdIeH0LCU7/MPKM72ON18b/HagAnkJ5NUTV0eVmHgAw5sJ1YnDdGJjjSg8dxqRIJPQzhXoe5neCIIhxUFmJSgB4YQe+t88syKD7SfmetLKy0iyQZAbRfddyNNap7RkX1qHxxg70HdQVBtHRpMpu6UTfg6v9usn3taB9j9rc/UoHmiK8DoItIk3oeEV6JjTck1KlXVhpbgnx0ujbthYt70uqe5Koa2lD9yvW/ozMILq/3IK6pBpXXSOWb+hB2tP9rUSXqpq6p0H1DfTcErUFJfCWqLlF5vr1Pt+N/kdXYv6FQZnue75er7pGrH6wD2kt8Pjr0IiNL/SifUnS75+IZuAXWXV1Fm6+rRrV55yGynPOQf1tb8MKJUz1/WA/MonTUDXnTD+de1bQRuU5QX7VnDOQiAVlmrL7UbUyvxlA+zU9qNPbHN7eg9UPlLNVgyP9/M+x+rJdSOptHlf+DN2/Cd+Y/lkKa6806uitIKFaRfjdIDp/BAAOku+Wkx38zj7o/7Ikv8ZavR3hqWF0/+0PUXeB/N6w6ufoS3MMPfUztPyJnt8P0PaUJcDkj6DvgV406joX7ELL3w5g0PhPsudzqmzNAPq39WL+W3RMjKD/pgdeNxvF4L8Z/b5lFxqv+S/0HDC8lvVWGb9O9BqWgz++D/8cvaH59mD1NnNcADIHQutU8/YeLP/qK2U8c4I4PkiAmNIEBqGw4hxwzuH5Rrnxxl8ZfIxpA1cJDyKnUhYCOZlYFkLkITwuE+fgnheZvLxMMiaAbBfQRqi0IhlTqoBw4HGGfB7w8towhTEmASE8cB5OUgzxAHA44HAYwMAhhAeP5+DxPDzBIRwBuAwsBghHgDkM8bgL12UIYh8KKboIOU6AK48IwHHDaynHV+gR4D+FiC0IUXX0p0zq2QjPv5bjCNbANMIZM591MC4Tu2/TY8Gu5ziO/1sI4jGEqvmYvynOOfL5PDxPPmv/XgCe5/lJCxD2vB3mIubGEY9XBCKE68hfDJc/FcbCAhNBEMS4mbsUSxcDQB86dxrbDoZ2oPNpAKjDVU3Wa2GvHx3XNmD1Q73oTwOVZ1cCXhr9T7ejZUkreo6Gq6OrFS33dKNfWUiZg33o+ORt6LbrFSWBOfOqUeXrIAlUzqtG9bw5SCCNnlsXo+XLXeg7mEHi7EokkEG6bwtWL2oJDHg95m19SGsjKN2P3n9aicW39mDk9DmonlcJ36Giskq27+qMcfDkajTe3oMhLS4YfQ9pKzHdj+57WrD41h7LcOzH+k8sR8deCm4xFjV/rD0ZhvG1e0wDvxptv/pzDPzfP8fA/3lH8EwnyLj66f85Wj74a3T8KI80HFQmAGTy6P6HFBb/7Su+SBFF+vs/xeKr96G7n/v10v95AKs/+CN09Csj+/mfYXHTb9H1nxyZhIPqymAryDVfDSmIkQw9dRB9AJD4I3yx/RxUA8Dg6+h83q4p6Vr1E6zeNurPefCpfWi5rAdNqw4EASIzWWxZ1Yf1v9B3jaLn5h+j5R+O+P/NI8/Rt+3XaLg6YrvKd3+Nxr89UuCBFYaj/4EfoeEGo19w9P9oP1Z+8KfoSSPo90vD6EsDiUoHCXMNi8X3GItf7MPy0Hzz6P7bnwfzzb+Ojqt/FlonZPLo/fr/YPHNvy5PGCKICUICxDRFmX0F5psQ0ojUyTQadcrn88h7eeTzeWX4a2OZA0wojwLpLeA4gOMwuDEHbsyB49hvvLUBbRnBSnQo5xV39L1a1AjOSjDnahrM5tt4XWYiv5tGfWA0R33a6LHYBrcsC1X118Ke0xuJOe6xsOdnYs5LX5vz1P1wfa/VROGKKG8WgiCI8bJ3Py5qagQApLq6oSWIoWe60AsA85fiqmrzBgDPbUb7SwBQiaUPpdD3Qh9Sj62SxsxQJzqfsc2sJNZs24PU3hS676iXWV43vtdrVStKPVp39+Dx1Un1vREbdvegZ3cr6l/rxNeekKZL3e09SL3Qh9QL7WgAAC+FrY/Ld7tDj96mxlyF5vvlWHbeItsbeqINT9VtRs/uDZArASRXP46e3ZsjXfLHxAMSFzZizVc2oPWyOUh9c5XqO4lVeh3ubUQVgKEn1mL9C3YDVaj/eCs2fGUFak+3ywhN9ScvwFIlSqXuT6Hugl1o+qv/Qud/Hi5p6I+X8fTTs0l5EyTOwuZfLUTfrxqw/XrpaTD02G/RfcS6QXNkALf91TCGAFQuqkb33oVI9b0Ta94NAFm0t/4PhgD0PHpAGurvOQ89exei578XYusnpQnS//XBMYLE7seWfxkFAFReW4X6d89FczUAcOx4okjMk3efi619DRjY+y6se7fK289Rddu7kHqlAXu2KBEDeTz7rPQKyHz3v7ByOwfgoPEfL5H1Hj8XScjtKm2PmVtAJInaM7Cm/QK0Xn6GXST53S9w2z9IT5Sqlrdhz68WIvX0XNlmehht39oPDP4aX9suhZq6tvcg9d8LkXqpWv5ZgCy2Pjq2QBONg8b1ah4R8x3611+qLToOmr/1AaRe+RB23iZFq6Htr6DDF2YIYvIhAeIUg/OwYe6FRIhAeJAph7yXV54FeXDhges39vptvX+0YmBsS9FCHn+p8e1Q9SmFCaZO6fCrFSVksJtv7WFbroGHgSk+BEnVEjLYgB6nzA/XMY1p0+AOrqMHHq4bKgIitkWcKAq6jiJUqaw7xsQWHkw453LLjv59+EINk78lVU9M2mgIgpipVDZchUYXQGorpL0+hO89IdWBxo9fhcSwZTBc1o6BgQEMDPSh/TL5fjnxvnrUqeLBfdae8ndehWvmVyHhJlB7WYM0GgD0/6qI0TMe5q3CzoEBDAwMYPunlVJydj3qVSdyLEN49sk+mTF/Hb54pRxL8jM3Y8W8alTPAzIHgiaPm3mrsO3fNmHdsmasajoTP9ql5tn0WbTqdWj5LJbOA4A0ftoXXoeGu5/G1rtWoXnZUjRUhYoIkzMuQPuPk2hdElNeDhyp7+9H65U/RrKuF1t+Yb9qnyDj6KdhvfKI+NX70ZAAgBjqPqiN6hz2F3vN/6MDKjBkBVb93TtRe4aDxJxqrPmMuvdHabxs1n95GL2/yQJwUP93OobFu6DkvWh+sQ9dgwDg4KqmtwCYgys+JsWR9L/uQ0/EciWb5qF+Tgw4Yy6am7QnyJn47I1zkYjFULXwbP+/+9QvDgPg6H1W/XlROwfrlp0r6/1ZEtcvktm9z1vbF+aci23P1GPdJ9+BVR+NDjo5tEt5buA0rLu9BlUJB4mLkrj50zFUvzkGHBkFqpPY+X/l+m+//hx54zn/C/V/LC8HfyfFl/FzJpZeq+ZRMN/DePYp1e6fvQVf/IszkYhVIHnjBVjx5hiq3wxkpliIDeLUggSIUwxheAZ4ntxS4XElPijhIZfPIZfLhT51vvaOCHlN8MDlngsOj+fBRV7FZTBNSXXtx2SQWx6i3pZHGbCmICDvV1sM1D/ang0LDtEJUm5QRrBel3C52acmXBaU220X1g1vj7DbRZE2jouIdoqNb6LYbYSeizFPPS/925OLbtxniBAEQRCTwumNWNoMAIPo6k4B+76HHS8AQCOu+HAC+/dFCAX7etFxixHTwIifcNJJ96PzruVo9GNANKA9tKl9CK+9pi7fPAe+Te82oG13D3p296B1Mk/TqKzCuf7WjQG8rMeyc7VxpGkTNqoxpX45oCsDUFtaiPKoPA+rOhqQ2nsJtrafi/o3q/z9R9D24eNwu7cpux+OoR/8HGuv3BXEgPirsQNUDvZr4ziL9ZcF8QuSa7TLxCj6fwM0rFZv/TNH0HrZD2QchL9KYcfPc6icc1rJ7SZ9216XHk6JP0LjpdJsSV6jPBMwjM5/07EuxsKJjJUhOYD+n6vL/n1o1Gvwlh8Ex1v+/IjvaQUAOCeGc4u2JxkazKmrCszxNQoHDX/fgJ4XGtDTdoHMSu9HZ9sPg9gTb3kR7SfUA+EIXutXl+dVBH+2xC5A2wtybK0fCmoTxGRDAsQph/CNdEC6w/ueEIY3hPaEyOWyyGYzyGSOIZvN+CmTNb7nVFLfc7lsyHsiiOGgjWsVLBKFLvamYR5lpDPGgAhD3W8vwu42DXs9byGUASzMe1Ud0zKOMLJtbCPbHlsxdJ1SdYP27JLyCK1RkevJwn529vPz5wKhJAddIL9GPG6CIIgJk/GAhpYVqAQwuPN76Hlmh3zbeOVVaIzaArCvE8s/tBztT/Rh6PR6LL1tAzbdv8p/M3hS8frQtrgRrQ/1ov9oNRo/24ZN97eheSJbJ040lVWonlddmM4uZTYS0eSR3n8YQ/sPYyidB844F/WfvARbX1iIvo6zlCGYxcbNEeLZuBhfP0PbejH/L/eh6z85EpeehdZvvA2bbhzfSQ6Vb5Zv9cMpLuOR1L4LO196F9qvPw21Cag4CMNoX/EzXNZWYq75QezYpuJIZA5guQ6W+MEgAGX3d0vHqBg3MSdiHjFUnxe3a04O+UG0feC/0PrgKPqPVqDx8+dh07fOQ3O0UwVBnBKQAHHKEVh50ggPDGYzJgRXn7l8DllTbMge879nssdkyhxDJjOKY5lRZLPHkMtnkcvlkM/n4Hk5eJ4WIXQsCaFECB14MYxtyNqICGNfGrYSfYt5r66jBRgbtRRqTWRe9P0Tw/QIsNuNojDf/l4+9thD1/62E1t2KQ97nOb87LnC/82pMiOfGc+NIAji+OnH4GsA3t+IqyoBvLIFa++Tzs6NSxoi36gOPrkFvR5kLIbvb0X79c1ovLJe7Y0eJxMJ8mjyXCe2DAFANdY81o1Na1eg8coGXBRyIqjCPC1I/G6/Eewuhc7bW9F6eys6w8cAhIlahLKZg2rdd906dCmPC5m60f10D3puL+k4P7PY9RP/7f/ap4K/9wzt12/nY6ieAwCDuKPux5hf92PMbzWPCnFQueQCrFA/xnT/0eMMAjiefg5gxzblybDoAux+4v1Y1VKDxg/orQvFmfNmbZTHsPRfPiTf6uv0wwXoeaEeK6qVGJI/A1d8oR7dv/pzpP77T9G+RJogQw/+Ft0R2ygAAM8PYcdY6sL396Pzd3bmeKnEHP0HwTnnYMMeYx4vfAjdP/wQera8c9x/VlRV6/XJYr+xpSG17Sdo/dufoHXbfuAH+7AlDQAxrOn6EDZ9IYnGv5iDi9RujBPDGZhXqy5/mzX+bNmPzr+VY+sM7Z0hiMmFBIhTEBYRFNL3ClBGIldv3QXn8Ly8SmoLRj6HXC6LnO/1cAyZjPSS8D0jchnkchm5bcOTJ1RwnvcFCC1GcC77tI3VYtfQ47MDTEpVQt9RYOwHczMaChEWM6IoVm6PbyKYa29eTzYl2yxRVA7mmpdcE/37M+sYl1FrTBAEMSHcelz10UoAaaTTANxmLG0sYnnr0x0wiMHfAUAGQ0/ukEErx8u8WrxLiRCp53owmAEyQ714/N9LKQIG+WPqYhiDv5OmZibVhR2/NCtV4fIrlX/Gni3o2DOEjJdB/6P/hPZHO9H56PeQsk7keO03KaTTGWQ8oKZGR63oQ89zacDLoH97Z5nzTeKKjypza3crlt3Xi6EMgKND6L2vBXXXdqDfX08C76r04xh03f9f6B08jKHBAdz9D8qwT1Si/iIAeAuuWKIqfvcVrH5sv/RQOHIE/Y/9GluUM0Bl7enymNkJM55+OHwXgsEMBvMAMofR/W+FQRdtEovmqACoeXQs+wk6+7PS++IX/4PVl/wAa78/CuB1dDRKMeSyv5WnKyQq5+DyP9P/nXJkIkWGLLofOiCFmMRZ2NSnY0ao9OQctQ1jFDvs4zTHTQUaP3qmvNz/Om786/9B/xEOZEbR/9hPcNkl+sSK8RHEXhjFln8ZxFCGI9P/S/zTl4bRuW0Y3/tFxvhziWPwt6NyPV7ehx0ndAvGmbh8ifJw+dHv0fGjw8jks+jfNoD2bcPo3HYYKbWLJv2jn2Ptmh9j/XGvMUEEkABximEah9oIlO+iWcQbaCETA8C06zwHF1wGpOQeOA/EiUCgyKvYEVm5HUN5QQSnach2g+MnA2OzmPAQMmhtzwdhbpsoFAdsESIoNNsN2heQMSqiKGhDUay+pth9JsXqFMsfL2Y74TXzc63vYxP6LSns8epnwPTxnyoxR/7uIhGiWAlBEMS4qPvfK/w3k5UfX4qGIt4J1R+8XNVLYf3iGtTUJDH/pi7/7V82H2kFFaEejc3KRHyuDQ3JGiTnL8fGl+x6Rai/QgbQRBpdN9ahpqYGyab1SGljRI2l6uP3oPViAEihY9l8JC9MovH2bqQBVF29AeveBwAX4T3vk7elH12NuroWbHkNqP7wVcpAG8SWT9Wh5sIkGm/tHuPYwIDk33SovoHUA8sxP1mDmovnY/kDKWRSO9Cj41MQwJx34Obr1V+p//N1LJ//Y8yf/2t0KaO1ob0G9TFIQ3d9DZbOAQCO7nX/hfl/0oOaC3vRuO6wfDaVZ+LO1eN9124znn7OxZ9doYIZ/GIfGi/4D9S8/cdYrU5mgDydMZozanDP/1FbOtKHVXyHHtR9+BV0pzl6n9qPDOZi1T/KOunv/hp1b9+FhrpdmP8lKc5UXXseGqMOkTgyiB1Pqeumc9E450xUmendc3C52qbQt20wHJ9hAiQ++qfY3KK8Mp56BY0X7kLN238o1yt9GN0vlBtrwuDNf4x7/k56kqQe+CXmv30XkpcNojsDoPIsbPhCNfBn5ygRh6Nr1Q9R85ZdSC4OtpggX+hJPBlUffKdaFWnlXRc82MkL/gBGv/2iPyzpeVtWHcpALyOzi/tQ9d3D2Pjqr1jnFZCEOVDAsQphmkM+sa5/zI6MCZ9s9zRwSJlYo4UKhhT7vvqHylKcHCujvHUASzVVgzO83LLBRNgTAsQUoSwMY1Z+1p/N9+S+5/SblVX0R4QGrNMXhtlRp0ozL5NCtbVQt9npnIZR1Wf0PYKS3yYLOy52s9Eo+s5jgPXceG6Lhhz5GLLn4OPEFIaYUKLYwRBEMfBxVeg+QIAqMRVV5bYFpBch67trWi8QL15raxF41c2YZ0ysvv/KzWOveQJNNz1ONoW16LSld+rF6zB1nub7YrRnN6ITT/YhBUXKxEjUYm6T29G+9WqvO9laYC4tVj1WA82LatDpX5hXFmLxtu24+l7G9Rb8iqsuLsdjTW6rbPkvvsLVmHbQ6tQp2M1VCbRfN8mrNOOEWPh1mLVd/Zg06frUavbcCtRu2AVNv1gJ1ap+HkEADioa/sQer51DurmBH+1rnz3WWh7oh6brz0rqFr5NrTveQ82/91ZobqJygrULzsP23/4fjTrYJHHwzj6SX7hA9j+d2egWukQlW89A20dKnAksnj558WN78pF78fTO89D87sd32sjUXkamv8+iafXX4AEgMpF78XTT8g6iQzH4H4e1PlHWcdm6LF96oQNoPkvon5sc3HFtVo4eR2PH7fHwGlo+EY9tv99eL0q330W2nbWo33h2FtSCnFQe+Ofyd+F79LioHbJXGz/4XvRUClFnE0vvA0rLlJ9xhzUXf8OtLeo6j86HIgRk0nsXKx64j3YtOw0VOpgmokYGv8uiae/9jb1LM/BnzVVIAGg6tpz8Z5QAwQxcZiwLYmThKdc84lSSMvN34bAOA4ePIiDBw8im8sC4HAcBtd1lIDgAHAhOCCEjMngcR0oUp5sET5Ck8N0UIgyLu1r/Q8DwBwHrhNDRUUFKioSSFTMQiwWh+O4gAA8TxrGsVgMjlNoaNptB9ccEByMMXV6Rw7HMseQVcEvtVcFY8HaCCHU6QwyAQyOE0M8FkeiIoF4vAKuG/P7cdwKVS8877BoES02RI3bzAu+S/FFj8/G7EsKKuPTA4XwIKytKmZfQv12/JMpeB7g+YLtLea87TZs8SHUfsScOeeorDwL51e/FWdWnotExRkQwgFzlNzJ9DGunvxNMAcQ45v3dMWN+G+AIAiCIAiCIGYSM+Nv/jMJ4f9LGoiFdi9geAEEngpCXUvj3swreIWtZQjfkA0CDzoOg+sLAbJuhLNASZglAIRfkutxhsUH/15VV96rDOhxnMBgG9VRmEZ5VLvBupVur1TZRJnMNosJMCjSj67rb8GQDyDyN1jip0kQBEEQBEEQxCkKCRCnGNItP9pANNHF0pCXHhL6OE39hlomHddBn2gRGNZ6C4BUH6TQwBgDU/v/TeM1yogthm3E6n9kbAj9Jt4Mdinf4Ms+DM+FEu79xQzrYvhtjjEfLYhELX9QFlF4ArD7mUiv5jzHGr9eH4fJZ1ds+f3fDEEQBEEQBEEQMwoSIKYB0hgPG8yuNtDBDINQlysPAT9uQ9ho1AY851JQMI193+gvklzHQYw5iMGBwxkYF2BcAFyAexz5nIdcNod8Trr6CzU+e4uAHk+UQcuFQJ57yHNPntbBdKwKBw5jYFLvABMCLmNwmQNHfWecQ3gqmeuiPCEEUzJKhDFtz1UjhIBQXh4Q0HKIXGfugfOcTF4OEHkw5sFxBBzmwnVi6tOFw1wwOGBCeQUINSAdC4Ex6TniqMQcgDmyqjpGVM5FljtMeRnIkYTXOCrQpnoOUHN1Xdd/9rI4WA99r9y2ExZ5CtoNrV0MYDEwJwYGQDAPwvUgmIwPwoUAHAdwYhDMVZt5CIIgCIIgCIKYCZAAMQ1gTHoVmAIDY5YBKpQHgjaNlTEpj9vkBV4RQgh1RGYgOowlPmgBQBr8DIxDGf7SOYJ7HF7eQy6n4k0IATBmeC0Upii4EPD09g4VxJLpN+vQAoQAE4ADBpepcz60pc45BOfyU+hTPmSSGkJ0/1HGdWi8eqsJpBAhPTK4FCG8PISQiYGD6TgZYFI0QeDNYQxE9uv/W4kQOh6EmhfA/Op6xHKLizFeoeal/pF3RQgphsAQ2ioRUQ7AFx9K3aPLZJ4DMBeMuWpiHuB4gMOD0TEmRQjoRBAEQRAEQRDETID+9j9dEPJf0kj0MwoMZokSDUpvQrAzCrANdJ0nDKPUR2+/MIQM7blRRleR6D6CvqQJbgsI5qc5rMLRHweWiBLVulAeBp7nwfM8dTypPKLU4zkI7kHAg4A2xuXWFq63uyhvA67WWAocyvXByNPX5hrAEBz0s9dChIlZv9j1ceELKBN86ARBEARBEARBnLKQADGlMd6WG0Z3KWORmQEXmTIIVYZvnDIWrleCKCPVlwEs49cXPnxvCRWMcqIKhC8qyCQN8/A6FK6FEgeiNYIJY4oeMslcGGPUJ0twzsE9TwkI0htDek9IrwiHQW4dcRgcJr04oLbMCC5PtgjmFkxEPq9gUtK7RZeFxQdN4foYz7HIGpp5YwkJujxYk0CMKvtHRhAEQRAEQRDEjIAEiCkOY4bxa8RysI3GwFAMG6J+rhIdjBsKPCTsNjVmvhD6jXyoCuCLH0b/jjwV4zj0Bx8tPhQTIcJjRMhQnwzsvuQzKazDOUfek/EvwJWngr8dRHowOGpbht4+opdInyqijyE156CfHWPwN2ToQJwyX3meGN4H9rqYD0Lnh8sDzHtNEcKsXyhOqG0nKt8u9SnSJ0EQBEEQBEEQpzYkQEwThAjeeMsTKSTFXjLLN9DBtaxjvSVX5WHjPdowNY3RqBMudPvhm47P1vSNfaG2HZSV9H2BcHNcg9BExLEwBQKhPDQ8Hmy/yOezyGUzyGSP4dixozh2bBSZzCiy2WPI5TLI53PI5/PI5/MqhoQnhQcht2lAxZJwmABjAvpgCcakF4UeE/xnIEUIOdzCZ2p+F0ZAymLlMMUEFgQ7tevrPCFkzA//txH1w4y4lyAIgiAIgiCImQEJENMEaeCZJ0nokpCfQ3BDAVZZlGCgiDIwYeQ7+qQG09i02hIiiNUwbmcEfzpBm8G8TQEgugzaAI/oV5nTdvaYhLdgKEPaEAAA+CeLeJ6HXC6HTPYYRo8dxdGjIxgZOYyRkTRGDh/GkSMjGB094osR2ewxZHMZePmcn3g+B57Pg3s5KU54HsA9wBcppEBh9q/FgmA81gIYxf462XUMROh407ERaouJ/7uwKyDykRAEQRAEQRAEMUMgAWIaII3EwADm6ruPv/VhQrY1UMQQtY16jX8cpmmcMmizPxinv2WksO1S+Eas+m6OI0hBflSdUkxwiQxU/2pedt9SgMji2OhRHD0ygsPpYQwPH8TwoYMYHj6IdPoQDh8+jCNHDmN09AiOHTuKzLGjyGWOIZ/LIJeTnhP5XAb5bBb5bBZeLgsvJ0UJ4ckEXnqeNnpdNVFrZT7TcsQHXe63ZXtARNxfuPmHIAiCIAiCIIiZAAkQ0wRt4HHtBaHypX1XaMwJaSGrLxECgxY1tJeCZZAW1I8gZJyqnQ6mIe4n86ZyMIzYsQxgRAgAcu7jFz5KYY5Hiw96vvDHEBxbKWM/yOM5vXwOuWwG2cwxZDPHkMtmpKBgeDzk8zlkc1lkMxlkjx1DNpNB5tgxZDIZZLMy5XJZ5HKyrpfPQ1gCQOjITCMWRDmUWm8zz28/op7QR8EWaYcgCIIgCIIgiJkNCRDTBNu4D/ZgWIaeUSTlBd8vwTLSA6PZRhuZxRBKVAi3pwz+iO/jhWkDVxmxIWO2zPZU78G1v1wTM4yZEV+BsaDRYK7WdyHAhJCBKD0OnvfUlgp53KYMTBkEqRQeh5fLKZEhi2xWpwyyWZmXywXHenLuAZBbJGTX9rMIRIhg/ezvAWa+fa2xfxd2mSwP+ijshSAIgiAIgiCImQwJENMG6xQMo0S/ddb1tNgQNpJVG/o7DA+JCOPSzvP71W/ajaMi7XsDAzbaBX9spPHKbPEhAt1X1Digxy3kmhSINePAN6qNdZZbYaJhjMF1XH+7ikwOXObAdVzEXBeuq74zBwwA5x48L6+SFBvy+Szy+awSHaTwIGOBcDAz6KQ+BtQIUFowXSa3z5jzMOdVOMewGKGJWmcYK+zXH+PZEQRBEARBEAQxsyABYhogBQOlF/hu/0WMQNNTwo9SEJQFX4q1EMYWIXxD1z8yMvCGAAKjM2TQ+i2Uh9QuCg1hu46dB2OMaiHs4gljb2nQTRczxqXwI4NFasFAi0N+UnU496RHQ4Sxb8KUiOEwB64rxY3QmLTApP6xx1ys5dCzKtH/mKi1sPslCIIgCIIgCIIACRDTg8CIDxu72uAsblqG30ibNmEgaRQxoA1sI1veZXhTRBnhRiyAwlJmpTC6vjam7TLZt1Enon+dY7fOYC1Emfhyjr6VyVxACw3yWmar2kp0kIKKbkHmaVFCiw9CyCM3pbCi+tQGvSkQOEyeQOJIrwldR6+TuR7B70OvZRj9u4havwA5r+CbvtZjs+r4j9VaY1WlYOVL9k0QBEEQBEEQxKkECRDTAKZc7bWtJg1HBsGFigUgMQ1Wx5Gu/q7jymMzDWNTCP323b91HMi2meOAuQ6EyyAcBs4CM1QwQB0SCa76kYkBcMCYI7cmOPKaMUfORzBwDgiuT5LIIZ/PS08LNXbP88A97VUQBF7UWxE0jloDfVyoRJ7S4JhWfpl43EOe5wFwMAeQ3QkILmM6QHhggoMJASY8CO7B4xxOzEW8ogLxigr5DNW6eILDU3W4sswZPDCRB3gOQh2/6Xl5eNwDF7KeB8ADkOcCOc+T62EEnyzYkqGOBdXbZkzPFfM+8xqGOOHxPDwut38IfQQoEyqZ1zJxAJwxMNcBnGCN5e+OKw8OJv/g4WW64RAEQRAEQRAEcUpAAsQ0QL/9tq01aZSHsnz8exiTxi2DejVt1Al9Kw/ZpNm2bD+UlAihBQlE7oYwKoeuA5Ek2OKhBZNCrwt9HRIZ4A80GKe5VhPYFiLnIiBCQ9UNCum9AID5Yw3iMTAneH7m3LhxqgmEbAPam8LfuiF9DuSzVtfKbpe3yTGYR1sGaxHGfAb6vlLX+rvsN/jH/B2azwIwfwfhozaNpTd+KtHjJAiCIAiCIAji1IQEiGlC2CwshWVMFlr+Acz/10nFN2otEcGGKSM2MFT1fArrBm3ZJZODL7zo8YaMalOVkFtOtDggTCFFPQ/bA6Fw/tZGhyKT0mOS12qLhvpHe72Ek93C5KHH74tTZTKeugRBEARBEARBTG9IgJguFBiqKt6AYb/5hrHxZrwoIaO5fMpquwjm+E3D28wrhq7H1RyjkPdrQ98uPV7kegVj5hBcGd0Fhnd4bubY5ZaUiHUwRAfdhhZc5DMtnFChwBCkqPKJPO/xEQS+9Megx2HXFCo2BkEQBEEQBEEQMwYSIKYBtiHrG6NMurGH7Djh/6skx2uOhu1h3Zpq0WzY0gLseZiGuI1pyIbqG1UL21H5RdZgwvNWWwc0sj/9HJTRrWrIMdjjUt4bxjwL5hxaKOu7kW/PTa+ReW3m+URkTZToZ6jWKapvg4J5EwRBEARBEAQxIyABYkpjG+tRxqdtWI7DuCttJxZBG5yyHykSyHEwf3+/MsSNmAGm0WkbrwVl+othyAoAnIfr+mVR7VnGfogxDOQomP8v3V+w0oVv+M21KbMv4f+rKHJtZMcF8zXqQK29rmcUBtfHQbFnAMhYHPactVeEKf8I8oAgCIIgCIIgiBkHCRDTBGloSrd/aeyZvg/aqNPJME5DrRhGse+ab1UYF74JrsYSBHxUuoMyeguNUttw1mhj3k/qvlIGdzg/mLfsXpcZnUyY8S2WXutiSZ9Y4T8Tc7ym1FRkrey5FyRbwLIbOA4K+lLbS8z5RSGseRSpRhAEQRAEQRDEKQgJENMAaeCFjb4A8+27NrtN7O8S+539eFG2PqDNciVmmGMJGdFFsA3SEKYHhBDqVAgeatdcD71O0RQtGAdBG6HVi+w0qGELD6aw4hvqtiUuZLsFwoHhBWP/JmTdsPAg66nryHGOTTFBwe4bSoDwj0RVJ6GEsX+/BEEQBEEQBEHMFEiAmOKEDMsoQ5LZ1nBgmBaD+UpBoVFZDrLtqPYL29PGtm3E2nn62nHk6Q2wDHUYARwhwt4RsjhsbBes03FiTtkcH7RWYFaGFGPKIVgDMeZw5dSDeepeI38jRr5/bbRVLuYaF8Ncc/s5mzA2qY+EIAiCIAiCIIhpBgkQ0wXTyFTfGTO3YSgDVRYaN0YjDXh9VT6FxrZswm/KMj5FyMgubdAGZYV1fSNXnTxhYhrZofzQt+NHt6fno8dnCgCy3LjJMtC1EBASBoQWH8zrqPHbBcE66d+C+Zuw1734yk8cc80FYMR7sNF54bUgCIIgCIIgCGLmQALENCEQFyx8yx/KBIyqNIlI61le+6dwSAUiyuzUw7GNYRO7jBknKfhGPmS/ynz37y00Zk/M/AWCLQZm8ksFN8agxmwLD1biXN6jPwMCbwU97ygYg+8x4ictQhSsaTFhYPwUrrkSIoR0TSkldchq0fMhCIIgCIIgCOLUhgSIaYAwDG/beGOG/GAT5XQ/WUboeNBdjmUE2+WhuoZnQCm0gSsNYrv0ONBGt/pqDc2URPznwTn3xQWhtpDobSR+nlEeHq583lJ0iTba9XqZIoQtSJjfC1wzJglzbKYAQhAEQRAEQRAEYUICxDTAcRw4zClqgEe9QQ97JEiZgjEnnOAa93Nw7gWBHgX3jWBtuzIGMIeBuQ7gOABz5Hc1Pvmp3sILAFwAgvvHZ5rjNI1kE9vQNu/Tb/zBmJ8vkfNzmAvHcQEwCAFw3ReYnKsAhJBlqnUjmd/tMhEsQOjtvzLy1ZwlOs+B67pwXVc+Px3bQo3b8zzk83l4nqeECg9cXatW5CiE8POjjyEV/rPj3IOnnqGcpDUfw2vBXntfBAnNTykrcjHlNVeeDjoOBwBHrYHDHDjMBYMLIRggHDA4/proX6TuO+iHIAiCIAiCIIiZAAkQ0wDHceDG3JCng2m25T1pyAIAGAdzBBgTYNJWV0mKDoADxlwwFgNjMUAAnOfheXnfiOXcAzdECN2G4zA4LgOLuWAxB8yVooPrKGPbUcY2kwIE4wLC4+Ce5xvatgFsGsK+2KBMVSEEPB7cy5gD1435Yoyes2zDgevG4TpxMDgQXAsXTM1XGsWcA4LD2MqhUyC4hK9lchiD4wTCB+eBIOK4biBCMEghxnURi8UQj8cRj8cRi8XgqtMhtPhgJs/zkMvlAgHCkQY75xx5VZ9zTx7DCr0VBBCCw/Py8HgeeS+HfD4Lj+fBhReaTyAsFa6/ufY6CS0y+OKDgFw8+Z0JASYAKTEwuMxBzHHhunEwFgP3GADXSFKIgPo9awEiEJEIgiAIgiAIgjjVIQFiilPeC+LgzTKUMVns7bJpdDLG4MZiqKioQCKRQEVFBWKxmEzqzb1pKHqGkGAmUyQQ6i09U+7/ruv6/ZWL4Gqrgs5QMSHM5Djm92DOJno7gF4fWa7aLVyakjD1hp/pLQ3avLc9B7j0SNDGfmitLONfe0Y4jgOmxAa9xp4nPSKEkFs69FqayZ6zblO3j4jxaaLyohijONQO57ysLRj2mAmCIAiCIAiCmBmQADGFkXaaYTSahT7SAC/HkDPraCPRdV3E4xXqLb1+Wx8PbR+INGaNbRVShJDGs/lGWxvX40W3qw1VPdYgQc07EBjM+uomX7gwERMMgsi0YKD7ZLIx3/gWQnmNBGtjro8UZ5R3hy0+qPZ0fbmW3G8PVn2HBc9Ez9s0/B0mBQ2N/8yM7+UgfS1k3ah7/HaNeeq5lboHxjMlCIIgCIIgCGLmMH7rkHhj0GKEadNJ27sstLEXGPHKWHVcuG4MriuFh1iswv903TgcJwbHkVsYGHPl9gahTNMII1sbzUH7gbFcLrpNwXkw3zHaMI1hxqT5bc/VusP6XhrGZKyLoC1DlFExNGT/0tPBNs49z/PzmRJ+bIFHE4g78lPDtLhgCEJBYbi8oE2pvITyNOZYzTzl4hHuR43Dnp9MXhCnw2gnqn3djj1OgiAIgiAIgiBOXUiAmAZIwy36VAclK9jZgXFnbF8w3fN9w1fHFBSyHcYcX5SQQoQpSsRlDAb1Fj78Vp4pp4PwWCZkYCoHA/gGvjTytSHvedLY1W///WQ2wWRMBlbgBaHWciIoA9o2qpWdrr4H9aLq6vU3jW99n6NiaMj4D2Fk3fB2GN2mjRxTobGvy0phlhe2UogegxQghPr9FHrNmPU1E/ptEARBEARBEAQxbSEBYoqjDbbihmBgZEcZdMoMDwkPZgKYetMOQEgjVxrCLhwn5ntHxOMViMcq4MakR4R+e+8Hn3RVe9YQxjJ4o2CA9HhQ8+EiiDMhU3B6hGxf9WH3JRuy1ken8WF6fARJlZljMIz2Yka4fg7h5yX8uBYyoGUUgeeJv/Ui4pkDgReFrsOM9cQYzyVUVkTk0Og+5Hg4mBM1t+KUW48gpg1eGj0blqOxrgY1NTWouXYLBu06xAln8MEmuf41Teh4xS6d2QRrsxY9diFBEARBnGBIgJjSKPGhiAFom6na0LST77Gg3k77p1X4XhAqgakzDeSnrus6rjzi0nURc2OIx2OIxeOoqFCxI+JxxFwpTOg2TUN9vGgj3NHGqfHWP5/PI5cLTo7Qb951P36/4RaDK9+7YnyGr+ACno7loAQHuxdJIHQUM67NfG28cx7dWilCz1nNhwu5DcaPH6GQvwFZp2CtijwrmWdeh+sVfsojOfX87Db1WAmiPHqwtkYZ8TU1qLuzz64gSa1Hg1Gv6cE31tzv+4fFWPlPvehPq4yjGavGTCD87MxU98EWrN3Wh7Q6uOnUxliHheuRsuf8zFp/XdY+Y5UR04/BR7By0SIsstJHWm7End95EQfs53/gRTxy+0pc/RFVt3kFbt9q13sO7RFtLmpegc9t3IV9WbNuNM/dHXH/okX4yLU34s7vpDBi1H1160osWrQSjxT7Y/SH7Vi0aBHaf2gXhJF9tuM5uwAjeO7uq7Fo0dVo/6HZs80IUt+5Ezde+5FgvJ/6HO5/dh/KmDJBEFMcEiCmOL79Jvz336Fyac+ZBnZg5GnxwRchjK0TrvJicN0YYm4sdIymPLJTe04Y2zbU9oxYLIa4Oi0jHpPig96aYYoitsE6LrShqpsTkPEVVKyBIO5AYGiHehF6y0rYAAbCngDlIoSMSRFs+wiGFm5OzbfIvIsZ4cLwagidABIi8GYxvQxYoKoAEevu96mEoVIEYoKqVzjUAnT7souxvR/GGgNBRJH+7g702n+BB5Dq7ppCHgZ92PHdIXmZXIedLw1gYPsKVNvVjoPp/vY6va8PXV9uQd3HOtAf8TynCz23KGGhqaO8398rG3HrQ2XVJKY553zoBrR+sVWlG3DFeQfw3D9/ASs3vhhUGnkO7Z/5Ah7un42Fn5Z1b/gg8Py3v4CV9z1faGT/SYvR5jpc9/4K9H+3HStu7cIBu24kSbT496txvekAnvvnz2HF3c+FRIgTxwhe/OaNuPNZ4JI130DrB2fbFRQjeO7uFfjcPz+PbG0LbtDjPWsfuu5egRVR60MQxLSCBIgpjzauo2NAQNmIpjFqJ198sJLraI+GOOIqvoPv8aDjRRjbN2RbMoCif1xnTIkXrjI8le05WUYmMwQDYRjXpvjg92W9pZfbFeSdofWRDY8LKQxY/RneDn4drsZmeSDA7DsSAe6pOfHCtZNtjX28qdlneKzlE5pfRJnZbvi3JuNX2OPS5Sb6/omMj5ihpHeg+yd2Zgrf++5UMuqGMaw8H5LNzUieDiCRsCvNLK7cgD179qjUjfYrq2T+S+247VEl1swQUl9tRec+O5c41Zj9tkux8PKFKrXgpm9uxrr3AiM7H8dTo7LOiw99DbuGk7jhn76Bmz4m67bc+gDWXQqM/Mc2fM9WFeZeZLS5BJ/40mZ89aPnAD/fhsf3WnUjmYuL/PuDcd1x+WyMPPstPD5g1598Xt36BXxh5z7Ufuob+OpHz7eLAwYex7eeHcHcpd/A5ruuQ4s/3sfwwNK5ONB9P7adhPESBHHiIAFiGiCEeqNuF1iEjOyIpA1X8wSGWCyGeLzCDzTpn3zBZGJ6+4U6DcNxpEiht3RoTMNUHOcpGNqIh5qLP25HCh2miCLrhOfsj4NrTwQ5Pr9ORJDHcgmtqTK29fSEsVVEJ9NDQwof4WcUzMUNnD50LAjLmBeGCKK/++ut/tFrYqLraHca+1mZqRzsesEzMo4pjahnMp7+CKKyshJAGjue7A0XvPQ9dL0GoLISleESAED6hS1Y21KHpHJzT76vBW1PDkJvigjeYm9E79NtaHlfUn6va8TqR/tVrUF0NEW87X6lA03Gtg/pmbASXao4dU9DaEvIWGORZDD4pDGOC+vQ+Kn16DkI352/4Z6UqtuFlTU1qLmlp6grvz8/5S3he08s2Yi+Pe1oTIbnlH6hA6uX6DEmUdfShu5XghH67X2+G/2PrsT8C1X/pUhUoqqqSqVaLP36PWh2ZVHfT34W2qaw9sl+dH5mfmge6b7wutUtXo72p23hIo2+B1ejIanqfLQd3futd6RlrpGkxHNQz33lE6pqqh0N5W798XrRfk839O6cQsr7rcEc9y3dGDJ+u8mFq9HRlwb2daNNr9uFdWj6cjeGIjxOBp9uQ5OKV1K3WN1rkhlE95dbMF/HNKlrxOoHjS00/tgasfGFXrQvSVLcjQJm46J3nQ9gHw6+DgCvIvXSCPDWD+BSpcf59f7kfAAjGDli5keTvOQSAAdwwP7PoWxmY0HLFTgH+/Bc76t24aQy8sN2fO7b/Zh9+R346vIS4gMA7NuHfQCSyVq7BLULl6C2Kov+lK3QEAQxnSi0VogpRTEbLWRCG1+08RcylEt4QQTHcAaihJlkgMlgu4Z8826LCtqAlW/vtWGp+x0vequFbsdVAkQsJsfgGMdXynFECwp6w4pp6PprEqpZDtLA114PpqENdTqF0J4ZhvhgzkPWDLCfjT5BQs5XCjyMMegYGH5SIoS+jmrPfD66/yI/pRKE7zBFA/MZB/0GXhlmPXMsJiRAEOXScO1SVANIP9qJHsOI6vv/yQCPlU1XocG8AUD6mbVYfG0buvrSyCQqUZkAMgf7sOWmBrTYrvC/XI/lN25B30FlbKf70X37KqzXtn45nD4H1fMq4fs7VFahel415pxe/lj6H2xBw03GOLw0+p/biJVL1qInncCcedWo8pWWBCrnVaP67Al4WOxdj5ZPdqDfUD/kGNvRvTetRJEM0n1bsHpRCzrst41Prkbj7T2RBu2YuHNQ/WZ1PTQM03bq+nwjWp8JctLPrMXiFrVuOm+gFx03zkfTg1ogAvofXIaWe7oxqB/fSx1ofygoHy8ln8OofA6VetndSlSp51wSJbqkd96B9S/YhcdB12rMN367mVe60X7tYsz/6Gps0evmpZHathrXfNP+QXeh7cYtSCnNIT3QjfZrlwXP2+tHx7UNWL2tD0Nal0j3o/ueFiy+tccSUvqx/hPL0bF3JsY8GZsDQwcAzMbsMwDgfHziwe/j+w9+ArYpnh0dAdxanH+eVRDBgX37jDYnyGlnothGiEnjN4/gC3+/CyM11+Ebty4Yu7+5czEXwK7t27HP/jOm5hN44JHHcFfTOVYBQRDTifFbh8QUIzCK/RxLfCiWpOFbmBeUBSJEzNXxHtSbesOmlMawTKaRGhYJysc3rpUXhON7bsQQc13EXHlKRzBuJbzYRrfyfNAEdeXpH+NGdcGY8n7QGcbJFJ7nweMcnievtQAhRNiDJfwM1Dq7loeK2mYhgALPCs/zCraEMCbjdJjPU8M5L65mRaDXT7dhrqMtHATzKP9Z6zbstggiiv7/9R40XwDA68IO/zV1H3Z8Nw2gElc12/LDIDrv75LG7fta0fNSH/pe6kP7ZbI09e3HETLFvCo03tuN1N4U9jykYzYM4tkflvFWW1G9bDN6dm9Ao/qeXP04enb3YPMylDeWfVtwm/JuqLp6E/akBpDauQ5JF8BQF9o2n4XW3T14fHVS9dCIDbt70HN7vfo+TqrqsfS2DWhbVotZR7tx241yjJWL29H90gBSe7ZizcUAvBTav9wZEgrgAYkLG7HmKxvQetkcs6Q0Xgb9j/4Ttrwmv1a/710IvQD2EqhdvAZt97Xi8jf1Yf3tat0uXoOte1IYeCnYwpG65zZs2QfgaDfWf1U9zYtl3I1U306su9hseByM9Ryeei827+7BhitV/XeuweO7e7B52RiRPprb0D4fAIaw5W8jAlJOmCTWbNuD1N4Udt6ifhveEIbmqrXYsxkrLpDZg7t+ZMWrqET97TuR2mvM0Uuh/evdyABIfXMV2l8CgCRWqT66721EFYChJ9ZGCClVqP94KzZ8ZQVqxxJkZgpeFq8+eTvufHIEs/98Ga4oZTePPIWHv3MAs69cggVKsIomiwM//RZufzAF1CzDVZfY5eWT/eXLeBXA3Kq5dtHkMPIc2m95GP3nteCBb34C55ecl6LmOtz1qVrg59/CiqtX4s6tu5D6PUV9IIhTCRIgpjiO2i4glLHmOA7i8ThcV/4pzjn3DT9pzDF1kkU4+SddWEkIfQwnA5gD5rhwY3G4sbjckqG2ZTDHleWIwWUJxJxZiMdmIRZLwHEqwJgr+zLiE0hPBvm3LNvYNo1k22iNuXEkYrPgOjEADjhnAJS3RjwOFosDrgvOHHgC8JTQIAxvA8d14cZcGdtCeWFIw10LG0x5cuikPTuiEwAIDnAOeJ6A5ynDXzAwuP7WFddVW1YYA4NAPpdFNnMMuWwGXj4n10NwCOEBEHAYwJiQwkY8DhGLw3Nc5BmDcBw48TjiFQnEK2bBjSWkBwiLgbGY6keNTW3PiIo94QsgggNMyAR5zeRjh+PILR9gAgIcXHgyRW2FseJPaHEkn/cA9Tw9zwNjMl5IKexnTxDRJHFFkzTwur4rjSPs2YEdaQDzVmBpMnhDLqnGqu8OYGBgAAOPrUK1K99U19crA+21QewP1a/H0pZaJNwEqi5rQJ3KTf3SfvU/Ecoby1BPN+Q5H/VYd2sjqhJAIrkGNy+rRvW8auDocLjZ46IB7U9tRfv1zVjx8QZU9X4P3R4A1GLVLUtRezqQqKrHmpVKTtnTi5fN2+etwrZ/24R1y5qxqkkLIkV4YqW/9aHmwiQab1dbEKqa0bYyfG/19dvQ/cA6rLh6FZqP7cAOpXo037QO9VUJ4PRaLL1lFeRdfejuGQJ+0qPGDjTftAbJ04FEZRJrbmo2Wi6fE/ccqrH07lY59skMSPnOq3DN/Cok3ASSV16l1gZoXq3WoqoBDe9RmamXEf5FN2DVp5NIuGqOesme60UKg/jRLjXGps+iVfVR2/JZLJ0HAGn8tC88h4a7n8bWu1ahedlSNISUpZnFq99eGZw2ccVHsHLD88AHW/HALZeiwq6s8V7FI7esx/OzF6L1+ghF4dk7jRMsPoJrb9uO/upP4IENLQVeFOWRxYGfPoLb//l54KyFuOpD5shexcOfLjw1Y9GiRVjUtsuoNxb92HbLnXjePQcY/B6esh1wSnD+8gfw2FdvwII37cNz327H55Z/BIuaVxac2kEQxPSEBIgpjWWgK3d213B154L7gSLVHertfnlJCID78S2lUS5jPbhw1NGaTG0PAJRIwWIqJkQMrhOHo8UHpo7wVGMWyitAB080jU37O4y34drjQgon0vAHGJjjyDG5rhJEXIgi3gyOWictdsA3xE0DXa5BsKVk7CRUKAXZFtR85dxlX3I8QgCce8jnc8hlM8jlsvC8vDrBw4PgXAkR2jNBAK4LuA44c8DBIBhTglAMbiyunkdMejmo9TbRQoONL0BAe3DoJZNihBYhpDARJGFs7wCCZxb13PTa6ucvjJgbZh0Tux2CKEXyfy+XxlX3DvQcBXqf3IE0gOqmK5Ac2h9xEkEa/dvbsdyPaWDGTzjZjD2WodeUWwCqMMcw3hru6EHP8Xg6RFKJOUbQjMFf6e0K/Vi/WMdEqEHy891+fr+5p7+yCueW1haL41aidnErtj+1AQ1W4I4z/9e5/nXmd/uVi38SF5lbwS+ohf762mtDGBz4ufpm1ZsgJ/Q5XLAK994ohbQTHpByAs+n5p1KvkgPYxgDeFn/RHeuDkSkmiZsVEtkC3SVZ0dFYpl5hE/BaMW6Ty3A7D3tWPk32/FqpOfLCJ6793N4+De1uO6+Vlx6ml1un4LRita/bkbtwUdw41+147kRAHgVj1wfFgtWbjXjOuzCnSEx4SO49raH8aJ7CW4q6PMcLPhr88QMI33MFA3H6vNV7Ktahwce+SpuqBlB1z/osSoKji0NH/95ziUtuOPBf8f3u7bgG2s/gUvP3SdP7fjCUzixESsIgjjRkAAxhZHGojL6pEnobyvwDTptVZ5Egy7KEDWvzfFJg1+9oTe2I+gtFna+TMomV/OVAka4X6aCNAbbF+y4EIbgoI/GNMZubtcoB/Ptv+MY8RkUch7BXDzPQy6XQz6XQ96IB6GT9BjIh4JVTgRzvnJTSPF52c/NfhaFdaPmWBjXQiPr6+vi4yCI8ZLNZ4ALrsLS9wHwurHjmW5070wDqEbzldFv4PvuXIzGWzvQuzeD6sVr0Hb/JrQpL4qTzVQaS2lUXImCNAeJCRi0gHUKRl8KA3v70P3AKtSdbVecGLNOP8vOmtIkV7dhaRVkQMr7xgjgOVVQ8UwK0kTij8wAwqdgLMSS5XfggbWXIrv3W/jWs/ZWAnnk5J0/qMDCL30Vn3irVawJnYKxEAs/dhMeuLsFcw/swrc6+wHMxYLrw2LBDQvMbRX2MZx34RvffgL//thX0VzQ52y841LzxAwjXWy2OVafC3Bz2xLMdc9Hy33rcOnILtz5JePY0HMXqCM2dboBCwINMuC0uUheeR3ueugJPPCX52PkxfXY9kO7EkEQ0wkSIKY4IUNOSI+HKFd7WU+n8WEbi6YYEBA2Xk1jttT9gbeAbCtcVjpfCB1GEn7/UnQI4iSYcRPsLR5gUrTR0zCN6gmsklxde95GQ4yZcS8cf0uLDvQpTxmJGV4SDFzIUz88P36G2WcYc531uul8s8z0QtHl+tMxgoKKCPFH12MsOOVD17Xr6XyNnrc5FptSZQRRjP6B1wBU4YpmuTmi+8u3ye0XFzTjikj9oQed26T/fvWN26Vb/5WNaLjoTLtieUzU+AbKHkvVvHnqagj7jYALqUdb0Xp7K1ofLeG9EZtl54yLOXO1GDIHS7+u3vTr9HQ3enZvxgo9vPFinoLhR24cm8Sb56iTTV7Da78zCl7ph/bXmDevClVv1mO36tmUuUbH9RzK4fQGtN4ut7ak0xHnYRzXb+34GPiNmlvlWTgLc1Ctl6JuHbrM38TubnQ/fZzeIDOM2cmLcD6AffvCbi+vbv0C7nwWWPilzWj94JjhGcNceBGSfpsVON8SDS59q7mtwj6G81Ikz5tdfEtIWYzVZ0Xwe569BK1fXIDZP78ft2svidPOx6XWmM4/bQS7/v5aXPuJ+/G80ZKkArWLPozzAfT/mnwgCGI6QwLElCZsSOo3+UL4eyZkLd87AOPWH0zjtJhx6LdtfC+GaZCqHD/P/LSTXzuUL0UXhOaoT4nQp3LE4MaCoI0FIoTRr29Ylxh/cQwpxFhnLWUwI8ZFLBZDLB5DLF6BWDyBisQsJBKzUFExC/GKBNx4BZgb0/se5HYL68ExOWG17uEyc4XNuYSu9T/GnHWpPf+o5wA9N6OuKOItob8zxzyatHCNo/IIYjxULV6KegBIp5EGkPzLa/w97zbHlKvz8GuD0pX/aApd/z4R47EatRepy1/2oOeVDJAZQu/jO8KBLEtQzliqGhpV7IlebNnci6EMkBnoxD/d24nORzvxvV/apwsMon8gjfTRDFBT469D3+5epD15b+dz1i1FSHz4KjS6kMdA3rganQMZeQrG3k6svuwyrH0mwlA+0dQ14qpKAEhjyz3r0TuUAY72o/O+DrXudWhsqALe36DGnsaWezYidRTIpFPYeL8+EFVR5hqN+zm8NoBUOo3M0XB2KSqb7lQBKW2O/7c2PnrQ8VAKGQ/IpDbia4+r7AX1SCKJKz6qxJ3drVh2n1wLHB1C730tqLu2A/2R2wmIKEZShcEe93Xfjs99+1XUXv+N8YsPALD3ZaQAnHOiAkhOMrM/dDNuvnw2+r/9Odz/ol2qmY3at83GgaFdeOoHhdEeotaRIIjpBwkQ0wQBBG/yQ8a0zNEGZLhs7ASjfins++w2YIkPplGrq9j92W0E1/4Bmqo1Js1hbeQbXg/yaE69LULW8b0jHFcZ4eH+bUO7HITaXuFvQeBSIBGqXddxEYvFUFFRgYqKCpx22umYPbsSsysrMfvMszC78o9wxpmVOP2MMzHrtNNRkZiFWEUFHBXkU554ERZPzGt7raFWBdbzC9UzqjMWeGvY849qG1pyKSJOmOjyKPHHpthcCKIsqq7C0sX6Sx2WFt3GUI8r1CkF6Z2rUVdTg5qLm7D+paBGZhzGU/3CZvk23utF28IkapLzsfyBck3CMscydwXuuU2ayKkHl2N+sgbJxa3oTsuAjRvWSrO4+uL3Ks+APrQvrkPdl3uBeY24SlnXg9uWo+5CdW/o6IoSnN6Iex5olidSDHWjdXESNTVJ1C1pRffQEHp3/cwK8nkScOux7j41ppc2Yvn8JGoubkTrk3JSydvuwYq5cuzrvqAm/9J6NF1cg2RdeH0BlL9GZT6Hi+pUqNJ0J1bX1aFlW2EUkuJUBQEpLY7vtzZe0ui9qwnJC2uQbFInc7hJtH6+EQkAyb/pQKs6TST1gFyLmovleDKpHejR4TKIECO/fh67nt3lp+0bPycDUZ7VjGv+XHoIjPywHTfe9zyyl7Tgmqr+UP1dz+7CrudfRWizxr6XQ+VPbb0TK9duxz43iWUfnYTgJyeF2ViwthULz4qIB2Fw/l/egRsuzOK5v78WK29/GNuf3YVdzz6FR+5T61hzHW5Q60gQxPSEBIhpgBA6KIKQBnWBUaqMRB4+6rEcxmMMTtx4LDSQ7bbCnywwfNWM/v/s/X98VdWd748/997nd05OAA3SXkI7JLW3x3ovmXYQ7jgVsRqxJdbvpNgqTK+CtUBtC+qjpn6mYuejsY8qTGvROoDeDuJUpI9WnKqxI8bWFob+gM+tZh7aZEaJM6WmxRIDyfmx9/r+sdY+Z5+dk5CAKML76azJyd5rr7X22ifW92u/f1gmvEE3LTiUvSBM/geTE0ILE9ozwg93qFi3mvg+VXifBLAC9+TPHY1GiccTJFM1pGrS1KTT1NTWUlNbS7KmhkQyRTyRJBZPEIsniMbjRKOxijASLaCUDfoKISIw+ajPwhwOnldKeyv49xB+DpV9dVWRYKnPYJ/gZ39Mx67MjREcr9o6w3spCEcmTstCU5nhw5dy8agvweK0/P0u7rkyS8bRv2eal7Hp636a/z3lBHvjIH7BHTzytRaaTI69+HvmsnJLB+OrszD+tTRds42uu5fQ7MfWV0vYOGc191zdjB/NkKmN60ob/7iJZc0Z4ua67GXruMcvyzgOMhes46lta2htrjfrhPjkZlq/to2nbpunx32LKa/J3BeQaZzLsnt38dg1ZaOr6ZotbLuphQZ/T85ewj33ry4lq9SMf4/G8xzqP3UHHRc1lZ5p3UTLTgYSUgY5tu/aBMkuo+Om4FwttD+8hWWN5rzTxLLv7+Keq+fSFNyLc5dxz08eY5kp7ylUcuAn99Fxe0ep3de5nyl/eS3f/D/XMcv8be19dgeDQH7vQxV9S23Dc1QEa/zbtorza/9pL5zZyi3f/Sat76SKI8nZtP8/raQP7uDWv93G/mpCsDODtm9t5t5VF5P+3XYeuL2DjtvXsmXXINMWtrN5vOU8BUE4YbHU22QFuN7bMu07DC06eJ5HLjfMHw/8gcNDhykWi0Qcx5TfVDgRG2USH0ac6IjqCGPhG4bj+RqEDdTw52rHQOdsCBul4bGC13quh+e6eF4R13MpukWKxQKuq8tY+okl9ThGnHE9lNJhB47jEInFiESjRCIxnEjM5F6wSp4ktq0rdoTX4hM+5noenlfKjmnEIF3BwvJ0EknXLeJ6OrGkbdtEolFcTyeZdN1q/yur773kWYFb6eliql3YxrvCcaJETGUS23LA0qU8/f2r2H/zvQkmuVRuAeUVKvqHn5ky3yPfy8OxbV2xwyTiLIkNjlPqOzQ0hG3bpNO1vO+/NzPl9HdViCZBwuEbVNnrkxXHlNQVBEEQBEEQhFOV8VuqwtvCqLqAZVHyLDCJHsunRr7ZHq0F+49F8PxoBmywT3kOvdRq81X73b/GRF2U3vJbgZCEYAiGbetQC/054AHhh2CY0qDB9anS/xs/Ja8Ek/hSiz/l8VTAq8IyN638sqnGIyPcotGo8ZaIE4/Hdd4IczwSiRAZEWJiV4RV+M+9mogQvj+9vurPLPw8/P7+IOHnFMQfz7ZtolFdIrWa8OAz2nFBEARBEARBEE5+RIA4wQnaayWb0BiQ+tyxGXRBg/BIxmHJ4B5VFRk5Rvh3n7AhHDyOrz1YfiLFSkM5GJYQFCRGHC9VfCgb0qX1VF/WqATn1ZUebLCMtBFcM7qfZbwtjIJiwkYCzRdPnAhOJGq8NYzwYJoT0eEljlMObfATSxIQPvQSKvcyKDaUzpkfwWcS7DPymej7q7z38neglA+jJEDoMJLRnrkgCIIgCIIgCKc2IkCc0JSNbt/Y1CU4A8kBUZW5AI7C+KswzENGafB80PgM9wkysn9l7oHw9SObfx9+4sSRIoTfbNvCtvycCWURwqLsGVL9Pia+T5TG0MsrZWMwB/R6yiKFV6pwYaOsUMPWlS8sB8tysO1K4cH3gPC9PHzj399TKAsf4Wfhiw/lbuZ3k0cjfDx8Pf59BqpaBAWIUshIoCKGbdvE4/GSAOGvMzimIAiCIAiCIAinNiJAvEMw5lzJUPTMT33cN6ztozSrJ07YwA0SNPQtE4owkYa+o5KR7/+jx/bPlYUEP/mkn5zTRxvioyRdLPUaH5VVMMxaffEnFKIRCSTGDLagUa6vrxRIbNvW4SS2XRIdbFMZI5x41NIbUblG80/p9xHGf3DfRgoQpV6+mGIF5g89y6D3A4Bjkm8GBQ6famMLgiAIgiAIgnDqMdJaEE4owkakb4r7wkP5/49EBXMmgulZvhoqIjrKlDwEjKFapV/ZiNT9yueCq/ENXv9339ANThg0gn2D1jekzfW2rvyhk1k6xhjXTSdkjGDZOjmjZRqm+kV57dpoVlozMOObuUprCq4tuEZQysMzySb1Os2dWxaWLxY4Dk4kgu1EdGiFyU/hJ43UYRRBQUKHcfj7bWG8IUxf2zKlOU0ei7BwgPK9PEasFvDLn4Z/lgkKAWERQq+xcs7yfnl4SifA1OctbMshEolVVMEIMuJ7XKWPIAiCIAiCIAgnN1IF4wRGG4UuSily+RwHDvyBoaEhisUi0aiu6mBZCtsGT+mKB9FIHMvSFQr8R2sZF3pfDFCl0ARPF/Y0tuCRnkhARwigRgoYAQNT/wx28PuXj+m1lI/5b9fLRqrSlTGU8UBQ5UoKFQayUtoYti0jUBjjeEROCP86f42VBnHl2jW+14M+VN4zfXdGQDF99BF9tvwcjEpQmqt8b3rp5XKXJZQ/UnkdQWxT7URf61cG8ec3QoGpwuG5LspzUa6r+5mwGH29Wb+Zu7QGBZaCYrGAUi7xeBTXK1IoFExVDy3+DA8VyGQmM336DOrf1UAq7dcLFIJIFQxBEARBEAThVEc8IE5oAm7/rnb99yoMVWMo+i7ztn7rPxa+bRk0ggMjjUmpX8UUI+fTQkf57bk28AnMMnK2gK1fBe0BUfZ4MC3w2bJs44lgvCQC3gZBkaLCwA94BQSPjzDE9W9l0aH0s+y9YJQFsCyd2yEQ7lDaa8sXRiq9IHSfsldHqVWcr9xTs4KyZ0SFqOE/6MA9+SKJKrtLVI6lqbxnAmu1tBoREDkoCRe6XzQSw5pACVhBEARBEARBEE4txFo4gdFvxoO5B1w818P132qbGHwrkCQwaIOGjdaRxmXYoB0ngeSO1cb0f/rNvw+qrCHct1oL9yt5cwSM/Gr5CkYbo9rn0fDXO1rfavdztPj3NloL3r9t29iBeytnyfDXVH4+pd+DgsQY6y5dY1FR8pQKjw4LhcJ1XZTysC1dBcOukgNCEARBEARBEAQBESBObHyb17J0wkGldKiF54VECONKb1nlyg9BYzVoPAcNT92n9Ov4CIgJ46XSEB6dsIFdMq5Dx32DOGiUB49VM9r9djTotevPo+2lz3jmGu1ceO1HauHElMGH6a+sJD4oKHss6LPB51Kt+YP4IS3BMBH/HjzXAywikQjJRMIIFYIgCIIgCIIgCCMRAeKExipVQ9CVEcqGrfJLcpqcCOGqBASM4TB+H31u5PkxMTkMjjR2cB0j38aPJDimVZGzYnQRwu8TNsxLBnqVcYLzjfX7SMpGd5jR7ilMtfup9vtEGlagQkjFbFqw8n/qvQ+eO/KalTK5NzwtYujPHqB0SAbgeh6WBZFohHgigS0eEIIgCIIgCIIgjIJYCycwlmURiThEIhGcSLmygjb+dGiDTj6pE1Bqd/iyuFBhqAbeeAfHnyiWSeoYHjuIP0+5YsTIN+9Bwmu1qnhu+MeCng5BEcI/HvaECI8bHjN8zCe4ZhV44x9mtHuiyn2NRrjfuJt5HiOUhxB6bbqFn0O4Ba/xlEexWCxV/3BLVUCUyfVg4XkelmUTiUSIxSQEQxAEQRAEQRCE0RFr4R2AZXIcOCYe37Yd7RFRMmqDxm+lQRw2jMOG5oQxHhBh455RDFpdPSI8yNj4440wuKu0Sq+HkefDDRPq4H8+Fkbb4+Bc1ah2Lrxv42rhQd5sAp4TCgLP0X/eOvzHtvVzEARBEARBEARBGAuxGk5wfGPTsgI5AoKVEfwqCCXDtmzchg3WMNWOHQlrFAM6zFjzVrs+3C8oGoTFjvCx8ueR/cJzhX+fCNWuDa97LKqtx6fa8eDYo88z2vEyeujK78aRsCzjWeFfEpjGsszzNR4ujqMFsdHXKAiCIAiCIAiCIALECY7vQaDfQgcpG9+B0ATbwbLKlQrCIoAKJKcsHz/+RqM1gbwRYSO22nX+52CYRbX+E21Bqu1f+Vz1tfqMNa7PWH3CY4c/V7QxxQkfq1SlMzxvuAXRXjf6OxW8FgjkHEGHCDnOiBwkgiAIgiAIgiAIQUSAOMHxjXcqjM9y0klfoNCdy9epUg6GkUa0//vRGIxKaeMzbAgTMqpHC4sYjeBYwXVVM5CDaz7SuFQZ40j9w4ycr+J0BaONPdrxaoTXWe2zZemyKMoLijeBMQLfHX1tZdnSMMFjwTm0t42/B+UJPM9DAY7jkEymSCSS2EYAEwRBEARBEARBqIYIECc0I41FZZIDup5bamVBoLJf0JgPGtHhPhNBoccsvwGvvN4KhESUPRSqV6II4q8l2Agb3KG+wfPjJTjeRK5jFBFhPHvoX3ekeautbbTPGDlAmcSS5SNaeAjGT1imQmdw2iPNpQ/oY0phwi38ZwNKmfKb0QipVIpEMokVcSonEQRBEARBEARBCCACxAlO2UjUvyulcF2PYtGlWCxSLBZLFTA8T1fBCDfP8yrG88fxjckJYcbzxYfRvBXKHhD6rXi4VQ6prx/NmA/2D/cZeT8jr6eacR04PhpjjUdg3WHGGnM0/GvC+1St+XsL+nmU7r08mhEP/HHNvY+yB0GC81D6vrkUiy6e6z9rHRpkWxaxaIxUKkU8kQDLFgFCEARBEARBEIRREQHihEcbdJ5SFAoFCoVhXDcHVgHL9rBtzBtqUErndvDfjZcbpc+6LGbZkARlBjANhYUqvT+3Qud1+IcvdnjG3gyPrVtwDUFjfizDPWwAY/pXEwOqGdPVjo2H8NgEckz4Hh3BbVLKX6/v4aEbpjwqgXUTWteR9qEa1e7LsvVfsGVbAdtfh1rYysJWNpayTLOxlF1ev6fMdwZQRqRAr790D8rCxsaxdOUVy5TdLBZdFIpYIsGkKaeRqZtCPFGDwi5/3QRBEARBEARBEEKIAHHCo41Bz3Mp5IfJF4YoukNYdhEnonAivrFug9KVCHzj37z0xrLKAoEvHIAWD7TA4JWapXzxQQsRKP+nPq+84BjlOYLju26xQqQICgjVjO6w8FBp9Fd6XKhAIs1qY4zGkdZAFcHAX4vjOOZPpVKEAC062LYx0AMChG7lecLr88+F1zLWGsP7pMUHpcUHP9cGYCmw0OKDrWzTHCxlabFBWXgeOn+IESFK4kOgD56FpRwcO0rEjmLbNsrTHhEKSNakOa3+DGrrTiMWT6M8xwgYgiAIgiAIgiAIIxEB4h2CfrmtpQH/Lbc2N0cnbHSHDdtqx490DGMI+8fDCSmDY4+WJ+JIVBuvGuPpMxrhOcLCR/AedZ/KeUaIAYHjYaod8xnr3FtN+H6UUhTdIq7n+h1wIhHi8QTpdC216VpqUmmcSBQd3lE5niAIgiAIgiAIQhARIN4xhKw7X4sYJ2FxIPjZ/z34M9zC14UN9HAfdQwCRJDRrg2v9Vjwje5wyIVP+L5HEw3840cSJMKMp8/bgzKeLv53zcJxIsTiCdLpOmpr60imanAi5VKdgiAIgiAIgiAIoyECxDsMq6K0YjWqiwdUERvCn0dr4T6WCY3wmy80hOdRJoFheLzxtokQvna8zcff03Dzxz4S4WvGfkYjmUjftwItKGivBssG29GKl2VHiMYS1NbWka6tI1lTg+04YEJBRIQQBEEQBEEQBGE0RIB4B6GNVN/VvXoQhjK5B4IGdtjYDhvhR2rhMIugYR4+F7xGV+aofn6sFl6z/zO4/mCfo2nVCPcJ9wuKBGMJBkERwic8bnjst4bK9YdFkzCWbeFEbRxHKwuesrCsCNFokkQyTSyexLYjurNSIj4IgiAIgiAIgjAmIkC8wyiLD8H/P7rlFzR0qxm9YaM43Gc858YSGY4mBCM8RjXG0+dIBIWUcKvGaMd9/PNH6ufj9xtLBHizOdJcFSILYDkmJyXgKQvbiRGLp0gk0sRiSSzL8eucVIwjCIIgCIIgCIIQRgSIdxAj3lqbcAxff9AG7cQNwaDRHTbEx3N8NILnwtdOtIXHPZZGFe8EP4wk2Hxse+SfiT9OGP94tdPhNZxIBIUJ/7NC4XouRa9I0fPAtojGEiSStSQSaSKRuPaM8BSu8lCU90wQBEEQBEEQBCHMSMtKOMHxDWcTgjEi91/ot3GGDTCGUR3EN9Z9woZ8NSM/LABMpI02dvjYRFu1MYLiQ7Cf/jxyDeHPlcdGCh0nEuNZl1KKfCFPoVhEAbF4klRNLel0HdGYDr8wRVoDXhBH/g4JgiAIgiAIgnBqIgLEOwj9Zjr4EyM4BEWGSk+J8nWVQkT42EQIGt6MYcxaprLERKlm2IcZafBPjPAcYzVzxSjHK9cS/DnavgQ51mcxEYLfDf37yDmDx5TyKBTzeJ6LbdskkzW6+kU6QzQSA8vRAoSlxQf9jyAIgiAIgiAIQnUmbh0KbzNlESLs7VA+X9lKZ6qIEuE+Y+H3CxrhwfGCRnl47LDxPt7mXxtktOPjRQVyU/jeHOGxgmsI5rEI/qzWJzxOmOA1JwLVvgel74Nl4TgO0ViURCpFJjOJTKaOZCqN5ejcDzoxpY1l65ANQRAEQRAEQRCE0RAB4h2ANg79z5SFh/HpBhB6sz1ewWE0PFWZWDI4Xvi4bdvHNN+R7PSjNeTHIxr4fXQbKYgExYSRLTTYOxDbtonGoySSSVI1NVp8SNYQcSKgLFwXXK98ozoHxElw44IgCIIgCIIgHBdEgHjHEBAQ/A8lW6+60Rd+ux18yx08H/z9SCgTikCV68P4AsSxUf3egow0/o/cqokP4T2q7Duy0sfojH9/jjdKVcvMMNbaNZZlYTs2iWSCVE0Ntela0rW1xONxlALPA89VeK4CpfOReOIDIQiCIAiCIAjCGByrdSgcdxSeMokRPSgWIJ+HQsHG8xxQNkXXxfUKKFVEmb7hhIpUMbBd18WyLKLRKI7jYJkwCmVCKxzHIRKJlFqFN4MJA7FtG8dxSs3vc6yeD8Frw4Z/UAAI3lN4vnD/4J74/W3bLrWxx9AiBChsG2zbMg0TEqPNfMtSxkvFw3XdEfsfnCs8R/i5VRNJfCzLAk+hPAVKYSmTDcTSORlcpSgqhYuuUOEp/T1SqgB4WLbCthUKD9dzKRQKeJ5+7pZlUSgUcYuQSkxlUua/MaluGvFYDZblgKVwbIhGLGIRCxuwlEWUKPZE3HIEQRAEQRAEQTilEAHihEcbmACW7WBZDkrZ4Df82HuFFXqa1QxXQoY5oTf1YQM8bCijKo3+agZ8eIyJUu368JqPRLjfWNf7x4J9gv2skjBTDjHQooN/3u9ZvkYFBIUw1fYouIaxjleu1UN5nhYhKtClUUpJIS0LbFMuxVJgGaHE1sKJrmPhrxmUyesQceIkEpNIpSaRTGaIRGLldVtGiLFACyAWNo6eWxAEQRAEQRAEoQoiQLwD0Ia+QywWJR6PE4/FcGztsWBZFralvRAikSi2M1IICBrD4bfq/jn/d/86/7jruhSLRQqFAsViEddzsS1bt1G8HPzx/TGC446nHQ3hewoTHj94f/49+p+r7Yd/TbgFj4c/+4R/DxKeJyzkBPfDH3s8XhL+WBXN0T/L4+nvlWM8XEDheS5KQTyeoCadJpGIlzxkfPxnGp5TEARBEARBEARhLESAOIFRSlEsFkuGf8neqzBKy++cLYtRw/vDhqtvPAZ/t0PhFFYgJAP0y+3RhIewMepfFz5+vBjPfEGj3u8b3BNffAgb9dVEgOD1fr/w/OHPY/VTJuylWgv2q+jPyFCX8DVBLCwsy8GytOeM9mbRYpJl2Xievh/LsqipqWFS3SRSyRSxWKwkXITvO3gfgiAIwvFigD1bOmi/bTN7BsLnjoY3ezxBEARBGB+WepssiGD2fKE6Snm4bhHP88gX8hw8+DpvvPEGQ8NDRCIOjmNjWxYKF9u2iUQiKM+IEsYIDRrbwUftG6qe8kDpige+AKHnri5YWFXe0vv9w3P4jGYQv1mE5x1tvuDxoAHtX6tCIkDwPv3+wX31fwb3wCe4X2GCx0b7XG2s8H1SyksROOQ/N5MLJCiqWLjYFHFd/9kqbNsBpe8vl8sDkEymOP20eiZPPo14zSRisTiO45TH9rwRwgemaka15y9oHHvkd0EQhLeevg0LmXdHd+XBTD3NFyzj89ctYd574pXnTgRe2cjC+R10A3xqE723zQv3mBhv9nhCmQN72bb+Ph75RQ8HhoBYmhmzPsl111/BrCnhzrB/9wPc/Z3t7O0bJA/E3p3l4v/dzrXnTyMW7Nj3EEuvfoB9jdey6TttzAieA+A5Oi68lR3n38KPv3IuAPseXMrS7+6j6ZpN3Lto5BX8rIML1+xg/pof0/6X4ZMGMy+f2cSmxVXGqDJvaa3hrj7vvYpNG64YcQ899y9h+T8NsuCOH7D6Q6GTjDJuLE3TnE9y5dI2zn13xY6V7n80Zvj3VG1cIFY3g6bzr6T9mvlMqxzaMMgTN13G2l/NZvX221iQDJ8H3L2sbbuRJ2qu4N4Hr6JplLlKlPbG7Gv4fHIKTX/xSa5d2casKfDc7Rdy6zPhTmFmcNX9m7iiIXwcIM/+Z77Nrd95mp4DeSBG+swLuO7mzzM/sJ+jzROb0sTsRddx/V9nSYfODfY+wT+s/T883XuAvAuxuiZmf/parvvELKaUHWv93nR//y7u3rrbrGOMv4Uw+f3s+Nat3PeT8t9c0/nXccsXKp9b6R7mtPOjv5s/+pjm7wLmc8uP29Hf6vLzmP3lH3HbR0e9ujxP8G9CqEA8IE5gLMsiEono5I4BI9c3LLVxqQ1MP5FgsagFC28UN/nw767rksvnyBfyFaEWpeb63hcjxYWgQRo+5xM2UseLP9/RtjBBYSFMNTGBwBr8vfSPBc/55/09CM8fXtd4W3g+n+B92I4WnUrfkWAiTVX2bvG/KzpXhH9/FhY2ytP9ikV9j5FIlGSihpqaNKlUzQjvB38N1dYjCILwjmWgnz0/6GDp/PNY8Vh/+Ozbz/T/xcVnxsGpZ9H8Pw+fHZO+DQtpbGyksXEVXf7BYxhPGIOXt7F8yY3ctytP0yeupf0r7az+9CzY+wA3XrGch14Ods7Tc/9yltz8EHvJ0va5dto/dwWzYj1sv30JS77+HIPB7j6999GxdVTztSo993ewrS989Pgz5SN6D0a0a85lWrgze3nisf3aqO98LnyyguC4qz/9V8Sef4Bbr15Cx8+q7dgUzv1clTV8pZ1rz61cReV6V3Pl/4SeH3aw5AsPsc+t6GpIc8FHZwO7ebLzQPikZu8OfjoIMy6+gKbA4XHvzQfaKtfcMo0DP7uPGz/bwXODkL2s8vq2DwBkaasY91rOPT04aJl9D36RJbc/Tf6DV7L6K+20r2qj6fdP0HH1F6t8Z0aOe/EZB3juO19kye2V39cD/3IzSz63lif+MI0LFq+mfdVVXNAwyO7v3MiSL2wL7ecgz92+hC9+Zzf5pjau9ceu26//Fu7cjZYkquDu46EvLKHjmTzZRatp/0o7q/+6if2dHXqecH+AXY+yfdR/zefZ8eQI2aeC3du3M8rThqEdPPGT8EEhjAgQJzSBN/G2dpPXxl7AsDVGYNmN3rz1Vvot+Gj411v41+pklv7xkqgQsH99A9c/H2xBw/lYjdKw0X2shNcRXJ+/v74B7zf/miOJAse61vBY4TYWOqRi/HvtKYXnYp6pBWjPB19ssu0IiXiSdLqWRCJFJBoviQ++COPvV9gDYjzzC4IgnFg0sfLhXezatYuuH3awqBGgn84vfZK1vwn3fZtxsqx8opvel3bRcUEmfHbivNnjCcA+HrrtPnpi59K+eRO3Xd3G/PPns2DxLWx6eDWz6eGBbwYMl733ceM/9ZA+/xYevv82rvrr+cz/66u4bcMPuHdxEwf+5S7u/ll1s6vn/rvGMKCq4PZw39oxjKbjRPrPZjP//Pkj2+wZI98+/2oHOwancO5HsvCTJ9gxFO5QJjjugsWr+eZDm1n9oTw7/u7GKkZzmvfNrrKG8+cz+72Vq6hc7wKu+NtNbP5cFnofYMuuiq4lYucvYL4D3c8+V3V/9/7kpwySZUFLpb/HuPdm2lkV59tWfpOHb1tA+uAOHvjhPqZ8oPL6s6YBTOOsinFnM6Oad8aB7dz13R7Sl9zGpr+9ggXnz2f+JVfxjdvbmOb2sOUHe0MXhMdt47pvbeKW89MMPnMfj/Sabv3bufXO3Qw2XsWmh77J6sULmH/JFaxet5nNfzuf2Ev3ces/BaSB3ke475lBpi36Jptuu4q20tgPc++iaRzovJst/tghDjx2Fw/0plnwtU3csngB88+fz4Krv8E3Fk2D3i08Gr4FB6Cbn/6k2tPSa390l9+vCg7wbz9lxyh/fwcef5Td7hjXCyACxDsH27J0yIWjhYaygap0HL9t4zg2nlK4xitCedWN2OAxy/eysB1sU0YjfI2f9yFojFZrQSZiGB9vwvfjEzSmwyJEUIAoiTEBwkJBNcFgtHPhY/7n8H4GhR1VJUdEtbHGQinwPKWrXBjxwnU9ikXtIRGNREml0tSmM8QTSewqeUD8Pau2FkEQhHcWMTL19dTX19Nw9iI6tt1Dawagj/XrthL878uBX25kxYJmso2NNDZmaW5bQ+cruUAP6H+qg8UXNRtvgyzNCxbT8VTov1Jf38PG5S00n9lIY2Mj2Q+3sWpbD/5IXTfo441f6qTne0uZc2YjjTd0AV2satTnFm7QFla572Y6v9pGczawtv2UrimHm2xnaePo4wHg9tN522Jams3Y2Wbabgjmiehj40Jz7oat7NmwotQ3++E2Onadwgkl9j7KIy9DdvF1zA+HWqQX8MmWNDz/NM8dQL9l/f52Bp3ZXLfq3JDreoymxdeyID3Ijm1PjjBqZ3xkPk10c/ffP1HdQ2IEMzj3/CZ4/m7u6hzfFW89eXb88AkGz7iYKz/3V2Td3Tw6mkdBNZxpLGj/LLPcHrZsC1ucx8aU2ecwA+j5j6rv0sE5lwUVzzaA+xxPdA7CB/6K+fWhc8fCh2YzG9i3b5Q1jZd/e4FuYPbsWZXHzzyLLDA4OJ7vS5pz2y5mCvt5bqdeT89jj9DtTuOKG69gRsgQn/KRa7nyA7Dv+49SelL797MfyGaDPiKapvkLaKrP09Md3lxNd3c3MJvZoZCdpmwWGGTwUOVxGhaw4APQ/YNH6QmdAuh57FG6qwhGPjNaFpClm0cfq3o1j/6gGz6wgAVVw10EHxEg3iFYlkUkEiUajRKJ6Hj8QqFALpenUMhTKOrQCd9lIWzUBg3V4DnfgPR/D1eCCBq6weOlHANG7BhrnuB6xtOOpv+RDOLwNX6/oAARFB/CY1Q75lNtDf7x0VrwWr+NJT4E+/q4gecVfDZ+n6Cw4icV1QKEFiP8oSzLIRqJUWPEh5qaGlMVQ+OvLTi3IAjCSUemhb/5hPEGeLaLnYf1x4GnV3HR5R10vjRghIIcA3s2s+LCNjaat3L931vMnOUb2dk7QHxyA/WZHAMv7WTj8vNY8bgxyge6WLWgjY6nehgw7se51/ew/csttG0I/cfs4ytoubmL/qpu3yEeW8OKLXsYyFFe2yfa6TocZ+r0BupLDg5xMtMbaJg8So4Lt4eNfz2HFffvpMfXEXID7PnBGtouWkVXWFvY3k7bHZ2lvrnX97Dxb26i0+zbqca+5/cyyAxmfSisPmhmfW4zDz98GxfXAezlX38B/OUC5ld7M+3MYvZfAM/voTv8HfizK2n/9AzYvZaOcQoK77uinSveC7vXdfDE+C55axl6jqd/YcIU6lu5eDZ079gxQnwZk/QFzJ8Ngz/5admwfTN4bT8HgHQ6nOGgzKyP/BVpunk6/FZ910/Z4cLsj7VS/VtxlPRrg32sNY2Lv2znxz+ukv9j6A0GgRkzqhvhI0jWBkS0/ezdvR8a5nNBY0UvwxRmz54Bg3vZ44ckTZvGNGDHtm3sD3/fG6/g3oce5raF1Xfw3K/8mB+X8jSUyQ8OAjN4z4hbmEZr62z4/Xa2/yp8roen/2U/zLmU1tEEo/pWLp0D+x/bzt7wWl96mid/D7NbW6uEGAlBRIB4B2BZFrbjEI/HSSaSJBJJXRrR1rKiZ8SBolvEMiU5LV9UMEKB5+mQDGX+CSYpLLpFCsUC+XyefD5PoVDQOQMC8RdBA7l0zIRseKosSgSN5rABPV4m2p8qxn81xrOe4LnxjDkRgmOH11Btv8LH/FYSgbzRxQc/1YO/ftu2sQhW/9DNsmyi0RipVJp0OkNNOk00HjfJKQMLDBFeqyAIwsnA6e+ebj718Vo/cLiTm5Zvpx/IXNRB52966d71ICvPBtxuOr66lX76ePR7OwHIfGoTe37Zxa49u1jzYYAcnf+wlT5g552rtNu8k2X1Y930du/insv0f+V2f2NtpeHuQvzMFlZ+bR3t500NnKiCk2Xlll10v9RN59dbqAfo38pdW6bT/mwXj6zImo4trHu2i66b51Zeb+h/ZA0dvwGop+XrnXS/1M2uLSvJOtotedWd+h7LBOa9xYzpdvJkuNspgv82Oj6a63UyzZQpaWIO8F/72OfClGmjmyna+NvHvv8Kn4EZi2/RgsJ37uK58QgKzgyuuvkKZri7+Yd1o+SWeBs50Pkou13/rXOMC86fDf/2KI+O4nZfnRi1NcDg4Jt0f3kGe5/g5o4nGEyfyyc/Wt0ABuBDrVxcPzIM47lnd4Azmws+MiLg5KjJ/34v9/3tfXQzg9bWkOfCm0TPgw+x28ly6SheAGHyL77APmBa/TRgH799GXiXFhWqMePPmoB97P9Pc6DxKm77TBM8fx9LLlvKrQ/uoPv31cOPxoXbwwObd8MHL+XisCdC3yscOP+TLEhXyTXyq+082Z9mwSdGT1C57z8PMP8TC0gPPsETobCcvT96kgPpBXzy/NGuFnxEgHgHYFkWESdCMpmkpqaGdE2aVDJFPB4nEomYN9s6lt+2bSKODqnAMgkGTSLJ8Ft1T3kUigWGh4cZGhri8NBhhoaHyOVzFN1ihXGpjMjhem7VN/xeIOTD/90XOIL9xtMmSlAoGEssqDZHcK0jjPhQmMZY4wePV9sff8xqn6vdc/ja4Br9ffXc8prD1/iE1xwey7YcEvEkdZlJZDIZUqka7Eh0xH2ONo7/fAVBEE4uunmhB9j5JJ0uQBPLblhEUwri9XNZubRFd9u1kxcCVw383538uj8H1LNog84vseuBJTSwh87HtKtA5sqvsTIbh3g9LdetZO70BhreleO1oOUyfRlb/vkeVl/ZyrKFvoAwCu+/lE/OqSfuxGlqa2eZ6d7dtbMijGRs+nnmMaMcZJfR3tZE3IlTP2c117fqwwOPdbIneElw3vPm4a+y599HBOELYdw8eSCdPEpDxZnBVTe2MW3wOe4ar6Dw3qtoXzSNwZ/cxV0/GdcVFez77lIuvPDCKq1KpQZD9Ws6qDT7DrBjRzd88IJSmILOq7CfHc9Wc3OfKPt44OrwGi7kwttHJrqsXO/HuOxza9mbmM11627h3DGdDZq44KPT4Pmny7kB3Of46U+Av7iAc6t4uYxvb4Bnbq3o87HFN7Ltv2bQesc3ueq94c7HzuDPOrhx636arr5+dC+AEnkO/Oohbv7Obqibz6UfiQF5cIGa2lGN+GrMWHwvD3/jWs49Yz/PfbeDLy7+GBe2LuXW73eP7/tdYpDnvn4j2/7QxLWrq3ieuJB3ZtG6cFoo14gJA6q/mNYPwf7/HCW8xc3Dh1ppPQN2PLmjnBxzaAePdA4y5ZJWZjn7eUX+NTgmIkCc0JTfdlsWOLZNMpGkrq6O008/nalTp3LG1KnU19dz2mmnMaluEslEgkgkgh2oXFAyWKsY2rYp3xmJRIhGo8RiMRKJBDWpGjK1Gerq6pg0aRJ1dXXUZmpJJVPaGDX/+HMEvSpKRrIfnjGGZ0S1djQEDeSw8YxZY/in34JrDu5NWHygYp6RgkPYSJ8o/vXBFt6b4Dr99VWb0+8f9pCwLBuwSvkgbMchEY+TTqdJJFNEYrHy/SldTSM8fnAd/jyCIAgnF1nOaoK+f/cNoB7WXmRyHzQ2kv1SZ+l4zysNLLquVXsedG9k8ZwsjdlmrvzyZp7pj1M/OQ6H+3jNhCpMf3cgHf17lvDgs110PbuJJb7zBbos6OmjvUkfkwaa3m8+DgwwHDo7Ov28+qr5+P4mgi8NG99vpIWB1+g7RcMr3nScGDFgcOgY3vKeeS3XL0wz+JO7uHvX+MZpuvp6WusGee5bd7N7jCSP1Ri1asNX2kriU5jq11xa2b/3UR79N5j9sYvLxqLJq7D/sSfehHCKUapgXDZy1RXVNS6ZofMbLL+F1nEY+k3nzWdaILlh/pkn2OGO/jZ9XHtDqArGZ2aTBmYsuoXrPjSmInJ0vPwQN/7dDjj/Fr5RrWwrO7i1QjD5GJff9AB7nVlcd2c7s5MAMZ2A8dAbo1euGIUps9q4ZcOP+PH2zXxz1RXMPn2/rrBx4xPVq1lUYd+DN3LrMzD/b79BW9j7IUDThQuY4e7m0ceN8muST077qK5Wkg+HV1TQxAUXz6iopqGTT07j4vlNZRFGGBURIE5gVCBOX1fEsIlEoySTKdLpDJnMJCZNOo3JdVOYVHcak+qmkE7XUVNTq1sqTTJZQyKeIh5PEosmiEbiRCMxHCdKxIlh2xEcJ0o0EiceT5JKpknXZKhNZ6itraO2to502vye1p9rampJmbGTiRSJeJJYNE4kEsU2iRwxxrPruXiui1Iu4OEp/dmyFNrHP9g8lNKlRZXyQHkoU83Dt4F1GAl6fPwGJiBE/1Qm0KRC1NBNj+Mf1+OX+5ZDVAL6ghYCAs/DD3OxbcckBPWjFfQz8itMhMWEIzFWvwoRwgg9muDaAjuhPFOi1cV1i7huEYUHNnjmHyxFNBYlkUpRU5smmkhgOxEzpn6GPmOtTRAE4WThD//lW+ENTK14+2fyJ4xoU4k7kLlgHc/u2ET7Zc1k4iZ3wlPraV84h6Xbxu+HILxz8ePlc6MZHkODHDgwqA2bd89ghgMH9u8P9yqhQzpmMOPd4TNlZq28hda6QXbcedf4BAVnFtf9P62kD+6g41tjlDaswqhVG84/a1RX++rXZCveSvc8u4P9wO6vf6ziTf+Njw/C4A52jIjTH40DHOgH0ulQUs9RqmB8YMS78crqGl+4TicC/T+jlHIM03gpl34Aup/dwQHyPPfsbkj/FfNHiZIYz95AqArG4utNAsctPDee5z0RXn6I5Z97gH2N1/LNL4cTo/qEy3Dexje/+wN+9PA3AiLNDN73XuB3Ok9FNfb9Rw8wg2n/LXzGkJxG9pKruO3+H3Dvp2cwuHctW34W7jSSfQ8uZ+l399F0zTdp/8vqd1Ci4eKKZJQHfvJTusly6cKRiTCrUZmM8gA7nu2GD1zKpVXzXghhRIA4gbEsy+RzcAAbpWxQNigHx44SjSSIRVMk4hnSqclkMqczZfJUTj/9XZwx9b8x7YwG3nVGA9POmM7U09/NlMlnUJc5jXTNZGqSdSQTtUQjSWwrRjxeQ23NZCZNqmfypHoymdOpSek+yUQtiWSGdM0kJtWdzrQzppfaGVOnc/pp06jLTCGVTGsxIpYgGokBNoVCkUJxGNfNAUWK5rNte1iWCxRLP5UqUHRzeF4e5RVQqojr5im6eeyIDZaiUCziWRbKclC2jWtZeJYFltLihXLxvKJuSjeFC5bCsik1hYvCQ+FhWQrLVtiOhW1baP1EgeWh0GMWXZei6+EpC9uJEInGiERjYDm4HihlY9kRbCeqjXdGJrgcrxgR7BPsGxYhlLJQyqJYdCkUixRN+VVfbPG8Iq5boOgWcL08yipixzyKVh7XKmJFbRLpJKlMmkQ6jROJonDwPAeFjYeNMmvwPWp8/MSWwXwj4gkhCMI7moFO/vGHxk3hvHnMTcHUaf4rtKks+vsuup4NtKc6tefCu3IM9PczkDqLRbdtY093L90/M3kiyNG1aSs9qQammmSQr/7XH/wZob+L9Te3037zerreFJ2ihxf8mJDpUzlC9ogA9Uwvpb/oqwjd6H3RVNHITKUhFTghVDDjg7NIs4+9v6qeOnHvd5Zw+eU38+RBgFnM+hDws1HKTbp72f0L4IPNOgfHaDizuPaG+VpQ2LBnfILCrGtp/2iawX/p4L5fjeuK44e7l+2P7YcPBt7yl9q1nFs/yBM/DLi5j0X/Dp5+HtIf+StGsfknhjOL/704Cy8/wpZRyqFWMoX552V1icaXdVLN9PnzmTXW85swU2j7zALSgzt44PvjkkXGx+BzdNzwAD3vvYp7v9U2onJFmXAZztlk350OeXhM04lY+3bwdNUcHgfYvXsfpGfR/F6AQXb83eVcfsXd7A53JUbThReMXYXEMPizDr743R6aPnMv91b13ggzxSSjfJKnXzLVK8ZKPhnGT0b5L0/T43vxtFYJ+RCqIgLECU/Y/T14XL9xt239Nt6xIzgm/4PjRIhGY8TjCZLJFKlUDel0mtraDHV1k6irm8SkSZOZMuU0Tj+tnimTT6OubhLpmnQ5yaUTKb3ljzgRU4UjRiQSLX2OxxMkEklSqRpSqRQ1NTXU1OjPyUSSWDRGPpcv55YoFnTSy0KBQ4cGOTjwJ17/0wGGhg7jeR6JeJx4PEY0EtEGrdJlQC3Qb+R9g1wf0G/rPUWx6JYqPFi2jW1p4caybFA65EB5Zv+UhW05utkOFrYRePxqIArPDTYP27JxHF0Zwi9dqecM5LjwPDzXpVgsVs19oZ9f5bHw+SBBESIsWoxm9JfH094cWBhRxQYLXE/hOA6xeNw8sxriiYQREsr/Oqg2Z5jx9BEEQThxyTPQ309/fz99v9lKe9sKtg8ANLBy1SLqgfgFl9LioMtPLl/B1t6crjTx0lZWnHceq54egFwnN82Zw5w5c7jyfh2yEZ82l7n/wygOh3PkaaZlof594Icb9Di5fnZuuou139vK1u/t5LXywibGi4/yyK5+cuTo27aWzS/pw83nzqWy3kUfPb0DDByuLB+qqef8S5r1x1+u55ZtPeTcHP271nLXdn04s7AF00OoxqxL+eR7ofvBu0cmhhx8gkc6B+GDF3DuFIAYCz7ZStrdzd0jcjjk6XnwPp4YTDO/LRCWMAqxOddx/flpBh/bPjJ/QFVizF55PfPrBtn+2PiuOG7s3cFPB2F+27VVvAHauPL8KfCLp4/8tt/dx0N/ex/dThNXtr0p8gMAUz5xlfaCuHdL1ZKNYaacfwFZunnijkfY7U6j9WNv3lpKfOh/ay+IB++rLl5NlMFu7rvhVnY487nlzpFlM4+Gpk9cSdbZz0PfeIh9IY+gAz+5jy3/BjP++lIjFKVp+rM0B/p38ESV3CSD3cEEl9UZfP4+bvy7HcQ+egvfWDwe8UETO/+TLEgf4Mmv3cr2348eLlOdmE5G2f8kt96ynf2SfHJCiABxkhE0SC3jQRGNRnUFjWSyJBLU1taSyWSYPGkyU6ZMYdKkSToPQCJBNBqtyCHhG5o67EAfDx7TeSPipFJa6NA/UySTSeLxeCnRpV9do1gski/kGXhjgAMHDvCHP/yBNwbfwPVcEokEibg2iIvFgk56qXQyTb0W/z7NTZp8BIVCEdf1QFlY2FqYCYgPnquFBV+EKAk3lqOFHHS+AxP5MaJcpWM7RBxHz+cWKRYKuMUiytNrssxe+WEPFcLEGCLDWOcIiBD+Z8sq597wjFhS7qeP67CV8nHbtnEc7ZXheYpIJEYqmaK2tpZUsoZ4LG6ur4j5CUZgCIIgnIT0sP5yLRzM+0Q7W3vRFSD+/hFWn226pFq4416T36G/k/aLsjQ2Zmle0E5nfz87d/yaXKqV1TfpyO3uO1vIfnge8z6cZfEW7U2R/cwnyQJzb1in364NmHGyc1i8QXsXZG9aw6LxvnkL43az/so5ZBuzzPtyp/ZeqF/E502FjYazP4SWPvbQcVEzzV+tXqai/lN30H42QD+dX24he2aWOVeu12Ug61tZd0P16hmCzwyuuPkqmoae49bLl3Lrg0+w45kdPPHgrSy9fC27nSau/WLgDemsa/nGp5sYfOZWLr/6Zh74/g52fP8Bbr7mMpY/2MOUj17PdX85HoMmzblfuP4ISRJDpM/lui+M5mb/5jH4H7vZ8cyOKq2bA37SP2c+fzUnfKWm6bz5TAnG6RuC4z7x4K0svWwpD7w8ZZS4/0F+uzs8v2n/Vt1bpYTvBfH7h3jgX8bhBTHlYi6dA/t6e+CM+fzVGO74Y+/NWBgvCHc3D/zTeGSRMXD38dANX2Rb7zTmf/oc8r8Ir2UH3UfjmVXfyi03zCbd+wBLr/giax98gh2PP8TaVUtY8nc7yJ95Lbd8uiwUzPj0LVx7Zp7n/u5ylt78ANue2cGOZ57goTu/yNJ1u6HxKq796Ch/Cy8/xI03bKPnjPlcOTvP7onsp0lGOfj7/aXkkxPiQ620njHI/t/7ySfDHYTREAHiJKNkpI7SwmEB2jjVrvTBhIZhozhoCPuHy8atQyQSJRFPaAHBtHg8TiwW0x4MgbkBCoUCb7zxBn/84x/pf+013hgYoFgo6v62TSGfZ+DgQQ4fOkS+kCc3PEwxn0e5nm6h6g/hRJK+0OGXGC26+rNfEWQ0wvuk7y2CbWsDXedW8JNAguPYRCMRIhEHxzF7asYIJmkcrVUj/MyqNS2u6PUEjyuTXFIFhAnb1ufAAmUTjyZI12Soq5tMOl1LLBY3JTp1/girMv2DIAjCyU+mnubL2tm041nuWVipBGQuWMdT29bQ2lxPxvwHZnxyM61f28ZTt80jDjRds42uu5cxtzFD7vU++l7PkWmcy7K7u9h2tbGIMvNY98Q22i9qqhhnyd1dbLtmfHHHVckuo+OmFhri6FwVzUu454cdzPPDJeas5p6rTW4KIFNb6RdRwmli2fd3cc/Vc2kyzhvEMzRftoZtT61jnn9MGJ33XsG9D32Da+fE2PtPa+m4vYO1W7uJzbmWb2y+l7aKZIYxmq6+l823XcEsutn2nQ46vvMQe/NNtH5lM5tHjcOvQvpcrv/c7PDRMUl/5Ho+O7FLJsyBn9xHx+0dVdqjdA8+zdO/AD7yV5w7muF2pq6MofMqlAmOu3ZrN7G/uIpb7t88Stz/AZ77Tnh+035gwovGQHtBwO7/8wA9o//noyHGuefpTZ1xsU5mOBpj7k24cxjjBbF/6wM8MdJpYPz813MmTGI/O9aH16Hbo8ajaqJM+ehtbP7Oahacvp+nH1xLx7oHeLovzezPfYPN4TAPZwZt39rMvasuJv277Txwewcdt69ly65Bpi1sZ/O3RvfM2Pfc0/q5/NcO7q6y/iPtZ9OFC5hBOfnkxDDJKPGTTwrjxVKjWUHHGdcYSMLYaMNRU81o9Q3P0Qj2H+uzNl6rjx2eQyn9lh0wgoIyTecfUEqRL+Q5fPgwAwMHea3/P1HKJZVK4ZlyoYVCgVdffZXXDxwgn8/z7ne/mxnveQ8z/2wmhVyeA388QN++fURiMdK1dUSiEZ3g0opgOxEs28FPdKk8FxUSFZTn50moFFG0Ma4rf1iWZYx4nb4SpQ1vfb92qa9/757nUSwUjAeFhRNxtLhiG68E7QahczF4OsGlP++RCO5xtf7KiCz+Z/279lgoaQslcaRoQjCClT1cPAWW5VBXW0fdpMlMqptCLBrHcaJo7wjww3r8FZidEd4EHHvkcxUEQThaum5oZOkPgGw7XY8tq6hcIQiCIAgnKuIBcRLjG9++8ep7BgRboVAoCQJ+3gJC4oM/ht+q2McVlA1kPWckEiEWixGPxUvhHUopXDNvoVDAMyVBo9GoDnXwFEOHD5MbGqZYyFeEO+jX/LopzwMsIk4Uy7LxPEWhUCSXL5TCMnSYgrbSlbJQHjpxY6FI3rRCQSdxLLoergnX8PycEVja48IrgvKwLJO4EqV/Km3gK6+I8lxsC4K2ZlAE8RlN3BmLoEBhGS+IkkBSChfxq2No/OdQMMJJNJogkaghmUiTSKRMXgu9N3p887wpfRQEQRAEQRAEQXhTEAHiJCZo4AZDLfywAl8YiEajpRYOxwgKEH5IQZDy70rnJDBlM8tv3suChg5PMLkZ9MHSuvz5I05En/c88sM5hoeGyA3ncItFPFePWSwUyeVyDA8PMTQ0RG54mEKxSD5fIJ/Pk88XUErhOBESiSS16Qx1mUlMqptMJlNHTU0ax4mYXAq+MFFOLlkoFskXCrrl8+RyOYqFPMp1teigjOjgFvEKBdxiAbeQp1jIUyjovp7nVhUYgr8Hzwf7hPfYJ3ytbds4gVwduqxoua++L2XCUVwcO0JNspZ4PEUkEjP3X75eX6eb700hCIIgCIIgCILwZiECxClA0Mj1cxsEW1B0CAoPQaO4Gr6ng27o9+YKndIxNEZ4bv940NjWYQy6qoVbdMnncuSGhskPD2MpiDgOESdici2U5QM9UHkU35MimUySqc1QV1fHpEmTqKurI1ObIZ1OU5OqIZnUiTIT8URJiNH5HvT6tOiicD1P545wi9pkt0waSM9krFTaG8IkYADPhVD+hzDBfam219Wu8QlfS+BZaAHBH6s8hm1bxGIJalIZLUA4UZSyjddEpQDhh9SEvSkEQRAEQRAEQRCOBckBcYITNEyrGbPVjNc3i/BcPpZJsOh5fgJEsCyFwisJAoVioZQD4sDrv8exLTKZDK7rMpwb5tChQ/zHf/wHf+jvp1AoMOM976FxZiPve9/7OHzwDV59pY//7//bi2U7TJlyGu9umE4mU0cslsD1MKESLq4pN2lh4ZrKE7Ztk0zoih+1tbXEY3EiEb+EpkuhqMM+XJOrwS+b6f/0j/seHEop3MIwlnKJx+LYAa8DX1DB3xM//4Nl4Y1S1jL8zKwqJTVHe6Z+H6UUtuWglEehWDCVNzxsW3svKOVRdAul+wDF5ElTqT99RoXYEpxTCy8AZW8X29ZVQoRjR3JACIIgCIIgCKc6IkCc4LwZAkTwmvBn//qgYRsmbDxjEjKGBQjj/gBKVQgQfzrYj21DbboW13XJ5XMcPnyYf//3f+e13/+eoaEhGhoamDmzkfed+T5ybxzmd33/yfPPP48CJp92Oh/47/+dyaedTiyZQikLT+lKD67nlrwU/LVblk0sFiUWixOPx3CcCLYRCIqui+e6FSKCVyU3hn9/fiLLQ2+8jlsYJplIYlk6h0Qul8MzVSgijklqaWkPCQ+LotK/+wkqfc+Q4D6Gn69P8Lj/ecQzUjo3RdEt4JWSglp4nvbWKLoFLMsiGo2QSCSoq51KXd20gLdLMPGoClTLCH7PxEnqzUIECEEQBEEQBOFUR6yLU4igAesb1n7zj4dbtWurY6pAGFQgCaWuEWE8BJRnqk1Y2AExo+h7IJjkkMViEZTSHgXFIol4gnRNmnS6ltpMhrpMnQ6tqJvEpLpJpRwPuk2iNp0hlUwRjegyoMqEGui5bSKRKNFojFgsTiKRJJWqoaYmTY0/R22G2toMmdo6MrV1JBMJopEIsbhOoul6RQ4dGuRPf3qdAwf+yJ8Ovs7goTfI5YZLAoYWRypzYgRbcI/836vtvb+fwZ8AyvNw/T014oMuF6r31DVCSyKeYFJdHbW1tcSicZ1nw7YhECpTxhdxwscFQRAEQRAEQRCODREgTgF8Y9Jvtm3j2OVEk34fO5So0nEcrFIuBG3QeqMmJlSlPBCe0n11hYsirufiev7vOvTBsiwsM19pbbaF7di4xQLDQ0MUCgVywzmGh4Z1tYuQQWwZhwvbsYnH4xXNz+VAQAzBhBk4jlM65hv0lmXhOI6u1hGPk0gkSKVS1NTU6JaqIZVKkUqmcByHQj7P668fYP/vfkdfXx//+Z//SX9/PwMDAwwND5mwiJDo4CforJKos5ro4FNVfFAKV5VFDqAiwaefRNK2bOLxBLXpDMlkAttGN1OpwzYeLMG9MjOUxAhBEARBEARBEIQ3AxEgTnDCxmfwrbT/eTTD9UgERYnRjgV/95s/XfA6tA9EibJxr7RQ4ClwPSwPUArleniFIsr1iEeiOFh4hSK5w8McOnyYw7lhPIuSpezhV6nwdO5HLLAcsCJYlhYb/Ba+J/2mX5estG0H23ZKv+tV61a+x8pzfqlL27aJRCLE4zFisRgAxWKR3PAQhwYHOXz4ELncsK7QMXSI4TcO4nhFYrZFxFI4eFjKM1U0tEuGv0+WTmMJWBVrDK7PP6YUeJ4RLBSg9HnPg2LRo1hUeJ5NNJIkmaylJpUhGk1i25GwhlMF//nqkqWCIAiCIAiCIAhvFiJAvAMICwwjDWzd50htPFTr7xvf1Twm/N+VCavwZQj/esuysDHeCkp/4WwPMAIErkcsEsXGws0XGT50mMOHDzOcz4FtYUcj2NEInmXherqkpOeBUjbYDtgRwEEpbTBXa0EBopq44H8O9jf6AJ6nK2FoLwOdJyEWi5FIJIhEI9iO/hMqFgsU8nnj5ZEnN3SY4cGDRJRHwrGJWgoHha20CGGbPz5lQlKChr9l2VgmsWX4OEaocD0PLUqY+1EWnqcoFFzcogLlkIjXUJPKkEpmsO243qcq/5Qpix3+PgiCIAiCIAiCILxZiAAhTBirotTjSHwBoxxeoI9blqXDBKqUArXMda7rlnIaYEIDfI8A2xnp4aBU2Ig+PvghJa6rK21Ytk48GYlESkkdg2uybR0WEo3FiESc0hg6z0URANt2cGwT5mJKjxaKBfKFPPl8uRWKBQrFQqlKh+fqfY04DtGIzkkR3G/HcYjH46USo9FodMznJQiCIAiCIAiC8FYgAoRw1ASFgJJ9GxYfPF1pI2ig625lD4mg4R7Ml+Cft03eBv9t/whj+vjrDzqHhSnfWSwWS3kXLEvnsrBtG7tK/gxM6EihUCCXG2ZoeIih4WE81zNJI03uBf8mVHkfXJPI0q/MUXR1Po1gAlHPlBH1G0AkEtFlSJMp4vE4TsRU6BAEQRAEQRAEQXgbEQFCOGa0cWtEhJAHhKe8koAwIqmlERuCAoT/ht/TiR6wLAvHsU2r9DTQ1wSM9+OIawx93xOhWNRigPJLmZp7jEajOgmmE9HlQYtF8vk8Q0NDHDp0mEODhzh06BDFYhHLeINgBAjbsXWzbF26MxRCU/Yo0fdbKBbJ5XPk83lyuVxJgIjFYiSTSWpqaognEhViiCAIgiAIgiAIwtuFCBDCMTGaYRs0nB3HIeLoUAXL0uU4C4UCReNNoMMuTPUMz6UYCDfQxnY5EWRwunGmtXjTUErppJO5HLnhHLnhYQr5PK7rgvE8iMfjpFIpnSMi4mA7Dpalk3L6TSmPeCJBXSbDpDpdTrQ2naEmVUMykSKRSBJPJEjEdQhFLBYnGoniOJFSCIvOBwFg4TgR4vEEyWSKdE0ttelaamtrSSRTRCIRs/ay14kgCIIgCIIgCMLbgQgQwjFToUFUeWNvBcpfWpaFQns6FE1ogW+Y+zkSfHHCFyb8OaxSksQy+kh1EeTNxJ/Dc7UnRD6fJ28EFBUo8RmNRolFY0SjUZO7QgsnyggsuvymIhaLUZNOk66tJZ2upTadpjadobZWt0w6Q6Y2Q6a2jkw6Q7qmlppkDcmkFimSyRTJhC4Lmk7XksnUUVc3iUymjnQ6QzJZQywWw7YdXSVDu4oIgiAIgiAIgiC8bYgAIbwJVFblqAgbMEa3//bdtk14QaAfgGfEh1wuRy5g3OtcC9oLAsuIHUFRokpFkOOBbet5lAkTKZpkkq7nlUQSH8vkdnBKSTMDf2ZKe0NEIhESCe21kEqmqEmnmTx5CqdNOU230+uprz+DqVOnMXXqNOrrz+C00+o5bcrpTJl8OqdNPo0pk0/jtNPqOWPqNKZOPYP606cyefIU0ulaYvEEluWUJBpd4SO4SkEQBEEQBEEQhLcWESCEN5URNq6CQqGcINGyrFI1C79ZWkkohTj4XhH45nMp/MIIF8HxRzpFHBf8+YOiCn6CzICXQ6FQIDeco1Ao6GtCQolC36NSOveF5QsWll+YUzfb0pU/HCdKNBojGo0Ri8WJxeLE4wni8STJZA01qTQ1NWlSyRri8STRSAzbjmBh64SWnoVeakgIEQRBEARBEARBeIsRi0R4UwlrAb7BXXSLOhzDGO22bWMHPweTSwbCBXSFiZFVNHxGHjm+6BAKE1rir99xsAO5LYZzwxSKxZLo4Pdz7HI/3/NDoUNUSuKGV26+Z4ll2ThOBMeJEIlEiUS0KBGLxojG4sRiCaLROI4TMSKD9nZQHihPl0G1EAFCEARBEARBEIS3F7FIhAnjeeWkhr4hHaRCKFDgedqjIdhXqXLtCsdxiEQiOn9CLEYkGsWJODgRh4jj4EQi2I4xoMMihB+WcZzR4oCHWyznrSCQ28J2HABc16VQKKA8z1T+iFTcWzQaw7YtsGywtbjgixj+vvn7Gt5bX6jxq21gUco/oZRCmTwanuuiQhUzRj4lQRAEQRAEQRCEtxYRIISjotI4Hp95GzSwS4ay8SSImgoSyUSSWDRWrpwRMdUz7KD48BYoDiE8pfDccqLMYJUOy7K0N0fA48EzZTuLbmVIiZ+A0zPNdYuBRJtBbxDtyTCSYEWQkFeDKQdqBcJafG8IQRAEQRAEQRCEtxsRIIQJEfR8KL1dDxq4RiQoe0GokmHtH/MrXgQNcycSIR6Lk0gkiMaixnvAwTGhC2XvB1/ECM57lBZ2Nft+FJSnS4TqMqG6UkdQgNChIuX79Ew+iEKhQCGQ10J5Ctf1cItFioUixWJZiNECho1t7rfCk8Qkkgwe9+fD7HfJG8OIEP5aRIAQBEEQBEEQBOFEQAQIYUIoBa6rdHJDVX5L73kKpWwsyokTLdvGdT3i8TjRSLTkPaA8RSQSIRKNgmUxPDyM67olQcC2FbbtUvQKOkeC5aBcG+VaYObUL/g9wK+SMTEsy8JC510ICyq+F4Nv6CuTHLNQKOB5HrlcjsOHD5dECM8vI2q8HgqFAkp5OLEoTiyC5dgUXQ/LdojGEqRqMliRGK6ysO0oWBGUss1dKCPa6J/ldSlzz+XjfgJONcY/lm1hR3QFkXLQiyAIgiAIgiAIwluPCBDChCj7IJjPVvCobrbxeMAIE46t38oHwxJKngPGW8CyrFI/7ehgsigCtuWX7vQFj7IwcCwChE9QfBjtvGf6aI8CHUahVDmBpO9t4F9n2TZOVOeuUCjtBeF5WLZNLJ7AiUSwbF3pwrIdnRPiCFQ4RJQOhg+EMBU4BEEQBEEQBEEQ3m6ObPUIQgDLAsexcRwLozGY49owx8gBnqdQnn5b7xvJrutSKOqwBF2KUocdREwSSifiCxCWvixQvtKytAThUxINJq49HBW+yOA3P9TBNmsPtmg0qhNnmg3yE1MWC0U818O2bSImOaVtRAi/ryAIgiAIgiAIwsmKWD3CxBhH1YmSV4Cjy0dWhDp45TCHaCRCNBYrGe6OXwkiICr4hr9RI0rHtfbwFqkPgOeLCCYBZbFYLFX28IUX39NAKYVj26VkmlYpKWUB13NLVTN0zofQRIIgCIIgCIIgCCcpIkAIEyOQ/DFs/pfDGLRo4L/lV+gSlsrkLbAsq1RKMma8BXTCSV3KsjSKpcM5tPdDwFI3ORHM/70l+Ikz/eoXfhULvwxmGMuytSeEESCUUrhmD7Tngw2WfysjQ0AEQRAEQRAEQRBONkSAECaEH17huhC2vX0PAMuCSMQhFosRj8VQSgsQQeEhHo8Ti8eJRqOlsAbfUAdT2tK2sWw/r0JZ+TA2+1uKvmdTucOvaKHKPhj+vfvYtr5X37PDD7GwLItIJIJlaVHD8zw8ZcQZQRAEQRAEQRCEkxgRIISJESx/aX6Gje+SB4QJrSgUCuTzeV3pIlA+0g+tUJ6nU0zaNrZjY5uEjFYpqaMWJjylRQ+l/IoQlXkhjieWXc4BUSq5aUqF+jksfLHBcbQnhy9SlMQUy8K2LKLRCJZlozzfM4QjJ5MUBEEQBEEQBEF4hyMChDAxgqkYQkZzOB+CNsa1AJHL50rVL/zzvnDheR6YnBERJxLwpPATUJqxPaULYwSFj7fIcLdDSSht49XgezlEjPBQCrkwySc94ybiCxCWbRONRHFsXXYzuB+CIAiCIAiCIAgnMyJACBPCssBxLBwH7Co2sxYhyiEFlm1RLBbJ5/Ol/Al+SIZS2p1CmWoYJe8BE56gU0ZUmcTS/8/3jng7CIZM+EKCf1+e5+EWi+QL5Xv2j1tA1CSntE14ifbkeHvuQxAEQRAEQRAE4a1CBAhhwozmAVGJ9hjwwxF8/GPRaJRYLEYsHi+Vo7TQ1SL8XAtl7wDbNO0N4f98O/CFBuV5FS247rDQUjpW1MeiUZMXwrLftvsQBEEQBEEQBEF4qxEBQjh6xsib6Hs0BPMiRCIRopEo8VicZCJJTaqGZDJZEiEAisUihUKRYkX4gg7PsB0L29a/l0MWxljEm0gp7YXv5eALEUrhBT0f/ESVSifdxISYFItFCsUCnqeIRMrVMY6g4giCIAiCIAiCIJw0iAAhTAilKFXAqFa4QXsn6DwJjuMQjWhPh3g8TjwWJ5FMkEqlSKfTZDIZamtrSSaTOI6D53kMDw9TKOR1iUulBQid68EY6ybtg68/+CLA8caxy4kmSwknI5FSIkrHlNb0m2Pre7dtG6UCFTQ8r0JAUcrD81xcz32LpBRBEARBEARBEIS3BxEghIkzyov7Uj4Dy8KyHBw7QjQWI5VKUZOqIZVKETP5DyKRCDXpGjKZDMlkEizI5/MMDw+X8kUUTciCZVk6AaU6PhUjgusmnN/BiAdYlNZtm5KaQfHDcXTZ0UQ8YUQIh0gkqr0dbC2u2JZNJKqP2ZaDUlapifogCIIgCIIgCMLJjggQwoTQSSh1swPpHaxSqUnbfK1sHCdGPJYkU1tHXV0dtbW1OI6D67rk83lSyRR1dXUkEgk8z2NoeIih4SEjQBS0J4SnQxncUg6FyqiLoHBwtJTXrst9BgUI3yvDc72SV4dSikKhQCGfp1Ao4LoukUiEVFJ7dkQiupKHY0dIxJNEo3Fc1yOeSFJTkyYWi2M7ESzLwbIcbPPz2O5CEISqvN7F2s+00HxmI42NjbT9Y1+4h3BC0MWqRv2MGm/oCp980+i6wczRuIrjN8ubwCsbWWj2Y+GGY/3ODrBnSwftt21mz0D4nCAcBT/r4MILL6TjZ+ETgiAIR0YECOG4UygUyOVy5HK5iuSSAMrT+RN07gfdT4cpOFi2je1oo79UMaJiZN58d4hR8HM8WJZFxIkQjUaNN4NJKGnbWLaFwoRbFHXiyXy+QD6fJ5fLY1u2TrwZi+HYDn6iTst++5JqCsK4eXqVMdwaaWxsZs0vwx003evmBfotZOMr4R5vIe4e1ixYyvrnehhw9aFcLtzpVCFH3+MdLF7QTNY8n+yHW1h8Wyd9p+yeVKOPjQvN93fhRo7V9D9elIWUI7SFG+l7ZStf/epGtt6/hravn9Cyy0lDvr+bJ9Z/kSV3Phc+VcGBvdtYu2opl33sQi685iH2hTsE2PfdpVx44VIeGvGl7OG+Ky7kwlXbORA6k++8mQsvvIy794ZOCIIgvI2IACEcV5RS5PI5hoaGGBoaolAolMIqPM+j6FZWjPDPO47Oo6CNe23gaxHiLdMcKvA8ncMBwHbsUhWPaECEKN1TsViqhJHL5RgyYSW2bROL6mss2wJUqbqHILyzGODR7TvDB4FunnxsxH8dv33seZRH+/XH7KrH6H6pl21/0xDudUyUDMET2FiFAbpuOI95121k50sD+HpD7vUedt6/gnnnraKr9Ga87Ilw7G/ehROC6f+Li8+Mg1PPovl/Hj4rvGnkOfBvT3D3qiVcdsUXWfvDbvbnw318Btn7rSVcfuN9PD04jdar22m/5lymhbsFmPE/Z5FmHy90hwbt/SnP9QPP/yv/OlR5qvvFbiBL0/srjwuCILydiAAhTBg/TGFczVPk83mGhoc4dPgQhUIBz1S38BMzWoGKGX5IhW3EBy1C2NiOo8M73iZbvVAsks/rkBBMOdFoJEI0UOUD4ymRz+cpFLWQcnjoMIcPH8ZzXaLRKPFEHMskptQeFTqsRTQI4Z3GwGOd7DReBSV+8yTb306PhzAHD6Lt6iyXLswSdyAeD3c6BXj6Fpb+QCsx9Zd00LlrD3v27KLz6y3UA/RvZ9Wd1QQl4URl7ld3sWuX37ax8kxz4syVbCsd38Wuf1xCg5Nl5RPd9L60i44LMqGRhDeNvm3c+IW1PNk/hYtXtdM6htY52NnBjY8NMv9vH+ZHG27jqr+ez/zZM4iFOwZ5fxPZkqhQZt/O59ifTpNmN3t/XXGG7t8MQmMzzcngcUEQhLcXESCE44oyCRoty6qoBKFMckflKW3MG08CwpUtggkiQ0a6IpQQ4jjiBUtsmvXbjqNFhXiceDxeCq2wLAvbVAIZGhoiNzxMNBolmUyQiMfF40F4h5MhkwEGHqXzF5Vnuju30wdkMlWMHHeAPVtW0fbhrHEPz9LctobOV8r+/2VvgvXsfGpNuW9zCyu+12N6jeIiXxEzv1v3+ex2c7KbjvmNFSEhA7/czKq2YDhCG2se7yt5B2hy9D0eWMeZzbR8Zi1dr5fnW/oD07W7g3nGa6B6noGROQ76NizUvy9Yz55dHbRkA/fkDrBnwwpa/LmzzbR9NRguUR5v1eM9bP3sHP356dKEJfr+3d+7LMtuWERTfYZMpp6mtltZPUefGXh2Jzs2LKSxcSmlXbtj3oT2bHzPz7C/kzWfaDb3No8VW14I7b3mSHOWn3sL63+5k44F2fKa3X46v7rQ5P/IMm/5Zl6oNsnRcsRnNL7vPcDAno2smO/v10I6nu5n1JfnQDxTT329304no//nEyIZTi8dr6d+cryqV0vpWd3QSX/gWWXnr2DjngH9fPx9P7OZhV/tpD8kOA78ciMrSiE91e/rlOL0c2m//0f86MFvct0lTZwWyJNVSQ+PbN7NlE/cRvtHpoRPjk6ymeZGGNy7JxCqcYC9v9oH2Yu5+L2w+1eBWIuhF3jhZZjyoVkBz4o8+59Zy/K2j3HhhRdyYesSbn6wm8HyVZoDe3no5iV87OILufDCj3HZyrU89/twpxAvP8Tyiy/kstuf44D/XXEPsPfBm1nSemFpvi+uf479YfFaEIRTChEghAkzwsthjGYBsViMSCRScdzPqaBQ5bKWplqEbtrQL5e9qGK0vzXagya0dqUUjuMQjcVIJHRp0WQiWbpXJ6I9OoaHhsgX8iRTKVKpGuLxRIW3g1Lqrb0PQThm5rHo8gZggM3bgvHke9i6pQ/IcOnCeYHj6BCAL19E21e3s+f1HPHJGeLkGNizmRUXto3ME/HiWhYv38ye140xM9BD583LWFv54m9M4vUNNEwuuztkpjXQMH0qcQcGnl7FRZevYfueAXLxDJk45F7fw+br5tF2fznsoGdDG/OuC6zDHaDnufUsXbCKrqE4U6c3kPGncDLUT29gaqp0+fh5aS1tf7ORnpLtZvbrjk56/LlzA+zZsoJ5l2+kJ/Qf79u/1EL70ybWpAoNM5vMp2423rk1YCDXs2hLL729vfQ+u5r3pabSMD1Dadcy9RPeMxjH8xvoYtUnVrD5NybuI9dH51fX0lkawHSbyJz0sPaKxWx8yb+5Abq+vJAVW7pN/o8cfU+tYe3jlVcdPeN5RuP83vdu5MrLO8rG+0A3G2/bSEiyOT5sX8GcwLPKvdJJx+UXMecTK9i8x4TruAN0b1nBJ79V/gPUz6aDzlJIT+C+ekvdTi2SM2hqGNOHQfPS0zz5+zSzZuxn7crL+NiFF3LhxR9j6d89Qc9YqhPTmPWhKdDXwwt+qMXQv/Kvz0P2Lz7JBbOnMLjrX8vfmxd76AZmZf2/f9j34BdZcvtP4fyraP9KO6s/MY3u736RJd8KCBeDz9Hx2Rt54NUmrvxCO+1fuYrZg09w62e+yPbR/jUz+BwdNzxAz3uv4ptfPpcpRnzZu34pN363m2mfWF2ab98Pb2XJDSPzVQiCcOogAoRwXLEsq5T3AOO1UBIflMIyiRgBim6R4eFhcrkc+XyhlEfBU7qvj1JGl3gLcRwtkvjeC7atE0qmUrryRaY2QzqdpqamhnRNmmQiiW3b5PN5UHDaaaeRTqeJxWKAZXI/2HhewNtDEN4R9FD/P1ppANj+KF2+MfzLR3l0AMhcyqXnVV7Bq1u5y4QANN/cRfcv99D9yw7mAbjdPPhISFlw62n5eifdL3Wz6/4lei76eOZnYaNzNN7Fkvu76Pp6i/k9y8qHuuh6dhNLpvex9e7t9AN8uJ2u3+xhz2/20GHW3P3dR+gG2L+Zm+7Q66q/7B52dffS/dhqso4OWVjzxIfY9GwX6y4xU7x/JY8828WmK8fwux6L+rksumkda65swn78JhMykaHlNrMPW1bquX/TwZpHQlaAG6fpopWsubOd899VeQqAC1bTfrb+2P94O/OyWeZ9pp2Nz/aQC4gZDVduouvZdZR2bcUjE9sznyM8v+5Na4whU0/r3bt0v7tbdThIiQnOCUA9cz/VzrqvLaHp1Y2s8cNO/Of3s3torZzkqMmN5xmN63ufo/PvO+h2ASfL6se66e3ew2M3ZMNTHieyrNyin0FpTref/mmreew3vXTv2sSS9+jDfTt+rr1zDndy03L9bDIXddD5m166dz3IyrP1fXV8dat+bkJV8v+xjwMMsuNbHeyp/ySf/0o7qxdlOfCTtSz/8tiGeVN2FrCbvf+fOfDrvexmBud8aApNf3Eu6f7d7Db/mtz3/F4GyXLWB0zfvoe49bs9zFj8Te5d2cb88+ez4Opv8I1F0xh87AG2HwDI89y37mKHey63rL+FKy6Zz/zz22hfv5rZdPPAP1XJZjn4HB3/+1Z2MJ9b7ryCGSXPj9088fggfOR6vnH1gtJ8t31iCjz/BDv+q3IYQRBOHUSAEI47rleuCuGLCn7iSdu2S4a9MmEO5X5FLVR43lvs7jASpfTaCoUCblGvy89b4YePRCIRbMfcj21RdIvkTPLJ0047jXRNDdFopHQ/lhUKNxGEdwpnXUzrewB3O1s79fvPndsfZQBouHIR2cMhN+zpy3isV79p33a1MdAnz2WusXf69r9W0R3msqitibgTp/68eTSbo90vvhmvVhtY9kPz1v/hZTQ42nthrr+YV/t4Dejv6mQPAHNZ/eUW6uMQz67k+isbaJjeAIcPVg57TMyj44kH6bimlSWfmsdvdxhfgDOXsfpTZh/mrOSaC/Thnb98oeLqhmu20HnvapZctozWqnZrA8u+v4t7rsyScdDeAM9tpePqFrJnt9Dx7JFqM45vz8qM9fz6+PmzxkLKLmP1JfW63yWrWVax9onOCfNuf4oHb1tG65WLaHzxGROek2XZdeb5TWth9dKqGzRhdo7nGY3re7+TLt/1o/V6VmbjEM+QXX49rebwceX9l/LJOfoZZC+5FH93WlesJJuCeP085vl5K7tfoBdg55N0ugBNOqQnBfH6uaxcaqSrXTup/IYKQfb37wdgxuJNbF5zBQuMYf7NxTPg+QfYUsXGL/GBs8gCPS/qIIy9v9oN9bOZ3eDniPCTVOZ54d/2QcMsZpkoj33PPs0+sly6cEbFkE1/MZs03bzwb4C7m5/+ZJD0+ZdybjrQKX0O53wABn/THarUsY9tNxjx4R/aK69hCtNOB/btYW9AVcmufJgf//he2t4d7CsIwqmECBDChPFzMoynKRTDw8McHjpMLpejUChQKGrvBownQUmAQLs3eK6L6xZx3bKnxNusP1AoaO+M4eFhcvk8xWIRy6zfwsJT5eoXSimKxSJDQ0Pk83kcx+G0KaeRqqnBsZ2S+KI9OXQmC0F4Z5Hlk5/WpkrnE13k3J10PjYANNDakuW1/VU8FQZ62Hrb4nK8fOM8Oka+wn6LGKBnW2VJynnG28Gn/9VXzad6pgbems+7pYuuZ7vounlu+eAxk2FqKW1GHz0vmo8vraXFrK+xMcuqp8zxF3sqKm7UnnZ64LdRcOpp+dpj7PnNLh67u53Ws82EuR42Xn0R7c8eKXb/yHs2Pnrp9S97f5PxjhiNic2ZmVzOPdJbmqSJJvMG/81jAs/oSN/7V3t43nihZN/fGDjxNjNq/oJgTpEe1l7k33sj2S/5SkoPPeGwKiHEDC6YXykEzLhwAU0Msvf5MYpxTpnFrAbYt3cvB+jhX3cNkp5zDk0AyXM454Ow+1e7gW56uiE9qxl/ln379gHd3H25ycfgtxu3l3NA/Nc+elwYfOzGyj4XXs7dz5dWUaJncwf39UL6f/5VSego08Qnb7qCpv/azo2XX8jHPvNFbr3/Cbr7x4wzEQThFEAECGHChEWGsRoKcrkcuVyuwvuhaLwI/Lf/lqmEEU8ksB0HzysnmLROgDIRtm0RiURKYReZ2gxTpkyhLlNHKpUiGonqUqGWTTQWpVgs8sc//pFCIU8kGqWmpoZINAp2ueymZRkBw7Le8pASQTh68uSK0LBwkX6z3fkonU936vCL97RysXH1r8Ddw5qLWmi/fyc9hxto+fwa7rl7Da3Twx3fGvbcehEtX97IzpdyNFy0kjV338OahWObwm8L8QwN07XHRUWrn1gpj9zr/fT39yJBxfYAAM6oSURBVNP/eg7i9WQvWca6H+6h+wkTUkI/W//h0THd5t+8PasjXhM+Vp1jmbMuViUR6vFgrGc0nu99PENd4Nd3FnEy4fueXs61IkyQd09jBujQzVGZQfOsNPzbC3S/vJvd/Wn+6i9nmXNTmPWhGfCLPex9eQ97ByH7/rDHT5a2r7TTXqVd6ldSAaZ85NoR59u/MrJU6L4/zOCWv22Fn9xKR+eIVJakP3gV9/7gB9x7x7W0NUHPD9fyxSsuY+l39o6ZZFUQhJMbESCE406paoStK0Ng8j24rovruXiuyQdhWUSj0VJJS/DzT5oKGG+jCOHnavDXmEwmSadrtfgQjWqvB1d7QPiiy4E//pFCoUg0EiGRSOA45TKjlkmsadv+Z0F4p9BDz8vAtIu59MOA28ktXzbhFwsvLrlwV/DcVjb3AzSw8uFO7lm1hJZL5nHW0dqIx2TcdLF1iza1G5Zv06ELl7Qw76zail71030rsZ/XApZ59/faab+5nfbvjf4mvpzF8WiYylR/6vpFrNthPC5M63yqi65SXoXx0Mfmv5nDnDlzmHNFZWLD+JnL+Lyf8KG3F9/nYyTj27PxcTrTfY+Evr4xRI9jm/P0Bn8T++jTHu9vIuN8RuP53tdP1eElwKt9oz+BE4mp0/xv31QW/X3lvXc91WnyhoQuEkrM+LMmYB+vhB0dDhxgv0ncPRbZ92fB7eGFH7/APmc2s339AZgxezZTBp/jpz/axz6aaD67PNa0eu2icNoH5zP//JEtWw+cPplpQD7dNOL8/PNHlgo99wvtnPuR67hlYZrd625kW9A1Kz/IgQMHGCRN04fauOpvv8nmHzxM+0di7Pv+fWyXHBCCcMoiAoRwfLEoeQ4kEglisRi2beN5Xslgzxd0SIMylSV8rwDLlLOs7gFhcie8RZ4DhUKe4eHh0jpLuR5MedHh4WEOHzrMocOHGBoe4vChQ/zpT3/Cc4ulXBG2bZW8HjC35B8ThHce9Vx8mQ5DGBgYALIs/v9VlR+gOGw+HKTvdzrfQK57O4/6buwTooGms8zHF7voeiUHuX52PvJolaSE1Rk2Lu8HX+1jAOBwN9t/VHl1/bwWk7tgJ5s37aQ/B7nerXz761vZ+r2tPPliKGTh1V66BwbIHYbGRn8f9tD13AC4OXq2bWVn5RWjEKdloVEFXt3I8i9tpeewrrDQs20F5523iq4jpWyooIH/Nd8YjC+tZdWdO+l7PQe5Afp2refbvtd8YyNhm/HVl7sZGMiRc8e3Z+Ojgf91nlnPL9dz++P95Nwc/Y+vZWNouGOZs2HO+Uak2cP6Ozv189vfydpN47segOIAf+g33iOBNpAb5zMa1/d+LvPMUAPfu5313frZdN97V6kc6olG/IJLaXEA+ti4fAVbe3O6CsZLW1lx3nmsenpCX9BTjz8/h9kO7NhWmXBy3+OP0s00zp1bGZoRJnZ2M03sY/sPd8OHZjE7KMieeQ7npg+w41/2Qv0sZgXyLDTNPZc03Wx5MOR94O7juWd69LHkOZw7CwY7H2BbqOzm4K92sDuUITNm5p51TTvz0z3cd9tD7PMT23Y/wNLLL+fmxwIXOVM4d3YWyJOXUpyCcMoiAoQwYY6UNNFPrKiUQhnPAdd1S6EYruuWPCGAkseDZ5JQeq6N50YpFmyUsrXnAArPK+K6hVJpTsuyUdgodXQWfClMJLBmH//3YlHnfrCAeCxKIh4jmYiTiMewLUB5eG6RYiEHyiNi2xw+NMihQ4M61wMW4KA8B6UioKL6d2WVw0wsF5D/JRbeedS3LipVTODDi7h0tFj7uRcbg2WA7cubdbz4wrU68z9A8Uj5ByqZO7+VDIC7kzXzszRm57D43vEalnO52FSuGHhsBc2NjTSevZC1vyn3yLnAtCXccZMWEro3LGZOtpHsRe10DgD1raxbpeWJs5pNisWBraxobqZtSx8NF/jJ/PrY/JlmGs/M0vLlzjHe9lcSv+QONl2mE0/0P95Oy9mNNGab9Rj9O+ncM7H9yn5hI+0f1m4Z3fcuZt6HszRmm5l35XpTfaGJlTctMlUozuLPP6yvG/jeCpqb29j86jj3bJxkl64x1Sj62X7dHLJnZplznal4UeIY58wuY42/hz9YoZ/fX64YvYxgNV5aT9sc4z0SaLc8N85nNK7vfZyWL7XrUBi3m7UL9bNZeOd4v89vA6kW7rjXVC3p76T9oiyNjVmaF7TT2d/Pzh2/NqU5haok53P9F2YRe/5ult/0AE88s4Mn7r+RL353H+nzr+WTR0oF8u5ZzKqHfB6yf3FOhUcCzKL5L2BwcBA+eJbODeHzwau4/vw0g4/fyNI1D/HEMzvY8fhD3Hr1Um5dv8WIC1NYsPIqmujmvpXLufv7O9jxzA62rV/Okps6eOAxI1SESc7m+hvmk+59gFsfNK4dsy7lykbo3rCcG+9/gh3P7GDH99ey/Fu74YxzdeJMQRBOSUSAEN5UfCPeN+C9QPUIv8RmUICwLJ1boeQVUSzieRaoKG5RG++O45iKEXoshQ6FwNLiw9EKEJj5w+IDgfX73g2giEUjxGNR4rEosWikJEAoTyfNtCxFNOKQGxpieGjIjGkBNsqzQTnad1w5KE/PawqTGhFibGFHEE44Ui1caozE5taLQ2UUA6RauOcn97DET3wYz9B89SY6LjPn97wwbu8FgPgFd/DI11po8od7z1xWbukYZ9WAOC1/H6wIESfTvIxNX/ev3sMLZjFN12yj6+4lNE82MRVOhqaL2tn2xDrmmbnrP3UHHRc1lcaqSwHvWcaW+5eVr8tkab3zHlaP4iAykgzz7nyKbV9rpXma768fJ9PcypptT9Fx3gRjPJwmlj20i8e+voy5Z2bKESKZepovWsk9P97O6lLujnqW3N5BS6O/uXXEnfHv2bjIzGPdD4PfhwZabtpGx8Jgp2OdM8O8rz9WcX3DRe1su21835IjM45nNN7vfeMytjzcTst7yt+XJfduYnUgJv9EI3PBOp7atobW5nqzvxCf3Ezr17bx1G3zji0K6RRgyiXfYNPfLmBKzzbW3t7B2h/uZ8anb2PTl8+lopBEVZo464OAKb8ZZvaHZgOQzYb/hZPm3K9s5pufO5f081tYe3sHHesfYX/TtXzjH27hXH+o917Bvd+9hdaGQZ7c0EHH7R08sDvG/K9s5pufaQoJHmVic66n/aNp9j34Rdb+Kg/MoG39Zm5ZOI39P1xLx+0ddNz/U2JzruWb37mqUhwRBOGUwlJhy+stwvXelmmFNwnfcyBMUIAAGB4e4t9e+CUH//RHAJLJJPF4vBS+AOC6LpZlkcvleO211+h/7QCvHxigUChw5vvfz//4H/+T/9Ywg1g8gVIK24kAxoC3dC4FU0NjQvjze54HpqJF8M/BdV0OHz7MH/7wB3736m/JDR3kjDPOKHlO1KRqtHCiPAqFQun6l19+mdf6+3njjUPUZibxZ+99Hx/+8znY0RiW7aAUeEqBpXAcUHhaVFGOESyEkxHHlmcrCIIgCIIgnNqIB4RwfDFhDIVCQYdXmDAL/7MK5H0AUIGElX7uhEjEKRn9lil7qZTSwoE6epO9mvYWFlZ8Twh/3X4lD8+rLBEaDOXQH8qfg6EePqPoN4IgCIIgCIIgCCctIkAIxxVlPAmCRrvruuTz5cSTlmVVVMjwiUQixKJRopGYMeLBtkxFDL+6xlEqEGHxISgQhMUCTH9//Z7n4bk6XKTo6nKi6GgKlKdKVS18z4qSeIIuS+oPX20eQRAEQRAEQRCEkxURIITjTjDUwfciKBQK5HI5hoeHS2KE53k4jlPqF4vFSCaTJBKJsoeE72BQxXvhzSQoDgQ9MvzfXc+lUCxQLBiPCOXherqsqNEZcEsChD+Q+WmNFB+kFKcgCIIgCIIgCCc7IkAIxxXLAsfWIRRBD4hisUgul2NoaIhDhw5x6NAhXebSdUtGfSKZJJWqKQkQSulElEeR7mEEfmjFkSj3GVkxw3Vdim4R1yt7d1SEaLg61Xm1EAy/DKcgCIIgCIIgCMKpgggQwnHGIhKNVHgP+MZ7Pp/n8OHDHDx4kIMHD/LGG2/oShn5HJ5S1NTUUJOuIZH0BQiFp1SpCoYOa3hrCYoWruuW7keZXBf5fF7nuzAeHWBUGF9tCGke4xFBBEEQBEEQBEEQTgZEgBCOK7ZlkUgkSCQSVfMsFItFhoaGeGNggIN/+hMDAwMUi0XisRh1dXWkUjVYjlPO82ByLViWZcpzHp0EUdUrIYAvDJS9HjzcUAJKvymTH6JQKDBkSnDm83lc1wOT48Kv1iEIgiAIgiAIgnCqIgKEcFyxbF2uMplMVpTeDAoAfjjG4aEhhoaGAEilUkyePJlkTQrLtk0IhL5OGTcC27aPSxxD2CvBsixUoHqH3wqFAoVCoRR2USgUyjktCgU8ZTwgTLyFopzDomLV4gQhCIIgCIIgCMIpgAgQwnHFtmzStWlqa2uJx+MlrwXbtolEIkSjUWKxmD6OLsOZSCSYNGkyp02ZQiqZKo1lWTa24+eCODarPez94I8XHrfkAWGSaPoJNPP5vPZ2GB4ml8uVjgUTaqpgEsrSfJUKxDHehiAIgiAIgiAIwjsGESCE44pl29TUpKmpSROL6XKafs4Ex3GIx+OkUikSptpFPB4nXZMmU5ehtjZDLBoFT4cyYHI/QCCBpDp6I76aCBFsPrZtl8IofBEil8sxPDTE0OHDFZU8lOeV+pbHqO6loafX9yUIgiAIgiAIgnCyIwKEcFyxbYt4MkmypoZ4PF4SIAAikQjxeJxkMkEyqfNExONxUjU1pGtrSSRTRJwIylMozzOeD+WxS0LBUSgQYfHBJyg++H1KySSN8FEWIYYZHtatUMjrahgm54O+1uR+sHQOCUzwSEnk0LOgsI7mFgRBEARBEARBEN5RiAAhHBVhb4Gw14BvhFuWhaUsopEYNTW1eK4iny+gFDiOo/NC2BY6zYOH6+VxohFiiTQuNq7lgBPFVRauq/A8hWVpjwTP8/CUTgI5UcJCQynUwhy3TJiIUorDQ4fJF4ZxVRHPcnFiNrFEBGxFwcuTKwzh4aJwcVWBoiqAZRGNpbCsKJ4HRTePsotgF8kXckbUsFC2jYeNq2zUKJ4SgiAIgiAIgiAIJwMiQAjHGQssm4gTJZlIEYlEsSz9tfM8hevqnAqe52HZWpSIJ5IkUzU4kSiW7YBl46lyoEJQLKhIr3CUjCVgeMrTpTWLBYpukWKxQKFgfvdclPKwbO3l4Cmv1KfouhSLnl638nDdIgoPhUIp8xO0CKHEA0IQBEEQBEEQhJMfESCEtwAbx9HhFolEspQLolgsMDycY3goR7HoAjaxeIJUTQ016Rqi0aiudHEcCHs9+GEWQc8NpRSeq6tfaEGhWEo+eejQIQqFApZtl+7Hc12KpiqG3891XZRSpZ8mPUQJLUSI+iAIgiAIgiAIwsnP8bHuBKGEtrZtJ0o8nqKmJk0qlSYeTwAWhYI21osFF5RFxImSTumqGdFotCQSVIR0BCz48O8TRSmlc0yEQi9K5/wwDWzjuWHhup4RTCwcJ4JtR/A8RbHoUSi6FIsurqsFjXg8TszkvtADmWuMF4jWHo7tHgRBEARBEARBEN4JiAAhvAXYOE6UeCJFJjOJyZNPY/Lk08hkJpHJ1FFbW8ekSVM47bR6pk49g8lTplCTqimV7CQkQASpdmyi6LCIysST+CEelkU0EiUajRKJVLZYLI7jRLAsLUq4nofyFK6rK2Hoih411KRSOJFIKXdF+b7E+0EQBEEQBEEQhFMHS40VAH8ccb23ZVrhbcAypSaV5zI8NIRbLGDZUCjkyeWGGRo6TCwWNQkpIVkzmWSyrlT+0g9hsG275J3geTo0IhLRAsBEv8a+0OCPDTr/RPC867oMDg7yu9/9jv7X/oOhw6+TTCZLVTA8U3LT7zs0NMTg4CAH/vhHikWLVGoy/3PWLGbObKT+jDPMnBagE04qwPU8sGwsLHNUOFlxbHm6giAIgiAIwqmNCBDCcSfgU0CxkC8lbvQ8F7dYJJ/PEYk6xjNA4USSOE5CXxGqVvFmCRC+d4NlqmkEBYkguVyO119/nf/6z9/yxkA/8Xi8JFS4Ji+E67pYlkWxWGRoaIj+115DKYdM3VTO/uDZTG9oIJ3JmJ3QTWHhGQHCsmxsI0AIJy8iQAiCIAiCIAinOhKCIbwFlN/8204UJxLDiUSJxRPEkylq0rUkU2kSyRTxRA2RSBQC4kMwQWSYsGAwXoLChu9pERQhfIEiGo1SW1tLKlVDNBrHsmyi0TipVJpUsoZYLEEkEiOZTFFTU0ttbYZUKk26NsOUKVOora0lHo+PmBMU+FU8qFBpBEEQBEEQBEEQTkpEgBDeOizwlG669KQuCWHZjknwaKOwzTktPATDHHyCHhHB38eLLwRUuy4oeiilcByHZDJJKpkiHk+gPAvbcog6MaLROLFYnHgsQSqZJplIEjHHU6ka6urqiMfjAa8NF9fT4R6lmauIKoIgCIIgCIIgCCcjIkAIbx0KHX6gbJQCzwPl+SEJWnhAWShVKTJU804Inpso4TGrnQviOA6pZIqaVA22EUt0PgqHaCRGPJ7AcSLk80XeeOMN8vkCUSdKXV0dsVgMAGUEDaqIHuL9IAiCIAiCIAjCqYAIEMJbil8JQns5aHtcKRuUESJU2TvAMjkf/BAJH1+E8I+FBYPxMNo11cQJpRTxRIJUsqbkzeCXzoxGo6UQi8OHD/PHPx5gaGgI23Goy9QRjepwEs/zjP5i1oz2/tATmCEFQRAEQRAEQRBOYkSAEI47ngIPrTFYNtiOZZqN7TjYjgnBsGwdkhEQH8JigJ8PglG8FcaLf52fzDKYZ8JvylTI8M97nkehUCCfz5Mv5EuVOXyRIZfLMTg4iPI84rEY6XSaaCxWug8tppTX639SvqhSOiMIgiAIgiAIgnDyIQKEcPyxyqa1ZV78Bw19yz8Y6OALBGGBIXx8tFwO4yE8dpDwuUgkRjSeJBJLUPRgKJen6Ck8ZeEqi+F8EcuJMmnyaTS85884413/jXgiieNEwXKwLAfbcrAol/pE6T9Ay3wWBEEQBEEQBEE4mZEynIIwDorFHG8MHuR3+3/Hn/70J/L5PDU1NcTjOsfDn/50EMuySNfU8N4/+zPqaidj29ozQhCQMpyCIAiCIAiCIAKEIIwHpYrk88McHDjI4OAguVyOaDRKJBrBtmyGh4exbItkIsnpp51OIpGCoLeDcMojAoQgCIIgCIJwqiMChCCMB8tFeS75Qp7h4WEKhQKe5+E4DrZto5TCtm0ikQjJpC7HqZREOAllRIAQBEEQBEEQTnVEgBCE8WC5gAcKPKUTV+bzeQAiToRIJIJlW1imOoZlOSJACBWIACEIgiAIgiCc6ogAIQjjwFMFwMOxdViF53nkC1qAsG2HaCSiK2cAyvMAG8uKhEYRTmVEgBAEQRAEQRBOdeQVrSCMA+WB54FSFmBhWTaOE8GxdQ4IXctCG5ieUnhvj64nCIIgCIIgCIJwwiIeEIIwDpTyAGXCK/xj/ne4fAzjHaGPSRJKoYx4QAiCIJz8bNiwgX/+53/mxRdfpFAohE8LgiAQjUZ5//vfz8c//nGuueaa8OmTHhEgBGHc6O+sFhuCxqSq+D0oTAiCjwgQgiAIJy/79u3juuuuY+bMmXz6059m1qxZxGK6VLcgCEKQfD7P3r17+ad/+if+/d//nbvvvpsZM2aEu520iAAhCOPAMi4O/p/LaL8HjwlCEBEgBEEQTl4uvfRSFi5cyLJly8KnBEEQRmXjxo089thjPProo+FTJy2SA0IQxoFSCqUUnueVPvvHPc8rHceEYOgwDEEQBEEQTnY2bNjAzJkzRXwQBGHCLFu2jJkzZ7Jhw4bwqZMWESAEYZxosUERdnAI/y4IgiAIwqnDP//zP/PpT386fFgQBGFcfPrTn+af//mfw4dPWkSAEIRxoEMsgi70/mddEUP/KZWPSf4HQRAEQTg1ePHFF5k1a1b4sCAIwriYNWsWL774YvjwSYsIEIIwDpRSWBbYtm3ECB2GYVk6KaVlqcAxqyInhCAIgiAIJy+FQkESTgqCcNTEYrFTqmqOCBCCMAFsu7LkJqWqGJW/h48JgiAIgiAIgiCc6ogAIQiCIAiCIAiCIAjCcUcECEEQBEEQBEEQBEEQjjsiQAiCIAiCILwl5OjZtoq2D2dpbGykMbuGneEugiAIgnASIwKEIAiCIJyMuAPs2bKKtr9s1sZuYyPNFy2mY1s3A264s1BJHxsX6j0Lt+a/bGPFuk76cuFrjkz/95bS8uXt7HndXJw7yFEMIwiCIAjvWESAEARBEISTDbeHjVfMoe2r29mzf6B0eKB3Jxu/vJA5V2yk5ziIEH0bFhpDfRVd4ZMnCQP799D57RXMu3yie9jPM48Zf4dMK+t2ddPbfQdzw90EQRAE4SRGBAhBEARBOMnoXreMjl/mgDjN12yic9cudu3qZNPVWQByv+xg1f194cuEapy5km27drHL7GHHJfX6+G86WPNIf7j3GAwz4GtBF1xKa30c4nHioV6CIAiCcDIjAoQgCIIgnEy4XWz4ByMuXHQH9980j6b6eurrm5h38/2s+bA+1b29k75gqMHCjZQkiVc2stCEHCzcYI66/XTetpiWZtM/20zLZzro3A/QxarGRubd0W0G2M7SxkYabyj7QfQ/1cHii/xwkCzNbavYvKfsnVHynli4kT17NrLC79u8kDVP9cPAHjYub6H5TH39vOUbCVwOQO6VTta0zTF9Gmm+aAUbf1lljgXr2bOrg5Zs6L6rEclwen099WYPF339K7SYUzt/80K5X66Pzq+2Mcffn+YWVmzYo8Ndnl5FY+M8Ovzt+cFS3cffH3eAPRtW0FLKDdFM21eDYR56fxsbG1n1eA9bPztHf356HHPjz99IY+NC1j/XyZq2ZrKNjTSe2UzL8q2VnhxmrOZseazF67pGhO0M/HIjKxaYcRqzNLetofMVCSgRBEEQxkYECEEQBEE4mdjTRZcxFlsuaSFTcbKeD122iEWfWsSi/5HhjYpzY9HP1r+Zw4r7d9IzECczvZ5McYCe5zayYv4KOgfiTJ3eQH1psjiZ6Q00TNbv93s2LGTO8o3s7PXFgBwDe7azpu0iVj0dUhG6O2i7vINOv+9AN5uXL2TOgjY6nuoxhnCOvqc6aLu5s5xDoXcjbReuYPOe/pKxPNDbScflVeZ4aS1tf7ORnqOxlwNeC5lYnf7g9rDx8nms2LKHfn+qgR4672jjoi93MRCfSsP0ejKOP0aGhtL+DND15Ytou6OTnlJuiAH2bKke5rH9Sy20Px3wvDjS3OWeQDdrr17B5j0Det/cAXqeamfZt4wyEhhrwN+bgR52fntpxVgDT6/ioss76HzJjEOOgT2bWXFhGxt7TSdBEARBqIIIEIIgCIJwMnHwYMlQjKdGOvhnP9VBx20ddNy2CB2QMQ5efZTNuwAyLLp/D3ue3cWen6yhGSDXybe3Taf92S4eWeGP2MK6Z7vounku7N/Kmm9oA7f+kg46f9NL964HWXk2QD/bb1jLzgoju56W2zvpfqmbXXe3ogMe+ul3W7lnVze9v+lkzbmm6+NPmioS3ay9poNuF8gu40HTT4dL6Dn2BGYAoH4ui25ax5orm0iEz41Grp+d677NdvPr3L/Q99v9rWV0/AYgy7Itu+h+qZvOr7dQD/T/YBVrE+10PfsIK99vLrxkHV1mf3KP38TSH/QDGVpuM/e9ZSVZZ5QwDzdO00UrWXNnO+e/axxz/7Ly8voW/xlsYsl79LG+HT+nD+j/3k1mrHpa79ZjPXaDvsf+H6xhYzdwuJOblm+nH8hcFHqebjcdX93KRAJTBEEQhFMLESAEQRAE4SSi75We8KE3kQGe3/lr+nPAtEXcb3IjbPlUQ7hjif6u7UZgyLLshkU0pSBeP5fV17XqDgOP0lmhDsxlUVsTcSdO/SWXlpI0Nn1mJS31cUg1Me9cX+jooecV4JWf88wr+kjrde3MNf0WfXYRDQADv+JX5rxmHh1PPEjHNa0s+dQ8I3KMQncH80z4Q2N2DovvNWLKZZu445I40MfPd5ggjoWfp31OPXEnTlPb51k0HWCAX+0ZPchj545O/eHMZaz+lLnvOSu55gJz/peBMA+g4ZotdN67miWXLaM1O/G5537CfwbzmPfn5mD3C/TSzzOPmwcxZzVfuUSPlf3s9SyZ3kDDdMgdAHY+SacL0FTxPFcuNYEpu3ZSuWJBEARBKCMChCAIgiCcRDS8pyl86NiZvojrL9NmeveGxczJNpL98JXc9OAz9EfqyaTCF5Tpf/VV86mJJvPGXf96lvHAGOC13x05FiIWGenNUaLnBUrZJ5aXS2Y2fmK9ye/QzQsVukyGqZWxKROi6fOP8eyd80x4Sy8v+JM/tqI8d+NC1ptb735xtLiEPnpeNB9fWktL6dosq54yx1/sqchRUXva6YHfjmXuMP2UHtW7ppZFGWcea57touvZLtrPhb5/9zeyh7UXlfc6+yUjpPiikCAIgiBU4W0TIBzbkiZNmrRTpgnCW0ZdXSnvQ+7wSMO+/zeddD7eSefj3RNwlc8w785n6bq/ndbmDHEg9/oeOr/dzsK/XMrW/eH+bx+ZaQ06v0KoTR1DvxiTUhWMTSwxVnnPY0/SW60EZ6Z+xLzlXA9HwM8LEW7147iWY5z7qDB5Pka0qcT9XBeCIAiCEOJtEyAEQRAEQTgOZOcy1xiAnU91lZM0AtDPk//vClZct4IVX39SCxDjMRYPD9DfP0Aiu4g7tu2pzFOQ62LTD0YP+6ifPt186qMvKFSUvBYyTH3XMRrJUxt0qAXw56u26/wKfnuqk07z9v6oKFXBmMfKL5mAkFfW8+3H/UwbU2nwb7F5NduDcz/bSedTJhdGVaYy1b+2fhHrdgSv7dLX3r+kdG8jOZa5w9RTelS/ey0gTnWz9eZ22m9uZ2s3TJ3mr2Yqi/6+cr1dT3XS9ewmlvjjCIIgCEIIESAEQRAE4WQi1cI1V5pX9Y/fwop1XfT099Pf30PnzYtZY5ISNnziYrI00HSWue7FLrpeyelEi488WgppAMg9fRNz5sxhzpwrdZUDJ079X8zlQzXm/KF8oDc6tKB3gIHDOerntehklexh/W1b6TkMuf6drL3bpHLMXEqL7nD0nH0xrSa8o+srV7J2Vz85ILd/J2svb6Ztw+gCyUSo/+T1JS+IznUbddJLslz8CWOUP9vOlXfu1DkyDvez8842mqtUsigTp2WhyZ3w6kaWf0nvD7kBerat4LzzVtEVKuBRybHMHaae8y8xD2LXZjbu6ifn5uj53rfp+N5Wtn7vSboPQ/yCS2lxAPrYuHwFW3tzugrGS1tZcd55IyuOCIIgCEIAESAEQRAE4SSj+f95kHZTZaLr20tpmTOHOXNaWPE9bYjHP9zOxi/oDAxz57fqkA13J2vmZysSLfrEL1ltxutm7UVZms+bR/PZi9k8ADhZFn9Sj9Vw9odM+MceOi5qpvmrO2HaEu64yVRSeLydlrMbyc5ZzHq/2sKdq0seG0dPltUb2rVHhtvN+ivnkG1sJPuXi1n/mxzdP+qqyKNw1DjNFV4Qt5sKFdkvbDT7A9336hwZjWfrfcx1P0qXn1uhCvFL7mCTya/h709jtpmWL3fS37+Tzj0jw2iCHMvcYeo/dUfpOW+8cg7ZM7O03NzJAFB/2TpWf1gLXHfca6qT9HfSflGWxsYszQva6ezvZ+eOX4e8bgRBEAShjAgQR8vh7axobGH9eHM7HWcGXupiZ6/8T/5bwYm21/3fW0zjJza+Of9xLQjCyYHTxLLv72Hb11ppDuQAyDTOZdHXtrHroWU0GaM/fsEdPPK1FppM4oj4e+aycksHpkaFxmli2cNd3HP1XJoyOQZe7WOgmKHp3GXc8+NtLPOTS85ZzT1XN5MxU2Zq9Yemax5j173LmNvoZ6eIk2luZc22p1h3wTFkgwzSuIzHfnIPy85tKs1Ppom5V9/Dru8vGyOMYWLUf3IlS8ySd/79eva4/n7v0vvj77dj9ucnj5X3pyoZ5t35lH5W00buT8d5RwhPOaa5Q/jP+cryMyTTRMtN23jq637STchcsI6ntq2htbmejP89mtxM69e28dRt8zjCigVBEIRTGEsppcIH3zp6WL+ghRdWdHPPwnfY/1z1rqfloh7ae9cxL3zuLaefrVefx9rsFnbdcKx+rCc/fRsWMu/X19B9b+s4/iOpj40L5/Hrz/rf0RNvr/fc2kxbfh29tx3NN3EPa5rb9FvMCubSsetBFo1Zm+7omNj+C4IgCMKJTWNjI729J8gbKUEQ3pGcSv8eeXs9INxeel5qoOm970AzpLeHnrPPojF8/G2hnkX3d58wBvGJTu+L3WSmNYzT+O3lhe5ggrQTba/7+e1LA2Qbj/Kb+Oqv+NVAlvZne+ntDbbjIz4w4f0XBEEQBEEQBOFk4e0VIF7uoZssTY0AObYvb6Ttjo2suqhZ15Re0MHO1/vp/OpCms9spLF5IR27yq9q+59aQ9uHs7rv/BVsDYhG/U+tYWGzrqU9b/lWNt7QSMu9JgmV20/nV9tozjbSeGYzC2/byYgXwAADe9i4vEXPnW2mLdCvp7cb3jVA5/J5ZBsbafzLpWwN1L0e2LORFfPLa9u4x1zZu56WxlV0+R271zIv+Pv+zbQ1trH5P7azorGNji3mPs5sZvH9oyTRenUjCxsXs9WkrA7uS/NFlfsSZGDPRlaYvQ7vbZDuO+fR/KW1dCzI0ti8hj0A+ztZ09as7z147eHtrGhcSseGFcwz+xtcd7WxguuofI4D7NmwghbzHJvbOthZWmLluXnLt5YSbek51rPRPJvs/DU6iderG1nY2MjSH8DAP7bReOVWneU7+JwD34e++xfS2LiU7Qyw+fJGFn+vf8Res7+TNZ8o7+GapwJ5w0dbRzXGGIffrGVe8yrW+3uanceaUpKvV+nuhg82NsBTq8rPB3Ss9vxG2raMUWivt5du54M0VclYPvDYChqb17DT7Gv/9xbT2LyKztdDf0Oh/afK939r7xj7LwiCIAiCIAjCqYF6O+n8kpr5kbvUC0oppV5Qd31kppp56V3q568Nq+HXHlVfmjVTfWDWx9Ut//KaGi4Oqxfu/ria+fENap9SavhfvqRmzVquHu4ZVkoNq9/e/XE184qH1WtKKfWLW9Q577tIX3fooHrhno+rmTNnqi91KqXUsHrmK+eocz7/sPrtIaXUgSfVl86ZqZb/aDi0uGH15OdnqnM+/7DaN6zU8Mv/qK5830z1pX/RZ5/84kw185yr1T++MKzU8D61YdFMNWvNr/XJng3q4x84R930o9fUsBpWr/3oS+qc9y1XTx5SSr28QX185pfUM4E5Zs78uNrwsr70hbXnqZmff1IN/9+71HkzZ6qL1jyjXjs0rA523aTOm3mlevg1f30Bum5SM2fdon6tlFIv3KXOe9/H1V2/OKhU8aD6+d+eV9qzCl7eoD4+8+Pq9p2vqWGl1MEffUnN8seoYFg9+rmZauYH/lrd3vVb9dqBYaUOPaNuOucctfyR36rholIHOwP3Z9b98W/8XL02bO595nnqrhdGGevlDerjH/i4umun3qvf3vNxNfN8/Z0Y/tFyNfOc5erhl/Ue/+PfzFQzr9c7t2/Tx9UHzHdFDf9WffvSmeq8tS+U5zjnavWP//egGg4/G/WMuul9s9Qtv/Dvb5/a8PGZ6uMdP1evDZvvw6zA+eDehn8/+Iz60jkfUH/9Dy+o4aJSwy98W338faF7HXUdAcYcR6nh7cvVzJnnqKsffEEdHB5W+zb9dXkNrz2srpz5cbWhz3+my9Wjh8x1P1quZs66Rf28GJyskn2bAn83YYo/V7fMMn8bL29QH3/fOepL/3JQ/w1dP0vN+pz5Gxr+rfr2x2eqK//JjPJ/zXewyjMduf+CIAiC8M5m5syZ4UOCIAgT4lT698jb6gHR09sN2SYdxnC4h55Xm1h912rm1seJ17dy6QUQX/gV1lxQT9yJk/1AE3S/QC8Qn3srTz27jkWNcSBO0weaYGCAYXJs37SZxGfX6etSGbKf/TytNGlPi+71rHl8Lnd8fRFNKWByCysXN7HzF5UZv+E1+l6GuQsX0RCH+HsWseb+e1j03hzQQ8+L0Pq1TSzJxiHeQMtHswy8cRDI0fn3Hbxx9f10XFJPnDj1l6xkSWMnjz6dg/c00UQPPa8C+7ey4blWWs97lVf7Abp58ocHWXJlC7zcQ9+Zq1l/yzzqU3Ey57XQzEEGDoeWCfT1Pg/ZLNMBftdHX+PFtH44A06GuSvu4Z7l/4tE+KJpi7j/l9ton1NPHMicdRbTBw5yMNyPXnq6oeXrW2g/r4n6yXG671vDk+fewbq2JuIOZC5ayZL37mRnN+TMutfdMJf6uLn3M/v49f/trzIWdN7ZAavuYfUcvVdNV3+elld+zfP98Np/9sGcS1n0Hr3Hi776IPd8Yjq5w5103AGrv6m/K8SbWPbZFvp++Tz9Zo7Wr21iydkZ4hXPBni1h+fds8iWknJNZdH9e9h241zq48DkLGdNH+Cg6V6xt6HfuzetYXvzHdx/TZa4A/HsSj5/SR/bH+8u3euo6wgw9jg6ZIGFt7LpyiyZeJyGCy4m6z+rV7p5wfdgeE8TTfTS9zt0rorvdpJdsXTM7PK9vd2wq505jY3a+6KxseyZ4Mxl5Q3NdD62nrVf7OCNz95vksXFmXvzUzz79+ZvKN7EWe+Hg28M63nXrYflXy8/089ezxL3BX71arX9FwRBEARBEAThVOFtFCBydP/fHhoam3QseK8OxzirFMreR8+LcFa2qXRFf38/ZE3ehVwvj365VbvNNzbS+NntkMmQYCfPPNVAa4su+QV+qEcjDe+Cvl3P0DewnaVnlw2ulnU91NWEI9IbmHdZM52fb2bh8rVs/c0ADee2MLcxbnJXZDnr/eXevS920zBtKrCTJx8PzU+ceAT69r8G1FGXAVzo/qdN/OFvruHSdw1w8ACwayubnSUsmmOMzrPOonT3r/TQQwNTq8Tl9/Z2kznzfbok1l9cyqKBtbTOX0z7hi56MllaLsnqcxUc5NfrrjQu9I00zu+gO1NHXbib20ffq02clfX3p4+fP9vHwA+W6vCLxkYaG1tY21tHJl5l3ebeD74xXGWsnXR1Qvcd88rGb3YFnWRI1EDD/EtpfmoFzZ9Ywdpt3QxMn0vLuU3Ef9FFp9tNx/zyM8xe1wmZBJnDPfS8Otqz8UMOKvfx4C/WcuU5OlygsXEeHd0Z6sxG9PZ2w3unlvavvNd9/HxHHy2XtJSyggPl53ykdZQ4wjjk6OntI3tW4PvU8wLd0xuYCvT39DCQbTS5SBo5K9tDTy/wm81seqmV668cK+97Hz0vwNzbdlXmf9iyqHS/9ZddQ8vT61lPOxtXldeQ632UmxaakBETVlFXmwBeYOezDbR+NLBeZx5rnt3EkunV918QBEEQBEEQhFODt1GA0G+Is+/XppN+c95UetPsJ/9raipbKv2vvgrvb6LB3cOaBW082riGp/Zqo2nTZWjD8JUeeqglE7Tmenvomd5EUwr+0PcqXLYplHCvl64bgoKBpunqbez52RY+/+f9bP/cHM67uUvXtn65h26aaCq9xdViSfb9jUYoCM3PGwwMQNN7GoDTmT79VV793U62Ppyl/dosje/N0vNKN51bNtO4dAlZ3+g0ewO+0anvoZJ+XnsZznq/2bnMPDp+0s3221uo/3UHrbMWsjGQm8K/ZuvV87jl9UU8sqtb3/9N2Yo3/SX8PB3v9Q/8gVdfgdZ/CCct7GL12VXWzR949VVomtkwcqz+1+hzs7TvCI91D60pXVJt255dbPnsn9P/g6uZc147XYeh/3d9kG2nK/QMe+9tJd47xrPBv9Y32KH/e0uZ97XXWPTQLrp7e+nd0U4W/w293ttygsfgXvfyQjfEU0HhKsfAIWhqnG4EtdHXUeYI45i/k6aZZSGh7997Sp5Dr774ApzVZMrLNdD0fvR36R/Ww99cw7wR35cgvbzwm8q/sTADO5/k1y5kmppo8D0pfrmGi654lKavPUX3S7309m6iFTPOq9W+/2XC+y8IgiAI73Si0Sj5fD58+P/P3r3HR1Gejf//zOxuNgkhHCQxKonIRqyLtqRaJJVKxEIUBfTbiK3A44NALVBFUH8a+VWgz6PRrwpFBWo5PZaDCvSnhKdCPEC02FC0hqqsFXYVE5SYYCBLSLKH2fn9MTOb3U2AICin693XviA753sm1Pua+7puIYTokGAwiMPhSPz6jHXyAhBmyoX1Nrx6jw8uyW19c77HizfaEST6JjjX1RM8mymvG8Fvp+WTkUq0c9czuwekprd5ix+b6tHj/J6wtza++F1M8TyL56ViStZX48xwUzixhBV/nELyS+uowAxotBMsyTzPCT2zySVIIByzs482Urq3kOsHAmST7fLz8dynWTd0LIWpkN07F8+Hz7GurJCJt2QA1VTvtgIWhurPvNCzZzsjGYwihNnnZUBdOfNnLKYy4CR3wFimLyzl8es8rHu9On6TpgrKt+Yy9t5R5JoTffs+jX/TH2Veqys6jL8HPXuao1Es0fZr21nmo82U+wu5Nr+dfWVkkoGVfmKy9uVZTfGjpVQ7M3APm0DJyqVMca5mXQVkZGTAnj3si9ksut3e6nYDWdYsFvEd9gAVb1eQe8d0RvVJN0bieHfEvKGPKfBobN3a1vQkt0/Cs+MvY+Nb2RQOyj3qebQ6yn7MUSOtAaDYWSTazoDhusSN581HWFRWSPFdbYNqcb5I/B1L4C9j5v0V5P9+Oq5XnmN1jfG1p7ycumG/NVIsbNZ+etIzCziv7fNf99Ycil8y0kni218IIYQ4/V1yySVs37498WshhOiQ7du3c8klMcOmz3AnLwBhplxYHSvfp15yY98O+3x40nO5ONojNjrlblcupKfTmUoqttTh93spmzGBEo/ZYc/Ip8DtYd2Llfi1AHVb5zBtbmuqR/bQkbi3zuGx1+oIaAG8rxVTOGQWFYHWQwNkaLtY/OgcyuoCEKij4q+bqb7yx/S1AhqHC5bYCrh+mJflC8swNi1n1n2L6fzAdArNt9FOO1S+v4+xv8w3vsjMJvu1Mip+aQQkjBQPs2aFybc7Js0iVt0uvH43LhfQ3UndayU88oKHgGYMk9+4NZ0rLk/o7jnTcdq8VLzrxe+vo2LReB56Bdy92r6XbnOtZFM4wk3FHx4z2qbJS9kjhRTMriDQZNS2qNgQe+3zafmPiYxIbW9f+Yy8BZb/93w8TRCoq2DxxAGMWVkH3QPsWvoYc16rI0CAuq3r2Lwnjx/3BfJHMoLlPLLQQ0ALULd1MeOvGcPymnaOkRDIajjoJzu1C/5AAHCS3gm8Wyvw+v3GfmaUwiXWG/oGGvzZpHfyEwgktDW5XDs0m9IFxrnT5GH5vY/xwYhZTHAf/TxaHXk/bUaNUI3Xa43CSAyQGMEs3q9k369/azxLTV5KV5ZR106QDe+OhN+xGJqXxf8xmYrrHmf26AlMHFbJkhVGEKFzl87wYQXldX78O8sonlhijPboGf/8+zUI+FYzc8ZqOM9s0bj2F0IIIU5/N910Ey+++GLi10II0SEvvvgiN910U+LXZ6yTFoCwUi6Mt+FGUUe3q7VrWu37GC7sSQ/ri9hO+YUTmPuoi40TB5A3YALr3CMojG6ZzYQ/lJC5voi8Pnnc+oKfXFfM0PcLJ7B04fV4ZwzA3cfNrX9yMn1ZMfkJL6YzfrmUJcO9PHS1G5d7EMWfXMuSP44l46jBEieFj65lwqESBrlduIeWUHvrSlZObL021yVuGDCZsdYL6qye9CS7NSDRXqdzR0yaRazYIoS2fIpfnkX2miLcfVy4i5bjnLGG4gEJ29gKmP3nCdQ9XkjelUN5rDafkX0S1jG1uVYg+86lLBhqtk2/W3nONp3lD+Xj3FuNjwJGXrKOW/NcuK+exj8HLGD9/5t3mH05KXhkKcXnraHochfuQcV8kL+QBb/MgKyxLF060rhPLjeDHt7BtUuXMjYLSC1g9tJi8zrdDHr4A/LnLWBsVjvHSAhk5Q8fS8sLReT9vgKAgkdWMKG2hMK8PIY+Xkf+8Nb7BPmMHN3C4tvymLU1oa0B9z1rWPDDjYzu58J15WjW9ZzN+icKSG/vWtsE1FodaT9tRo3gw2elJsUFREy5fXHb8pk8xny4Pl3DY7NXs7k+Zh2Td6cH/Mspii1A6XLhmlGOd+k0SmpG8fjvC0jHSeHosTT86TlK/ZB951xKcjcyfkAeA36zDveI1t8+4/lfwUjvQ+SZz2Dm79dTMsj4BUtsfyGEEOJ0N3HiRD777DMWL16cuEgIIY5o8eLFfPbZZ0ycODFx0RlL0XVdT/zytKcBVoetqZTJl88hd305048yIl0cp9en4Xo0m/VvT0ea+uTwzC3gTv9cts40gj5CCCGE+O5VVVVx991307t3b371q1/Rr18/kpKSElcTQgiCwSDbt2/nxRdf5LPPPuPZZ58lJycncbUz1hkXgKj+cxG3fjiR9Y8WkqF5WP7bO5kVmM7WmMr+4rvhXVhI4afT8f0h9o24+D4E/HXUepYz+c4PGLtpBaOyEtcQQgghxHdt0aJF/O///i+ffvopoVAocbEQQuBwOLjkkku46aabzqqRD5YzLgBBwMvqGdMoKfXgJx33iGLmPjqK3MTaf+KEK7vXxZxLyiibFJvGIL57flbfmUfx1lwmLF1D8YDDTEEhhBBCCCGEECfRmReAEEIIIYQQQgghxCnnpBWhFEIIIYQQQgghxNlDAhBCCCGEEEIIIYT4zkkAQgghhBBCCCGEEN85CUAIIYQQQgghhBDiOycBCCGEEEIIIYQQQnznzroAhH9nORW+QPTnutdnMTzPhcvlwn1lEYt3xq1+QiQe8+QJUDrJReFCb+KC41Y5Ow/XjPLEr03lTHMVMOejxO+/u/OJ5XmqANe9ZYlffzs1lZR9VJf47XGrXjQc16RS2n1K/BWU3JyHy+Wi4ClP4tLv1Qlty+/M4Z43IYQQQgghxMl0lgUg6tj4+GSmvWJ24jxzuHVSOVc8Vc7WrVspe+4+ftozcZtjldj5STjmSVVN9W5w98lNXHCc6ti104/b5UpcYPDtwIOb3DaLv6vziVe9pxp3X3fi16ZqFg93MXl9u13/NiqXTGLasxWc6BCEZ4eHbFcuzsQFBCibMYbV5xVT9pGHsrsPdx3fjcTAyJHb8hRx2OftWBzbcyGEEEIIIYQ4urMsAJHBqKUett6fB0D1u5upHjqd4uuyycjIIHtAPu7UxG2O0RdevPSkZ5b1RfwxTyrNh3enm76XJC44XnvweOAyV3biAoPPi7dnLrmJbfudnU8sL95P4bI+hzk3fOzwpJN5Xtuuf3vyZmzF86cRZCQuOC7GObovaa/HXMHG19IZOX4UualOnB07zRPG96mH9KxsMzBytLY8RRzueTsmx/ZcCCGEEEIIIY7u5AYg/JUsnlRIXh8XLnceRY9W4Ifo0Pzxjy9m8mA3LpeLvNGL8Wqxmy5m8lBjWLp78GRW+xKWmdvFLduzmOGuMayuM95uFjzugden4XZNo0yrZvHNLoYvrTbW1eooe2S4cW598hgePbeE845ZVj7DhWtwCR4qKB6Qx6z3Y49pbltTxixzOL0rbzizXm99l+55qoC8e+ezeFIBbpcL9+BZlLcelMpFkynMc+FyuckrKqEiuizWEdbb7cVjy8a/YTIFbheuPgMYv9a8Xo58bt6FhfFD7+tWM8Y1nMV7gLpdeP1urAEQse2fd3MJi9/zgDuXNt1r83z2vGC2s7uAaa/FjC3Q6ih7pIg8dzv3II5xzQVu45oLJi2m0lrRDHK0bLGuOY8xCz0EgOqlw3G5xlOKn+W3uRjzknHsutdnUXRlO88P5RT3Me+r+YwWPb482mbxz2j8fSiYtLp1Weyz5S5g8soyduzMJrdXQmf3/VnkxZyfa0Y5NJUy2VXErLnjGdDHPOfEZ/WRMuqsY300h4K8acyfO8ZsxwGMf8kbc48Szs2yZzHDXS7GvwL+PxfhGr2aOrMtnTuttCU3hU9VtqaNdPB+eZ4qoGDG/GhaSdxzfqzXd5TnrezehBSf92eR16cYI1ko8bkx2uFwz4UQQgghhBDiOOknTYu+8be99at++7Je1aLrLbv/rI++uLd+75u6rus79Kev6a33Hvm0/vfaFr2ldqN+71W99UFzdhib7l6k33TpTfrTFbV6i96i71pwk9772qf1Hbqu6x8+rQ+6+DDLyh/Se/ebqX+g67quV+mLbuqtTyptMc/nA31mv976Q+W6rusN+rrfGOe265Cu6/XG8Sf9tSW63U0lf9drW8xl/frpM98z9lK15Ca99+0v67XmXuOO2bBZv/eqS/Vf/GmH3hLW9ZYdz+k3XTxIf3qHrut6i77uN7313lfdqf/5wwa9paVKXzSqt95vlnG2LX+dpPe+apL+8u4WXW+p0v/8H7313vdtto4SdcT1yu7Ve/e+Sr9zxQ69JdyiVy35RQfPTdc3Tu2tD12wq/VA783U+138kL458e97X9ZHX9xbv+nJv+u1LS16bcVj+k29e+uDnjR3FMs8n0lrdukt4Ra9tvRevd/Fk/SNh3Rd11v0zQ9fdZh7EG/Xn27SL/3pQ/rG2hZdb6nVN953ld77txv1Fl3Xde9z+tDe1vmY19W79brinwldb3nzXr1fv0n6y94WXddb9F3PxtzP6kX6Tb1H6y/X6q3P6JCZ+ua9LXpL/Wb9oWt666NfNO581ZKb9EvN51dv2aU/N7L1+f1g1lXGPfK26C2Hdukv/6af3rv3JH3dIfMkYiWcn/7h0/qg3r31q6b+Wd9RXas3tDTom++7Sr901CJ9xyFd1w/tiDtWS+mk1jZuadF3PHuT3vviS/VBE/+s7zik6y216/R7+1m/d4k26w9d3PpsW205dNZmvbZF1xvKH9IHRdujo/fLes6t6zfON3q/jvH6jvy87dKfu763fm9Z69FrXxyt9x65SK/SdX3Hk4Oi/8Yk3qM27S6EEEIIIYQ4bicxAGF05Fs7By36rr9t1P/ubdH1Q+v0Sb2H6s95W9fetWCo2RE0Ahc3/amqdWHLRn1S79H6y7W1+svjYjoRuq7r4c36zGvu1P9cnRgc2Kzf23uQ/vSH5nq1L+uje9+kL6rWdf2Dx/Sroh1hQ9ULo/VB//13Xddb9IbaBr0lHF1iXIfZgdv8cGvQQE8ISOyYM0jv/Zt1ekN0qdGxNzpLRoc2trNU9aebosGDqj/dpPeeujG6rMX7d33j33YZnbYYR1pv14Khccv03Yv0m3rfq28+6rklBmviO3Jxnbo2+2m7raXN+eib9Xt7m0GgHU/rg/rdq2+OuQe7nh0a17a6ruv6oY36pItj7qNudZTNDn3ZvXrv65/TW0MnZgBpifH8tAkYHWrQaxtizvXNe/XeNxnXFtcpbecZ3Xyf+Vwe2qhPuvgmfdHu1mUtf51kHKe9833zXr33NWaQLEHi+bWUTopfd8fT+qCLJ+nrYm9cWev+djw5qJ17/gv9z3utL8z2iP19ssQFXNpry836vb3N6+zo/WrnOdfL7o226zFf3xGft4TfcV3XP5jVT+/98GZdr31ZvzMmwKbruq6Xz9QHjfuzXtVOuwshhBBCCCGO30lMwcim4JY8yn6bx/BJc1j9kZ/sgYXku5zg8+LBTd+YMftOexL4/bRQQXkZeB4vMFIFXC5c7smUkU5ypx1UvJ3NiJ/HFMmzFTDr7SWM7Qk+n4f0Phcb+ftfePHGFqr7wsMO22Xk9oTq9/9O3XXXUxCTQ579Hyson5EPQMN7cxh9lTHk2+UqoMSTTpcuANV4d0DP7B7R7VqPWc3fN1VTOKyQ9Nbd4rRDdU0tNHnx7omvh+D71EN2ViYA2YNHkvf6ZPJunsyctR78PfMpHNi2aOGR1vN96o0vIOjdgadnNplHOzd87PDEpwjs+XQH9M0lO+7v7e2n7bbRJYnnY2oJQ/XWzVT7Sxl/uXmPXS4K53rp0ilhPxUbKTtvBNdfHvOd3UkS1dTWgdfngb59aVPm0hzC7/N5oFdma02HgI91D44whvu7XLh+XQrp6SQD1b6Pwe2mJ0adgfhntBrvpxj3671yyjQPJYNbz919dxmkJ5PezvlWf+ZtP0Ul7vkxVO/xQV5frFarfncz1dddT2HsjbMBe6qpJYDXl1A00rsDT/plXBatUbKPPXsgt3c7dR18Pjy2bDLNg7dpyy+8eDGWd/h+tfOcYwP8DTQc8/Ud5XlL/B2PLZb6YQXl543g+tjHb9AsypeOJbu950IIIYQQQghx3E5iAAJy71xL5bsr+e2P6yj9zQAGzSgnAAR2e6l2943rkO37ag9ckkt2XS3VmpviTT58vtjPAkbUe/HSmfTYzkpUHbW7oe8l5jQX3h140jPJNoMMdV4vfrcLF+Db7YFO6W069wB1L42n4Pe1jFq1FY/Ph29TMW764r4QozP3RWwxxthj+tjhAWdq7F4D+A9Brqun2aHNJfdCa5nRoY0WJnRNYG3lVlb++sfUvXInAwYVU94UsyvLYdczCgjGdjRbO75HObc2hTXNjlwvV8IMGO3sp00n0NL2fGjyE8BN31zYV70HblmScI99lN8fH7Co/swL6el0jv3S7+cguWT3NIMcccUdD+L3W8c17k909g6tklk3FLHONYvXtxvHW3IL0QDAvuo90b+3fUZbO751e6vBXUx5wrn7Fo6gtp3z9X16uBkwjIBW9Jk1gza5Mdfj+7TtsxpoCkCfXHriw+uB3AsT77kZRAFoqqbWb7R5IuM6jN8JrIBRbFt6d+Axiz129H61fc6hrq4OzLY81us74vOW8DtuFUvNvTCb6i/a3odWCc+FEEIIIYQQ4oQ4aQEIz0vFlKyvxpnhpnBiCSv+OIXkl9ZRYXU6LjHergOgedj8tp/CQfmQkUkGe9gTWxfOKkh3Xja5BAmEWxfVvTWH4pc80c5H9nnGO83qL+I7Yns+3QG5xjF79syFcMz0e5qH5TPmU14XoOLtCnLvmM6oPmanyLuj9S1xQjHG+GP2JLdPzLkC+MvY+FY2hYNyYW811X1yWzuGsVX4PaspfrSUamcG7mETKFm5lCnO1ayriNkXHHk9zYd3Zy65vVpXb53h4Cjn5t2Bh4zom/BoR653dsIMGJlkJ05j+mlrJzWONQNGTMc3UL6RsvQruOJC6HF+T9hbGz/dZWKhRCD7QuNexU6W6CkrpXrY9RTY2glyeDZSuief/B/SdvYOz2bK60bw22n5ZKQSDQIZI1qMQIs1uqV6jw9c2a3PaEyQJiMjA/bsYZ+1jNZzz8yKORcAvOzYcbgZMHz4POnk5loNb86W4WpttJ6uhGcVP2WvlZE99FpytWqq9+TGBX98u+NHVFgBgTb3LWGUSzRglBjM6NmTDDp+v9oGbvxUvF1B9qCfkn2s13eU5806v+h4JPP3s28uZJu/4617rqN8bjGrPbR9LoQQQgghhBAnxEkLQGRou1j86BzK6gIQqKPir5upvvLH9DWHjbNlXXRZ+X9PY37TWCYOcwL5jLwFlv/3fDxNEKirYPHEAYxZWQe2Aq4f5mX5wjL8GgR8q5k5YzWc52oTHIgf2m6+xTc7gbmDCsl+7Tnm7zTPbe6DlOxw4spwkt4JvFsr8Pr91G1dzPgZpXCJ+Za4yU8DmaQ7AwS0xIBELtcOzaZ0gXHeNHlYfu9jfDBiFhPc5vD2S3Jbh7fv8eK1RlZ0D7Br6WPMea2OAAHqtq5j8548ftzXWtl0pPV2GykDrQGIarxe6+36kc+NS/rixssOT4BAk5eyGQ+x3HprHneNbvIHpVO+djXVAaP9Jz9S2n56wW4vHjwsfraMuqYA/p2rmfb7MvIfnEIekD10JO6tc3jstToCWgDva8UUDplFRWxfFGDg9RT6ljPfuua3ZjFtaWeK7y3Eqfnw7oTSZ+fj8QcI1FQw5+H5tPzHfYzKAGigwZ9Neic/gQDmG/FKKrbU4fd7KZsxgZLoCIL4Tmnim3p2+/Ck53JxBpA/khEs55GFHgJawHhOrhnD8hpw/iSfPM86VrzvN56tp6Yxp70ZMADqaqnWYkaeWEGkmMNGn1VPALQAnpXTeKxyBLPGu9u/5wkjKqzAl8vW+pWl4aCf7NQu+AOBdo8dG8zo6P3yfeqBT9dRGnu+b+UzeYy73WMc8fqO8rxl97kM9uygsi5g/Dvx4BwqrNEX1nPzuh+0AN61M3noZcjsRdvnQgghhBBCCHFCnLwAxC+XsmS4l4euduNyD6L4k2tZ8sexZFBN9W4ouLkv627Lw+UewLTKfBa8Oos8G4CTgkeWUnzeGooud+EeVMwH+QtZ8MsMwEnhoysY6X2IvD4u3EXLyfz9ekoGOeNqPLTtiMW+0Qfc01n8+2zW3Gyem28kK/88gWyg4JEVTKgtoTAvj6GP15E/POYV/oWFjLqyguIBRSzfG19XAsB9zxoW/HAjo/u5cF05mnU9Z7P+iQLS2+vQ+mI6tFljWbp0JN4ZA3C73Ax6eAfXLl3K2GhKhOlI6/m8eOM6mvFv1490bvQcxcN3Bpk/3I37ygksr+9MhtWRS7jG/PsXMGr3LArcLgbc56PvoIz20wt8XryXT+HhC5YztJ+bvJsXwPi15n0ELpzA0oXXG9fSx82tf3IyfVkx+Yk7Si3k8ZcnEHhqEG6Xm6FP1HLrypVMcFnTfI5g1ngvkwe4cV8zmc0/XMD6/zfP3DifkaNbWHxbHrO2Gsec+6iLjRMHkDdgAuvcIyi0jhMXaGn7pj6uPkRqAbOXFpO9pgh3HzeDHv6A/HkLjPuQNZbHH81k3e15uPJuZXmnn5LfbopK27ZtG1AwntU1z13BxtFuXH3yGP1KNrNfnUtB+uHueesoIKy6DrGBrxj5w8fS8kIReb+vaOfYCb9DHbxf1Xuqyb71evwPD8DVx03REicTXl7AqKxvcX1He94GjqfkJxVMG+DGPfQxdti7RFM9SC3k8T+PxPtgHq4+bm5dkcnsV0vMui8Jz4UQQgghhBDihFB0XdcTvzyptDKm9Skh+9VypscWFhRCnOa8zL+hkB2TPSwYnhhJEkIIIYQQQpzpTtoIiMPa7cVDHu1MjiCEOJ2ZKRZ93RJ8EEIIIYQQ4mx06gUg2gwbF0KcEdpLsRBCCCGEEEKcNU69FAwhhBBCCCGEEEKccU69ERBCCCGEEEIIIYQ440gAQgghhBBCCCGEEN85CUAIIYQQQgghhBDiOycBCCGEEEIIIYQQQnznJAAhhBBCCCGEEEKI75wEIIQQQgghhBBCCPGdO+UCENWLhuOaVEogccH3IkDpJBeFC72JC4QQQgghhBDC8G4JQ4YMoeTdxAXfv6oV4xkyZDyrqhOXnNpOzfOuYtXEIQyZuIqqxEXihDjlAhCeHR6yXbk4Exe0Uc40VwFzPkr8/nhUU70b3H1yExccn7em4Ro0B0/i90IIIYQQ4sxRv521/zWJ20YMYciQIQy58RbGz1jF9vrEFUXHbaFkyBCGPLYlcYHpTOwwmtd8tM8Zdc3HZstjQxgypITDPhWnSnCjfjurZoznlhvNezZiLDNWbKdeS1zx7HGKBSC8eD8F9yWuxAVtfeHFS096ZiUuOA6aD+9ON30vSVxwfKo/80LPnmQkLhBCCCGEEGeG3WuZNPYBnt8aJPfmuyh+uJjpv+oH25fxwO2TWLU7cYPTXPUqxg8ZwvgVZ2sX+LvkZuTDxRRHP0W4AS4tivmumOKJAzmRXSFxgjVuoeTXD7DMm8bgO417dtfVsO2FBxj/1DaCieufJU5uAEKro+yR4eT1ceFyFzB5ZRk7dmaT28sY/+CvXMzkoXm4XC5cecMp2eoHoHyGC9fgEjxUUDwgj1nvW/sqIs/twuVyUzBpNd7DRJbqXp9F0ZVuXC4XeUMns9pnLtjtxWPLxr9hMgVuF64+Axi/NiZsVlPGrKI83Annc/hl5RT3cVHwuAe2FjMgbxaVrVsIIYQQQogzQhWrHn0eb9JAipcv4dE7ixh87WBuGDOTJS9Ppz9els0rRQZCiI7pjvvawQyOfvoagYasvjHfDWZw/xySEjcVp4ztS59mU4Obu56bx92/MO5Z0YMLmd4fGt9cycaz9B+EkxqAqPzv4Ux+PZviDR487y+mYMtiynCT6wK+WMzoonVk//51PD4flY/msnrSHCqBgkd9lM9ww4AStvoqmXVlgPIHh/JQ3SjWvO/D5ynl1j3FzFpTl3hI8Mzh1t/+k5/+cSu+nZUsGOCh+N7FVAP4vHi1D9iR+lvKPvJQ/lBPyh9dYgQNmsopvnkmtb9cQ+VOH5VP5LLuPx6irOlIywoo2VlO8eWQ/+hWfJWzyEs8HyGEEEIIcXrbvo41u8E95m4Gd09YlnYDtxamwcdvsSWmw9H48VpmT7mFG4cMYciQG7llyhw2fRX7TrQ1tcDz8Spm3HGjmdYxlhkrPDQe83qm+u2smjGWG69vPe6WrxPW0erZvmIGY61UkhFjmbp0mzls3EwPuHMZVUDVC22Hunf82pax5dUZjL3xO0gnSLiGG4smMeedmoSVgtRsfpapVptdfyNjZ6zCk9hoWg1bnhof32Zftv/+OvjVJuZY197O/qzUgGXvlDJjzI1t2u64NHji7u0xHfvrLTw7zdp2CDfeMYNVCblDh0traDcdotE8l9h2eK2k3e2Pdt4nTiOev8xmUpH1O3ILk57aRE37tzJeh56nWFV4PmqEXlfRP24YfBp9L80BGmk8FPv92ePkBSCayli0MpkpixYwyuXEmZrLqKIC6JlLbiqQNYql76+leEAGTiC9b196+htoMDf3+Tyk97nYTGtwkj/jdd7+wyhjW2cufS+BhoMtcYcEYG811a7rGXFlOtjSyZ+8gAWTfkoy4PV5YPhslox247Q5yb7uetzmMT3Pz2LjwMeZW5SL0wbpQ6cwtlcFFZ4jLwMfPk86ubmSgCGEEEIIcSaq+ng7jeTQ74rE6IOh32+W8/LLj3J9F+Pn4NYSxk57nm3NP2Pcw8UUTxtNv8YNlNw5tW2qxr41zHj4Lc4ZcR/FD9/FiF6NbHthBs++m9Br6sh61pDwPbmMvqeY4ofH0b9xA7PvmEpp9L1dI1ueGM8DL3jIunm6kUpycxZVL85g/BNbaKQ/d7/8Mi/PLSIHyBk1j5dfnkfR+cbWx3Rt1auYvaiK7gNu4Ib8XNISFn975jWsqCJ3lHEN437SyIb/GsvUV1s71VUrpjL2sY00Xj4umtLAP5cx9f61McGQRrY8MYnZZTVk/fwuih++j9HuXTy9qJ3qA7tXMfXOEv7GYOPa7yki69NlTP3PZ9keNzK7ilWPPU9VRn9uKBxIbqfYZd9WPWtmPcBb3UZy34PF3HVzDo3bljHjmS0JQ/3bOXb1WibdMZvSr7IouqeY4ofv4vo0D8seGE/Ju98iEqBVser+qSz7ZxD3r6ZT/OBvucGxgQee2ZS45jGc9/EKsu2JsUz94zaCA4z7Pf1X/Wh8s4Sx96yi6jAj5w0de57i5XD7ojd4Y9Ht5CQsCTY3gi2XHPN35mxz8gIQFRspO28E11/e+lX1Z15w52JUgGjgg7mjzZQKM+UivQvGv9vVeHdAz+we0W0DvnU8NNxM13C5GP8KdOmcHF0e9ZORjPLPYcTgMRQvKseb7qZwmJsMwPepF3dfd+u63h14emaTSTV/f7sa/yvjjRQLlwuXq5A5vi6kO4+0DNjj5WPtBNeqEEIIIYQQp4yqKqO76rQlLjGlpNG9expJNgAvK5/bRGOv21m4aDpF1w5m8LDbmTl/JoPTvCybszY+VaM5i1ufWcL0Xwxm8LVF3P3Ur+lPI5u2bI9dqwPrBdnyzNNs0gYyc/5Mbh9mrFc8fzr98bDsRXM93xqe39xIzh3zePLOG4xUkjufZMlv3DRuXkZpdRJp3bvTvUtnY/3juTZyGTd/OfN+N53pd/an/fDNsQu++yxPb4aBDy9k5hjjGqyh754XVmJc6XY2bKyn+7CZLLnfSJkZ/Iti5k10g28NG3aaO/t4GU9vbiRr1LzoekVTFrJ8Wr+4YxppOMvwZt/OvGfuNq99HE8+VkRWQynL1idc+ZiFLJ87k+n3j6P/CbnwRrJuXhhzjvP4dX9ofOdv5vW2ij92kE1/eh5vykBmLnmSceZzcfcz8xjnamTTU39KCJ4cXXDz8yzzQf9pS8xn6AZun7Wceb9or0PU8fM+Lr6VPPtmIzljWo91w5iZLPzdYNJ8y3j6sIGEjj5PHdS4gWV/qSdt2A0MPNy/F2e4kxaAqP7MC+npmP90AeD71JoBo47VdxYwc/8o1mz14PP5KH/IDW43PQHYx54v4DJXtrHh+7MYevs6cn//Op6dPny+JYzgMKMO0gsoecdD6WOFZHxQwoh+w1n8BdECmLm9zX3GBUSM4434kw+fL/ZTzvTLj7QMqNnDHttl5BonLoQQQgghzmY732Lj1+C+cSQ5sR2QtIHcWtgdPvlbXKoG2T9jYK+Yn1P6kpsNaAnvh4+2nraNv73TSNq1IxkYO9Qg7SquuhQaP/JQBXg3baQGNyOHxb+37T7sPh59eDT92nm/F3W813Ykm2e3nQViyBAjpSBhZMW2tzfRmDaYkdfEXShX/cQNjdvxVAP0464VL/PytP4x60D3rCygnnpzREjVP43RLTdcHz9LXlqXhKhB9Rbe2t3Otfe5iv5p4PHEzoeXw88GJb4XP16J+0yib58c0EgYSZCwXvNbvLWVts+FLYeiW/pD49/42zHOOrht2zZgIDf8PH5MS6475kVvVEfPuz2bmN3meTA+41+IT+iJPtfD49s97epbuT4DPFu2HLZGS8eepw7Qqlh1/xy2pQ2meGJiAOvscdICEJlZrR19g5cdO8wZMJoqKN+ay9h7R5GbbhSk9H3qgV6ZRspF3S68fjcuc7IMT3k5dcN+y/QBGUbk+XAzZNSVM3/GYioDTnIHjGX6wlIev87DuterzRkwcsmN+UfQ96mH9KxsnPSgZ0+oq4upKRGNBB5pGdR5vfjdLnNUhxBCCCGEOKvV1VMPZGW0fe2d6+4HVPHFUYohHHakRYK49b6qwqtB4/oHEjprt/Hsx62r1dTVA1l0Tzy9lBz6XzsYdzvv96JOwLUdVuIMENHPXQyMO6cqqj4HGkt5IKFTetv82CCAmdf/l9lMus2sCTBkCENmxacJVH1ZBeSSk9h1SVT1BVWAZ/5tCe37AKXfIovhhOjIc7JvPzVA9zY3HJLcfcmhEe/uw3XN22O2f6+L4wMxx6LD27kpavM8mLNNXBN/PYd9rsml72XAbuP+tXUMz9MRNbLliaks253LuKeK6Z+SuPzscdICEM6f5JPnWceK9/0QqKPiqWnMsWbAcKbjtHmpeNeL319HxaLxPPQKuHuZ3fgmPw1kku4MENCgc5fO8GEF5XV+/DvLKJ5YgofctqMOujupe62ER17wENCMtI2NW9O54vJsYwYM3DEBiGq8Xuh7SU8gm8IRbir+8BhldQFo8lL2SCEFsysIHHEZtBxsgO7pJDcFAAj4Sln+ejvFMYUQQgghxGkpJ8d4qxo43FD15kbq6xsJHm65JXFUw3eg+zXGFKFtPt/1lI7He22JM0BEP/25uL0aChkDuSvxGq2ARQ+ARjbNGssDi7zkjHqUhS+/zMsvtx0Rcazcv0g8nvm5pb23/6c4zei/nLqy6NvmeTA+/S86hooiR/u9pCPP05E0suWxscx+J4nBv3uS2zs66ucMddICEGSN5fFHM1l3ex6uvFtZ3umn5FszYNgKmP3nCdQ9XkjelUN5rDafkX1itr2wkFFXVlA8oIjleyH7zrmU5G5k/IA8BvxmHe4RhTErx7DlU/zyLLLXFOHu48JdtBznjDUUDzBnwOiTiysacYsvHpl951IWDPXy0NVuXP1u5TnbdJY/lI/zaMuGjiJvazEDbl9ONeB56TFmvbQZCUEIIYQQQpwZci7rRxpVbP9n+2+Kt/9xLLfdNoONDUBGd7pH38jG837qAXK48ESPzgfo0Y0sIJiW26azNvja1ikdcy4wKvQfbE7YXgvSWF9P45HiCCfr2uJk0S0TaO5M7jXtXOe1/clJAb7ayJqtQXLGPErxL/qR27073bt3p3uX+I6r0R5V1HwV93Vb5rWT0a+dYw5m8KVtXr2fGsznor6+7T0LfuqlijRyex3LueeQmwtUf3GUwo7fL2NUTg1tL9PLjk+AXhe2KRZp6ODzdARVKx5g9mYY/LslFF99DIGRM9TJC0AAub9cwtadPnyechZMKmaFbwEjUo1l6QOKKfP48O2sZP2MCRRv8LF+ojX2KZuxL3vw+dYzoSdgy2XUn7bi8/nwbFrA2N8uwOebS0HswUzOPmNZsMmoK+GrXG/MXAEwdC6+DVNoze4qoGRnJbOuNH+0ZVD4+/VU7jTP6feFZBvZIUdeduFY1np8+F6dQDaQN2MrvqWjzNk7hBBCCCHEaa/fSG7tBZ4Vz7Ilcbh94wbWlDXCZdcxsDvQ5zquPxc8f10X30Fr3MKasnq49GfGeidaylUM7AeNZctYmzDtZuM/N7HN7JjlXNGPNLax8bX4nlrjm7O55baprDlSvvvJurY4SVx1dT+j2N+rCdMkNm5n01bzurSgUWMgoZNc5fXG/ZwzcCBZeNnwRvwA/fqahH33+RkDu4Dnxf9he0KQpuqdTXiPFLg5mVKu47oB0Lh5Xfyzq1Wx9pVtkPYzfmZOGmCM9ElMo6knsSn6XdEftE1seDP+l8EbVwfj+5U7+Hqy8LBuffx9bHx3DRvrwD1w4GGKoHbweTqMmrIZTH2hityJ8yT4YDqpAQghhBBCnE38VK4sofjR5VT6jW+qFw03Z5CaRnni6sfqi8UMN2ekGr7oSL2k003bdjs+J3p/AnK4fcY4cpu3MPu28cxesYFNmzexYcVsxt82h222XO6aOsLs4OQy+reDSdu9ikkT57B28yY2vbaK2VNms6kxl3HTiw7TETpe3blhyjhy8fD8lEk8+5dNbNq8ibXzJzH2oRKWrfcaHfLLxnHftWl4/jieB5aa17H0AcbP3UbatXdxq1XYrEcWWTao2rKODZs34anjJF5bvO6FdzPOBZ4/TmLS/LVs2ryJTX95lkn/+QAl/7POCAZk92fguVD14gNMnb+WTa+tYs49tzF+RUIlANet3HVtGlUrJjH+KWNfa+dPYvyixM60m3HTBpPWsIEHJs5m1Wub2LR5A6tmjWX8fz3LyqN0VE+eJAb/+i7j2R3/AMte28SmzWt59p6pLPOlMfj+X9PPGiH+k5/R3wab5prrvbaK2XeO5XlrxhBrj9fexTgXbJtrPUNGO0z9S0IH/vvkGs3dP4+/jxtWzGbSf22i0TWO+24+/JPZoeepHY3vljDpqW0E+xVxa4bX2C72s62qA4U2zzwSgBBCCCHOVG9Ni05PHf248yi8o4TVnpPQ8/xiNY88spjVS2dR9MRxhxu+ldaAR8wnbwBF9y+m/ItTNN/5RLfbid6fMPS6nYWrnuSuAUlsf3EOJY+VMGe1h6QBd/Hk8oUUxeR9Jw0oZvncu+if8jeWPVZCydyVbE+7geKl877b/PBet7PwhZmMyG5k46ISSh4rYdm2JAY/vJx5d+SSBEAaAx9cwpN3uKl51byOV2vIHfMkSx4cSPQdbspg7vpNf7KqS5nz2NNs/Nz4+qRdWyxbDrfPX87Mm3NoLHueksdKKHlhG0nXFrP8mXHkJmFMAfrHeYy7Ignvq89T8sxKKjuPZN6Tt5MDeL1WICKNgQ8uZGZhFjVvPk/JY0+z0nMx9/3eWC9W2tXGtQ9M287KuSWUPPYca+pyuevJJcxMKIp4SskuMp6L82tY+0wJJY89z8ZGN+OeTEgZSBlM8VPj6J/sYdXcEkrmr6HGXcyjv0poCVsOtz9ltK3nxTmUPPEcG0I38OQ9g+PX+14l0f/B5cz7TX+Sti4znusXt5P282KWP3P7kQtmduh5amv725toBILbVxnbJH4WbeEkhmROGkXXdT3xSyGEEEKcAd6ahuvXpYnfRrknrWXl/XmkJy44onKmucZTCrgfKo9Jj+wAzcP8m4qY40tn1MLXKbkunepFwyl43AOMYMlh0ic77IvFDB9cgucI59Z6vPZkUPiH9SwYfoolSrbTbh3Vbvsex/6EEOLbqlk9ibGLgoxbuoTb2/7zLM4SMgJCCCGEOAsUPrWVrVu3snXDEqYMMjrYnoVFPLT+exwJYXMzZYMH386tp0CnN5cpLxttUv5qCaNcAHWU3Xsrc45xzvvv3IlutxO9PyGEiKVVseqJVQlFKOvZssULaf1wS/DhrCYBCCGEEOIs4EzPICMjg4w+BUxftILp5oxwZY/OpzJmvcAXZcwqGkBeHyM9IW/oZBa/bwQpjPQFY/QDgOfxAlyu4Sz+wvjZ//5yphXl4TZTG9xXFjHrtWpaExvKmdbBGg3+9xcz+QZrX27yimZRlpAi4a9czOTBbjONYjglb9UdQz5tEukZRptkXz6KkrULGJEOUM38uavjZqvqyLnUvV7CmKF5ZlqHm7wbxlCSOO32/koWTyqMtq37yiKmrfVG26f8fjMl5N4yvC+NZ0AfF677y9ttt9Z1l1P2SBF57phzqyG6Tetoj1LGuw6/PwC0OsoeHUNhXmu6TtH9sXUiqlk83Fx2/2oqF02Oruu+soiSrd9jMEsIceqq97LjvWWMv7O1Fsayhybx/CeQ+6uR9EtcX5xVJAAhhBBCnG1suYwanW/8va6MzdYbf99iioZMZnllHX7zzZXfV0bJbUOZ9pYfUjPJ7pluzB4FkJ5Bds9MnDbwvzWNobfNorTST8CZTroTAvsrWX53AUVLjxxsSGTsq4SynX6zcx7AX7mcyUOKWOwzV/ItZvRtJa2BAL+HxY8uJr5+/TFIL+Q/bjZHA7xdTkWT8deOnEvdS2MYMGkxFT4/zm7ZZKQH8O+sYPGkQUx+zeyU+8uZdkMRJa97o20b2F9J6YOFFC1KOOvXJlM4o5y6jkxht34Wk1dW4g/Qem43F1Pe5CSzZzYZ0QEOTtJ7ZpPdLXr34mleFv9iAJOXVuC14ggBP5WvzKJo6DTKE2MLpcUUPV4WXTewv5LF//EQZWa7CSHOYhmDefRPT3JXbg1r5pdQ8tgc1u7NYsTvlrNwVGLlDHG2kQCEEEIIcRbKyLDqHFRTXQvgYc7EEjwa4J7Aiq0efB+VUTIsA6ij9P457Bu9hPK351JobumevIbyt5cwtmc1q58tNUYNXFlM+UeVVH5USckgYz3PC2s4XNWFNprKeGiSsa/0oSWUfeTDs3UFUy43aheUPLKaOgKU/cE8V5ub6es9+DyVrL/fHNbxLfU4v6f5t2pq6zp6LtWse6kCgPRfLqHy/XK2Vm41p/EOUPan1VQDFU9No7Qu9ny3suAWMxXmyTnxHXcNnH0KmfL7uRQPyoxZ0A6bmykrt+LZ6aHsiUJjmu+61Ty9sifFb5ezZrLVJoXMfbuc8hlm4ClB3ZpZlHyEUQfjiTI8Oz1sXTkFtw2oK2XaU8Y1too57kxzn1oZGxNXE0Kcnbr3o+h3C3nlr2/wxhtv8NcX5nH3NVmJa4mzkAQghBBCiLOc97Nq+OLvbDZTKUbcXUx+hhNScxn161FkA/j/yT/N5W1lM+FVHz6fD9/LE8i2AbZ08vPNzu+eamoTNzmcio2UaQC5TLh/FLmp4MzIZ8p4M+yxtYIdVFBeZq4/4j6muJ3gTMc96T5GxOzq2/Oww9vRc2nl/7CCD+oCQAajFpk1N5aNJZtKysxaG+mjf2+ebwaFd08hv2c22ecFqI2doa/nBFb+7wKmjx7BhOFHCapcMpJbB2TgtDnJLSpmgrm6p7wiLo3kyOrYvN6MHLgnUFyUi9PmJGPAdO4zG9S/viwuVSfuuIMKsM7S+9mxjXYRQghxdpEAhBBCCHGWy+2dDd4d0VEKpZPMPH+XC9fN8zG6lGan/LD8eNeWMCZaKyG2/kDHVX9mHcTLnKGt5+G+14o4ePH+w8vHZnqC+xKXtekJ5KZvbgfP5YtsRt09whh54FnMmAFuXO48Rj+4nM11TjK6OaGpmlozVaHn+T3MbYELx7Li7XJzFEnr16Rn0ONIU8IdVja5l5h/9ftpSVh6eHXs2WP+9ZJcI+Bkcl1ihhb8tVRLeoUQQojjJAEIIYQQ4ixUV2e9H88mO2GUf3pWNtk9234yD1M+AKBy9lAKH1xMxc4A2UOnMOvZBcwafjylzs2aBW0+mThT0umSuPoJsO8rqxeeTWbcTJxHOBcbpF83l7c3LaH4ljzSnWbthNfnUzx8AOPXdnwcghBCCHGmkwCEEEIIcbbRvKxeaQ65zyjk2suBzOzom+8fTyul/O3y1s/rZZS9XU7xwNidxCpn9Uqjo509aS1lC6czdlghBX07J654VJlZ1llkMuoPMedgnkf520sY+8NMI80D2FNtBQ2Ok7+MP79qDlMYVEB+agfP5bwA/ro6/Kl9GfXoWio9PjzvmnUiCFC+ZDXe1GwyzWKQe77aZx0R6sqZP6OY4hnzKT8hcQovO6yckJ6ZHKV6RIwMekbLX1THpW74PjVHsaRnkp0as0AIIYT4FiQAIYQQQpwFAv466urqqNtZzpyJY5hj9isLZ0whD+Dy6xlxofFd+cOjmbO1jgAQqKlgzm15bWdqAPbs9uD3Bwho0GKmRDTsqcYP0OSh9K/HnoLhvG4khTaMKR8nTWa1L2DM7rBzNZMHDTJm4yCfArMMg/+lx5jvCUDAj2fh09EpQo8uiL/OaJPqj1ZTXDSZUj9ANlOmjSKjo+cSKOOhAQMYMGAAo5cabeTMyif/h2bEoSlAkDwKhxs/+19dZOwnUEfFkqeZ89JqVr9U0fEaGYk+XcearXUECFC9dg7Ldxpf5w3Mb52tBIBqvD4//qb46UMNGVw7LM/46/vzmbnWS0ALULd1Dk+bDZo+vNB4ToQQQojjIAEIIYQQ4ixQdr/RSR5ww3jmv22843ZPWsvjZscY3ExfVGzMeqB5mD96AG6XC/fVY5j/UQDPX8vNWhB9+fGVxhb+lyaTl1fE8j35XD/M/G79ZPJcLlyXD2eONb0nEOjIlJIAqYU8vtCsqVBXRvFQNy6Xm7wbiimrq6Ni0wcEcFJ4b+u5zhlu1F0Y/tSxBDy8zL/NaJOCm4tZ7cOYAeIPa5h+ublKR84ldQTTHzLqJHieKsR9ZQEFV7oZs9IYTeG+41bcQP79cxmRYYy0KB7qxuUewJhFxvm6H5rFqLiUj2MQvVduCh4sM0YvZIzit+YMG9mXX4FxhyspGZpH3iPtT1OR8cvHKb4coI6yBwtx93EzYPR8Y6aRjBHMvb/92TPEyVTPpv8az20PrKUqcVECzwuTuO3OOWxrTlwiYlWtGM+Qiauoql7F+CHjWdWRmqpaFaUPzTZmuRGG6rU88FApVR39d1+cVSQAIYQQQpxNnOnkDpxAyfpK1t+fZ3ZOTa4JrH9nARMG5hq1DADSc8m/cwFb/zLBTNHIYOxjJRS6zC2dXXDanBT+YSsLRrtJt2HUTMibwJInrDkpKtlxDLGB9Ovm8vraWYzIyzD3B85ueYz4/Vpef7TAeLPvmsDKl4spvNA80XQ3YxcuYXqf2D11UHoGebcUs2TT2ywYHh8J6Mi55E5cS/mzE8h3pRPYX031/gDprnwmPFvO2jvNNI70AuZuWEvx0Ny4/Yx9tpy1E3NbD3is3BMoeaiQbCdmu49lwaslFFjpEgOms+BOszYFkN75MIU8bLlM+MtWFtyZT671UDjTybtlFmtfn0tB3IMiThWN9VXU1x4kmLggQbChhvqvj77eiRb8ahNzptzCjUOGMGTIEG68YwarPm5MXK1dR9323RKGmMsO9yl5t3X1xo/XMnvijcay629k/H+txdPeqWR2w5gsMomkoxWD1apYNWU8zx64mH7dze+CNWx6ahK3jTDP48ZbmPTUJmo60vhaPdtXzGBs3LZbqEnsyHd0vZPl/P78TFvG+CmrJAgh2lB0XdcTvxRCCCGEEKeu8vtdjH8FcBdTvt4KDglRxaqJ41nGOJYsup2cxMXfp7pSpo59Fs+5Axl328/ISqln+/JlbKjuTtH85dx1pGBhR7at87Dp45rELQGoeftZlm11U/zKowxOAXavYtJvluE9dzB3/edVdK//B8sWbaKm1ziWzL+dHDPQULViPOOrxvHG2CrG3/kF494o5rClb4CqFZMY/2oOM/+nmIFprQGJZdU5DPxVET+7wEng8w386cXtNLruYskfi454T7Y/cwsPrIfcm0dzq7s7gc838D+rt1N/xXReefQG0o5xvZOqcQuzx86m5hdLWDjmSFctzjYyAkIIIYQQQghxQnlfXYlHc3PXUzO5fdhgBl9bxPT5xQxOq2Ht8k1HHI3RoW0z3Ay+dnDbzzXd+ebjRtIKbzWCD9RTOm8Z3pQbeHJpMUXXDmbwL4pZ+PBA0nzLePrV+rhj51xgdpbT0o7cka8r5ekVXvpPvNsIPgD1659mmS+NG36/hJljbmDwtYO54c4neXJUFvhWsm574k5iNG9gzfpG0obNZOGUotZtx+TAtlWs8R3jeidb2kDuHuPGu+JpSU8RcSQAIYQQQgghxHGoWjGeIUOmsvbjLa1pA9ffyPj2hsVrNWyZP7V1+PyIscxYsZ36xPXqt7NqxlhuvN5KQZjKs+/EvvGvYtXEIUbNAmDLY0MYMmQ8y3YDu5cxfsgQxq8wqkMYy0rYErM1NOL5y2wmFZlpCe2mCmyhZMgQhjy2hZp35rSuO2I8c+LOJVEN2/9ZD5ddx+DYrKaUgfzsx8DHOzh8VtbxbAvBzWsobchixIh+xheah8qPofuwEfSLSalIu2Y012eAZ8sWrBBEzpglLLkjB7JvZ8krd2PuoV3e9WvwMJgbft4apvB4PEB/+l8Rtyq5bjfQSOOh+O/j/Gs720hj8LXxR80ZOJAcatj+kXmWHV0veu824IlJ17ixaBLPbq03nsOnJnHLjUdOcSl5zRPzHN7ILVOeZVs98HX8sz52xqo2KS3dh42kPx7WrG9bxFicvSQAIYQQQgghxHHz8PyDz7L3il9z38PTGTegO1Vlsxn7yAZa+2VVrJ0yltnra8i6eTrFDxdzV2EanhceYPwTW1rX07bz7K8fYNmnWRTdU0zxw9Mpyqyi9L/GMjXhjb2l/z0v8/LL8yjKBrKLmPfyy8z7xeGGvgfZ9sRYpv5xG8EB4yh+uJjpv+pH45sljL2nnbz9D55m6vy99L/zPoqnjWNgtyo2/NeMIxRprGLXbiCjO1ZpBEtOTg40Nsa0SaLj2bae0tJtcNmtjHSZX31VRRWQlpKUsG4OORcBX++NBiA6zsvfNtXA1T9jYExQY+DDb/BGO2kbwcZGIIcLD3c7gJqqKqA755yTsCD7YnKAxkbjqju6XtQ7c3hg0zmMnFZM8W9GkIOX0t9NZeydY3n6czej7ze/P7SNZb97li0JhUo3PfMAb3UbyX0PFnPXzTmws5QZ94xl7B1Ps8s9mvseLuau4Tk0blvGjGe2xI9sSRnIwCugpmLbUQulirOHBCCEEEIIIU4zBU/58Pl8+KT+wykkjYEPLuHJO29g8LU3cPus5Tw5PC1uWHzwzed53pfGwIet9QZTNGUh8+7IpXHz0/zpn+au3ttAaQMMvOdJxg0bzOBrb2Dc448yIgM8GzfR3tiDpLTudO+eRmcbYOtMWvfupKUkrmXyreTZNxvJGbOQJfebw/jHzGTh7wa3m5YA/bl7iXkuw25n5owiulPF3yraOxOAICQGMSw2AC9Vhw1eHMe2//wfVn6Sxg1jRrQGL3oYRSUbmxOTPpLo3Amoq2+3PY+o3sP2ryHnoiNEFCyal2XLt8FlI7n+CL+swWDi+ZlskARUVRld+I6uF5V9OwsXTTdTT+5m4awRdKeGmqTbmffM3dHv503sD42b+Nu/4jfP+VXrM1I0ZSGP3twdvq4h6VfzoikgRVPm8ev+0PjO34jPMkmib58c2P0Ptic+UuKsJQEIIYQQQgghjlt3Lr4ovmpAvxEjyKGGbf+sAYK8tXkbpA1m5DXx6+X8YgT9aeRv75rdt4wssoCqj2JSM2xu7l71Bm/8scicpeHb827aSA1uRg6P70CnXX1rm7QEAH78s2idAwBcfXEfqTN8UgTZ9OoGGs8dwYjYFIiUq8i7FOpfK2V7bGCjfgMb3ulArYf27NtLDZB71ABEI1ueeIC1+3K5a3pMUOT7dNHF0SKbAHQ5hzQgZ+B1cd8nufsaBTITgj+5uQnPSJc0IIeBg2K/T6LvpTmg0aa2hxGkqWHvvoQF4qwlAQghhBBCCCG+C70uJheoqakBathfC/Q4p21HNKUvfXtB4+dVRsffdSvFv8ql5tUHuO3GGxk7bTbLXvNQn9i7+5Zq6uqBLLq3OZFc+l4G7P7iyEPmzbftpxTfSpZtBfctI4mf2LY7I24fTFrjBmZMnMPazZvY9Jc5jB/7Jzxph7kfR1NX36G0jaoVDzB7Mwz+3ZNGasyp5GhTjB6Fs6Pb25KAeuqlEKUwSQBCCCGEEEKIkywQ9+Y5DfedC3nllYU8ObGIXLysfWYqt90ynue3n6AoxOEcLv3hmCQdvoOrAeSSc9gO+bfbdntpKTVpg7l1WNtwQtKAYhb+7gZy/G/x/GMlPP3KFwz83aPc2gPIyTni1JjfVtWKSYx/oYrcifMovvroYyySkg4T0jFHFeTkGGfZ0fWEOFVJAEIIIYQQQojvwu5deIGsrCwgi26ZwL5v2r49b96BtxrSLsqhOxBsrKe+vhHScun3i3HMnLucv64qZmBSFWv/WHrsNQsSZGV0B2qob3MiXnZ8AvS68Dg75Tlc3AuoqmlzrlVVVUdJe/gW29aVsqyskazhtzLwMHUvsq6ZzsK1f+WNN97gryvmMc7l4R8+cF/uTlz16Dq1cw4xGt8tYeoLXnLvWMjCUR1ryaycHKCKL75MWFC9yyiimWYcsaPrnTK0INCd7rEzmoizmgQghBBCCCGEOG717Po8fgYC7xubqCKL/ldkAUlcd61R6G/dO/HrVf2llG2k8bOrjakVPUvHc9ttMyiNHbbefSD93UaH7njHQOQOvp4sPKxbH59o0fjuGjbWgXvgwGNPS4iTRb/+WeD7G1tir6FxAxveBX6Sd4QpLo99W+/6NXg0NyOHxydfHJZWw4ZnVuLpMoJxw7/FleYYARrv520TVRo/fp4H/msTST+fyZNjOhZ8AOBHV9HfBtsq4ss4Gs9QDlddYZ5nR9c7RRhFMbM4r0fiEnG2kgCEEEIIIYQQx62RLY9NYvaKDWzavIm1T41n6uoa0q69i1vNKSGTfn4Xd7ka2fLYeB5Yaq43fxJTX/CSdu19/NosntjvltHk2jw8/9sHWPbaJnN/k3huG2Tl9z/C6IQssrKA6r+x7rVNbPqkzRAHg2s0d/88zUgTeGotmzZvYsOK2Uz6r000usZx383H34nNHXU7/eOuYS0lU+awjVzG3R4zUeXHzzP2xht54LXWc+3wtgDNW1izvgYGjGTEkd6y13mMdlw6g/G3jGXOB1nc9dTd9DtcuseRdHfjzoCqxADE7lU8cP9avOcOZnT/INs2G/eu9eMxR7/Us2HGjdx427OthTFTBjPuF1k0vjaj9Z4sfYAHVteQdu04RlhpJx1d75QQZMcnVdDrKvod/yMlzhASgBBCCCGEEOK45XD778bRueJPPP1YCc+/WUNW4UwWPjgwZrh+DkXzlzNzeBY1r86h5LESni9rxH3HkyyJXS+7iIUvzGTE+TWsfaaEksdKWLY1if6/mcfCO4/0lj+JwePvpn+PKkrnlvD0X72JK5iS6P/gcub9pj9JW5dR8lgJc17cTtrPi1n+zO3xsyZ8W2k38OgLM7mhh5e1c0soeex5ttCfcU89ye294lcNakEaG2NGhRzDtvWvrWFTYxojfjH4yIUxd64z2rGshrTC6SxcvpCihH11XC7X/TwL3v0bW2JqZlRteQuvBny1iWcfM+5b/GcdHmtlDYJaI7ETieROXMi8O/oRfOd54578xdvOM9Tx9U46bRvb/3m0oJk42yi6ruuJX54M8+bNS/zqlKQoCqdIk7XLOr+pU6cmLhJCCCGEEN+BqhXjGf8CjFu6hNtPqTfQ4jtTV8rUsc+SNu0VHi08pbr9p4zGshncMreRu5fPO/LoFHFWOaUCEM8880zi1+JbuOeeeyQAIYQQQgjxPZEAxNmpasUkxr+aw6PLi+l/mOKXZy1tO8/e9gCem5ew8FhqYYgz3ikXgNi563BDxURH9Lk496gBiJkzZyV+JTpo9mxpOyGEEELEkwDEWUqrYtWU8azJmM7CWTeQdSJSV84EWg0bZk3iufrRLHym6MSk9IgzhtSAEEIIIYQQQohjZcvh9vlLGBfaxrbD1Ps8K321hU2hcRJ8EO2SAIQQQgghhBDHIWfMEt54Q0Y/nJVsOYx4fKbUOIiVXcSTj4+Q4INo11kZgNB1nUgkAmbRRoOCrltFHI11LIqiRD+iY3T0IxbrbLNMifkIIYQQQgghhDjjnJUBiNhgQigUJBQKoGlBIpEQYS1kzIsTE6jQdaMz3abTLA5LQQHFCERokTBaRCOia0T0CLoeQTGXWf9Dx/gIIYQQQgghhDgjnZUBCEtDQwNfVPnY5fuUz7/wsffrL9m3r4b6/fs42HiQlpYWCUB8S7oZTTh06BD793/D/gPf0NBwgEOH/DQ1H6K5pYlQMISmaRjxB/N/0sZCCCGEEEIIcUY6SwMQEZqa/FTv8eL319PS0shBfz01NXuoqdnDnj2fs/uLXezyefh018f4PvuEqiovtbXVNBzYR3PTQTQtiK6HgQgKEeP1vQ5EzLf/5sfM9IjrWJ/5wQwdBZ2mpkYaGw8Yo0yCLbS0HKKx8SCNjQ00NOxn/4F91NfXsa++lgMHvuHgwQM0NzUSDLagaSF0XTMaNHZ4hNVsZqqG9aMV8LBGXZzZ7SuEEEIIIYQQp5+zMgChhUNUV39BJBLCbrehKqDrEWyqYvysKthsCqoKkUiYQ4cOcqChnr01X7HL928+/KiSysr32LHjQ3zeneyt+ZKGA9/Q0nIIlAiRSNgMTmjYbDqRiIaigKJAJBI5K+pJhMNh9u//BkUBVW29VlVVUFU12h46RvsEAi00NR2iwX+Aun1fU1PzFTVff8U33+yjoeEAzc2HCAZbiOgaupnGATqKohspHZjBh4gReDjT21cIIYQQQgghTjdnYQBCp27fPkKhUNxIBKvDqus6NptRstWm2rDb7CQnJ5OSnEKyM5lOqSmkd+lESmoSKBpNLY18XbuXz3fv4pNPt/Ovj/7Bjk/+yS7fx1R/6ePr2ir8B+tpavLT3HyQUChEKBSKFsE8E2mRCAcOHCApydlmtIf1sxGEMIIRqqLicDiw2+3Y7XaSkhwkOR3YbAqaFqalpYkG/wG+qa+ltu4rauu+oq5uLw3+bzjYeICWQBOBYItRyyOiEdEiRPQzt32FEEIIIYQQ4nR0VgUgdF3j0KFGamq/QouEURQVXdejwYdIJEIoFCIYDBLRwkQiVgqA0XFWFAWbzWYEJux2HHYHyc4knElJJKckk5ycjM1mQ0cnGAywr66WPV9Ws3u3j13ef+P7bCde38dU79lFzde7+bp2DwcPfkNLy0F0TQNdJ2K+wT9d6bpGU1MjoXDQCLKYbRsb4IlEImiaMZIB3UyvsDIoFAVVsYITNmw2FbvdbG+HA1VtfWRbWlpoPHiQhoYDRp2J/d9QX1/LgYZ9NDYeoLGxgZZAE6FwC3pEMxI1JDVDCCGEEEIIIU6KsyoAEQ4Hqf5yN6oKiqqgqPGT01qdW13XCYdDhEIBAoEWgoEAwVCQsBYmFNYIaxF0vbXOg81mw25zYLclkeRIxulIIcmeTEpKJ1KSO5GUZCcpyQ56hIgewH/wG778ajdfffUFO3d52OHZzscfVnKgvt6sH3G60gmFgjS3NJlpFzoKbdNNrFEQmqahaWE0LUxYCxOJRIzgRCRiTImKasQlokEJFZvNjt3uwKbasdnsOOxJ2FQVm001K0JohEIBGhv9HGxsYP/+fdTVfU1tbQ2HDh4EFJlsQwghhBBCCCFOgrMmAKHrOsGQMetCUlISDoejTRqE0SE2PrGdZmPqyNYpOcPhMAEzKNESaCEUDhEOh+PSORRFwW4zRkk47A4UFCPFQE3GYU+hU0oXYwYI89xaWg6yf38dOuHocU83OhDWNBQUVJvNGA2SMOLACj7EjjxJ/B7zXoS1cOs9iRizZcQWobRSOGx2W/TvimJHVe3Y7UnourFfgLAWovHQwZiilkIIIYQQQgghvk9nfADC6NRG0CMaES0cDQZYxQpjqaoa/WiaFi0Y2bofIwhhpGYY4x+st/jBUJBQOIgWMd7m6+Yb/rAWIhgKEtGNt/uRiI6q2AhrGjZVRUUBXScUDgBaXMHG04U1hSYx9R2MH/XobBUWKzijKEo0ANQaiDDuifG9FaBobXMtEiaiG/fF2n9EjxjBn0hMYMM8qFHo0rx/ZjqNorQ5JSGEEEIIIYQQ34MzOgBhvAGP0NzSyOe7d7F371do4bYjDKy35LHiO8nGbAsQQdetGS10c0YGs5YBRifZ+BjpBEYQwqh3EAwGCYaCBEMtBILNaFoItAiKroMWQdPC2B2O0+6WGFNeRmhuamT//m9obm4yRze0jjNor30x29gK6rQOhmgd5mDMdhH7sxVkMItMmkEIXdfRItbolbARqIgYNTUU8xOJRFBVFT06RaoQQgghhBBCiO/T6dXbPWYRIExV1Wc0HjpAS6CRYKiZ5pZmtIgW1zFO7CRbP1uzNVisv1sjJFo7xa0jJHTdSNvQIm3Xsba19h2JRAgGg8YyYxDBaUZHM9MbQuEAmhYiHA4R1sz2Na8nsX2t76zUifa013axfxrBj/jvraCGtW9dN9q7veMLIYQQQgghhPj+tN/zOyPo6Gjs+aqa5kATiqqj6xpaJBRNs8CadSHmZ4v1s9UJthjpAPG1I2I7ydaICWu9xE60ta+IORNEIBBA08LGedjigx2nOmv0g/9gAxHdmmUigm6mT6jmtVijSRLFBgtixQYQ2vveWN88VnSUhLHcuje6rqNbqRuaNWrl9C7xKYQQQgghhBCnszM4AAHhcJhv9n2Dw2FHUW2odjuqrXXmi9ggROyfulm/werYRgshmt9Z61nD+q1trGCDMToijK4bdQdit4ntjOt6mHA4QCQSJhwO43Q623TGT2WK2TaBQNC4LlU1Pu2MGIn9Lj6Q0Np27QV7YrdNXD9xP7HrGozZTKyAkMPhkPKTQgghhBBCCHGSnNEBCFVVcSQZUzbabU7sNifJzk5GIUpFIcmRhM1mQ1VVbOasDdYn8e17rNgOc2IqhrW8I6ztFHMkgGqzxdRCOD2oimoU01RtqIrNmIHCZkc1Ay1WCkvs3xPTWo4kMcjQ0bYlYV1dB+UwqR5CCCGEEEIIIb57Z3SPzOrg2+1GAMKZlIrd5iQpKYlkZzIOh4NkZzLJzmScSU7j4zQ+ycnG8sTUDEVR4oIOifUFrPoOHRG/rX7azoCBGYgwgg8OVNWGzWY3Pzaj/e3xf7c+hwtGWKMfYkdFJP55NPHBCyPQ0/ZIQgghhBBCCCG+D2d0AAJrSL4ONpsK6NhsKjabo/VjT0ZRk7A7UnAmp+FwpOJwpJJkT0FVbUT0UHRUgjFSQsXhsBmfJBuOJAUUDZ0QOmEUVUPHmAUjEjGmiIx7+x/RiQRDRIKhuI60omrYcLae+GlAjwYDrKk1je8VpXU6U1U1RkWADZstKdruqmpHVW1GCEM3pzWNjpRQsNlU40+7iqIY9TwwZyKx0lpagwsx2wJEIuhaa+DCWKZjU+zWfBrmFQghhBBCCCGE+L6c0QEI3UxvsOoSJKZZWKkWdrs9+hZeVVXjbb3dZqYWGB9FUcwREymkJHcmJSWN5KRUkpM6keLshDMplSRHMnabE1Ux3uxbqR3WvnUzdcMaJWF1mhVzuk+bzWb2jU+PDrISbWMg5lpUVUFRVPOjAEbbW1tFAxTWcqtApKJgt9mx25Nw2JOw25Ow2xzY7Q7stiQjtUO1oyhG2kxs+7W2MWiaVSQ05ntrRhMZAyGEEEIIIYQQJ8UZHYAwhvEbHWJLNChhfqwAgZUeYKVcGB1jIzBgpQGoqmqmcKTgdKTisCfjcCTjcKTgsKdgtyeT5Eg1gxFJOBwOHA5HNP1AVVXC4XD0PGJrR+i6jmq3R1MaThe6rhvBh7hvFXPWCaMdVdWscaEaoxqMmIAReLD2YY1WMNaxG6MkFDs21Y5NNep4KIoRgLDbHNhUm/Ex29W6n4mzYkT/1HWzBsTp1sJCCCGEEEIIcWY4owMQRiffGG1gs9nadEytAEAkEkExgw1Gh1lFtdtQUFA1nUgkSEQPg64Q0SNGOoCqo9pVbOZoCbvDjsPhAAXjO5sDVXVgtztx2J0o2NB1BdWcDlRVY1MOzKCHFfg4jd7SR4MH0VEIetwIjtjgQiwjEKGArqPqRNMwwAgioOgoKsbUpKoxRamVlqGoCopqM0e2GPUmFEXFzAYx0zSMkRl6dAYSxRz9kBgsEUIIIYQQQgjxfTijAxBWh954Aa4fdXYLKyAQXaedVWO3j11fSUzxsAotmse0tjNGZehxb+rD4bAxAiNmitDTgW61gfWzrqMoR3ukjh5giTZ/9E/jL61pHbE1Joy0CsVMt2gNdpijSlTVaHPFqgMihBBCCCGEEOJkOKN7ZHq0U9za4W2tRdCW9ba+vTf2UTH1CmI/Vr0H6xNNC4j+GT8NJTHnZm2r2u1tRhCc6mLbyggOxAdp2urI9VlBitZghdFOrR8rjSM6YCTmkPGBCDOtQ1FQzXt/tKMLIYQQQgghhDjxzugAhKZp0TfgVqfUmt7R6vxHIpE2AQHMTqyCkXKhmKkCijmrg6LYAGP4v1EQ0fgYKRY2s2NsfGes0/qGPrZzbh3XCEwY2+m6Gt+bPsUZowuMURBJSQ5sNjupqZ3o1asXvXpdROfO6SiKkT5ht1ttYlyfqtpISkoiK+s8+vS5hPPOOw+HIykaqDHaUTFHVajY7Q4yMs7lol696datu3lPW++V9ad1XlaKDQCK0a66jiRhCCGEEEIIIcRJoOhHfN3//Zk3bx7PPPMMO3d5Exd9SzqHmg6y+wsfyclJ2G2tU1xaHX/MjmpiYEDTNFSbQktTI43+ejQiqDYH6WndcSQlxwUpYlmjJ6z9WcEOLRwkFAoRCocItzQSDodRVZVAIICmaeZ+IgwceBO6aowi+Lb6XJzLPffcw9SpUxMXRc2cOSvxq29FR6elpYmDB/0kJTlwOpMZOqSQgQMH4khKIqIZQYBt723jf/+3FE3T0KLTY+pkZ/fkxhtuos8ll5jBAZ3a2q/562t/5eOPP45ry6xzz2XUqNu48MJeqKqKjs7nn3/O6tUvUVOzl5A5rakzycblP/wRwUAQj+djGhoazPutk52dC4rNqC/xLYMQs2efmLYTQgghhBBCiLPNGT0CQlEUbKoNYlIrEj/EjHywfrb+rus6ekQ3pnYMh431Eo5xrGILXxITxHA4HBhVFE8vVoDA6XTyy9t+xaBBBSiKyjf79rFv3z5UVeWn+T9l7Ng7zJEixmiI3r1d/Hrib7i4zyU0NDTw5Zd7aGpqIivrPP7zjnFcdtll0UBMRo8eTJx4Fz17ZnPoUCM1NTUcOnSIi3pdxJjRY0lL6wwKpKamcvvoO7i24OcMvm4I/+f/jKJz587R8zT+jD17IYQQQohTlzV7mhBCnCnO6ACEHjFmZzDet0eM2SwiAbRwmIgWJqJp0YoAxmQZEWMGBnQUjBk0IkoE0MzaD3qbSRxbgxWR6OwLVgHE2JESsR+ixSgNkUiEpKRkM+Xg9ApCGNcJF/a6iMsv/yG6rrNjx8e8+NKLvPjSKv796b9RVZVLf3Aprt4uIhENm81G4dBCOnVKo77+G1599S/8z58XU1b2GsFgEJvNxtChhdFjXDOogG7dutHU1MTrr7/OipV/5vXXywgEWjj//Au48oorsak2unTtyrnnZvHii8spXff/cd5555Ga2gkAm82Oqpj1OGLOXwghhBDiu7Tf76fqq73f6uP7Yg/1B/yJuxRCiNPWGRuA0HUjRcAIDEAoGORQcyP+Q/tpPNRAU/MhgqFmgqGWuJEPVgDBpirouoama9H9RHQtYd34aR5bAxGtQYTYIIS1rbVdHN0KThjHP53oQG7vXGw2G+FwiB2ej/B6d7J7t4/tlR+gaWEURSEzMxNdj3DB+RdwwQU90XWdjz76F/947+98/rmPDyrfx+fz4vf7SU1JAaB7925c0qcPAN98s49P/u1hz549fPTRR1RX70HXdX7606ux2Ww0NjbS2HiQG4bdxLWDh9DU3Bw9NsjwByGEEEJ8/w41NSd+dUze+3AHjce5DyGEOFWcsQGI9mhamGAwSOOhBhr83/BNfS37D9TREmhEiwTjRimEw2FzlEJrLQcrRcJKz4gXm9qRsOQIs2tYBReN2TlOzw6yqijsP1DPv//9CR99/CGf7/6MlpZDNLc00dRyKDo1Z9gMBlzUuzfJycmEQiG+2vsVkUiE5ORk/H4/zz+/gJmzHuHxJ0oAhYyMTJzOZHRdx+/309jYiKJAKBTiwIH9KIpCjx4ZdO3aFb/fz4svrjALU8Jf/rKahoYG856eVY+6EEIIIc4QzS0B3vvXDsJhLXGREEKcds7YXlnrS+/WGS6sgQVGmoORWqGFgkQiYRQlYVSCohifSAR0HRUFzGkmrfUURUFVFCKRMLqRw2EOYNDNERHmV7pOxByJEUtVVXRzBIUzORVdsRI8Tr9AxJYtf+OZZ//A4iXPU1W1GxRwJiVxed/LAZ1gMEh1dRWRiE63rl3N2Uk0HHY7P7y8H8OuH86I4TeT/9OrOeecc4hEjBSYlJSUaDs1NDQQDAZRFZVwOMzBgwejwaFzevQAdPbV1bJwwTMsXPAsX9fsjY5+sNvt5pkmJtEIIYQQQpzaGg42su1fOxK/FkKI084ZG4AAIxhgs6bYRAczeGDFFhRFQY0ooLUus4ILWsRIt9C1CEpEN+pFGLNxRju1ekRHj0TMWS5a0IIho5hEJKaWhBUIMYMKsUEOK/gAYLM50VUN/TR6U6/EXIOiqtG4yaU/cHPbqNu5447x9Ot3BYFAgE2b36Kquhq73Y7d7gAzKHDVVfmMHTOOYcOG8/OfF/J/biniV7+8nU6dOqHrOqkpqag2o00CgRYiWhh0HU0Lg9IaxHE4HOi6TigURgczgBFb8FNBR4sL8Fj3O/a+CyGEEEKcimq/qef9jz5J/FoIIU4rp09v91vQNHPmimjxRwXFrNVgdU5Vm5ECEYnEd0AVRSGiaebUkZrRiU3opOq6jhaJoGka/oYDVO3exd4vv+DA/loaG76h5ZAfLdh+zp6u69HpQHVdx263Gd3i06wfbI1AUM00EkVRyMnpxaBrriWv3xWkpKRwYP9+fL5dZppJa9qJw5FETk4vvvxyDxs2/C+1tV+bM2T05uaRN2O3O3A6ndEgUjgUpGF/Pc1NjQSam9BiKkOrqkqXLl258if96XXhRdjtNnRdJ2zOXhKJGEGG2OKfQgghhBCnMk2PcE7XLtFPc3ML2z07E1c7s+z+mOEXvInrgjcZvnBf4lIhxGnuzA5A6BF0M5vCmE4zQkQ3Ag/WR9M0Mz0iPu1BUaw3+jFvyYlfTVGNIRG6HkGPaGjBAHo4RDjQQlOjn6Ymv/HGPmbgvxUMiY6i0HVARzU756dy8oVqU0lKSqJz585kZmZy5ZVXMvym4Vx4YS9sNhs2M7Dw1Vdf8s8P3sPj+Yj9++vJOu98fnPXZHr06EEoFIzuT9d1Pv74Q5Yu/SN/+cvLvPDnJRw40ADA5Zf/kG7dumK321HVmLbRI0S0MOFwMNq21r4yMzP5P//nVu5/oJi5f1jAgw/9jl/9aix5eVdw/vnn06lTp5hUDCGEEOLMUn6/C5fLhcs1jfLEheK0lJaawoU9s+I+WRndE1c7jM+ZZnbkYz95g96l5OUa/DLDpxDiJDiDAxAK6DFv6M3OsdHhj6Eq6IqCbpZ7ABVdVwhrRhFKTTNSMWKDBhYjKBFBiWgQ0VBUCIWDhLUgeiRIJBIhbI64UMxiltb5KIqCFgmBEjH2YT91AxB2u52srCx+9MMfcd3Pr6Oo6BdMmDCeYcOGkZf3YxwOB5qmAQqqqrLD8xFLl/6J5+b/gbLX/0owGMDhSKJw6PXourEO5uiJ3bs/Z399PYqiUF9fT3V1FbquY7PZyMzIpLmlmXDYKF7pTHYS0SOEtTCq0jqaQVGMsS319d9QUfEunh0f8dVXezjvvPP5+c+HMuW393LP1OnceusoBl1zDT+45BI6deoUHbEhhBBCtPHWNLMzH/Nx51F4RwmrPTItojh9+b3NLJ7+MXkjtlP5LR7l6oXvmMGM986wQFdrwEZGXgjx3TmDAxDG6AajaCTRIpBW5zeWoijoGEEGKzXDSMGIoJlBg2hnN27D1hoIujXGwUz1sEZNGCMkDl9nQDfTAmx2u7lt23VOJpfLxQ3DbmDEiOEUFg6l/09+QkZGBnv27OHdd9/l5Zdf4ssv94CiEDGnn7DqMmiRCJ9++inffPMNkYjG+eefj8PhIBKJRINB4XDIaANNIxQK0XioMSY9xsbBgweNeg+Aw5EUXabrOo6kJPMsFYKhIPX19fz1r6X8+c/LWLL4eZ57bg6Ll/yRTZve4FDTIXJyLmTgwIHcdNON3HprEQMHDqRTp06oNrXd50IIIYSIE/Dj3bKY4uF5DH+qkmPuu32xmOFmMGPaW4kLT1Nn4jWdiW66kK2VV7G18ocsubcTGQD/2kfRPbuO/TkWQojjcMb2unRz9ENi8cfEN95WAIGYmgyqqqIqqpGuEVPMMJGu6yiqGg1OWIGKiFXA0vxYoycSj211wiORCDYzzaC943xvYk7vnHPO4fbbf8Uvf3kbP87L4/zzz6e+vp5160qZN+8ZVq5cxebNm/nk359w6FATd4z9T54oeZL7pz1It27do9ceCoVoaWkGFOx2O6FQiObmZiPAoBrTnRoFP41RDA6HPXofmpqaaGg4EB0B4XAktd4jRSU1tVO0XY36ETb0iE5j40Hq6mrxeXfxj3/8nTWrV/Hk/32c5+Y/y3vvvYeiKPTq1YtrrvkZd9/9W/IH5JNkBTNkQIQQQogEhU9tZevWrWzdsIQpgzIA8Cws4qH10nUTp4lkOxmZncnIzKTggatY8ZD53z1vVDP/A2ulCP5tHqYN24TbHAngvvRdZv1vPQGIjhAo+G8rnbaB8Re8iWvq58aP4UNULn2Poktj0j2GfUDZ7oRcD/9XLJ/6LnkXmuv13kTRVE/7ozHChyj7f94h74I3cV2wicIJH7dZL7Dbx6xhm8x13iTv6goWbzsUvxIR/Ns+ZvKg1muLPTdjVIePUnNtz39vx3XBOyzeHbcTIcQJcMYGIIxZLoy/a1oYRdWxqQ7sNid2u4rNphrTcdpUVEVBxegMW0EBXY8QiRidZFW1YwygMAobGlN4RlDNEQuK+dZfVVVCoRChUJhQKExY07DZbGiRELquoevGVJ0RK7UjrIEWQdXBriaDbjvpPWCn08lll13G7bf/itzcXA4ePMh777/PCy/8mWX/8z988MEHtLS0RAtzhsIhAMJamKSkJLp160bPC7Kx2W3YbSrn9DiH7t3PQdd19tXtQ1Hg69qvCYVCKIrKeeedT0pyCoqqkpKaSkaPTFRVJRBooa7ua/bv38+hQ8b/iWRkZHLuuVnokQiKqpKRYfxH4L59dezbV0ckohl1OaxAjm7MYhIKBtEjsH9/A69t2MAf/jCP1avX8PnnnxMOh7n22gJGjhzBeeedh9PpjAaUhBBCCABnegYZGRlk9Clg+qIVTHcb35c9Op9KayXNT+XKaRRd6TZTNtzkFc2i7Auj61Z+vwvX4BI85uqlv46v1eB/fznTivJwm6MJ3FcWMeu1arPjZ65TGb9O3tVFTFvZ/kiM2srFTB5snIv7yiJmvV4Xv0KgmrJHihiQZ6aX5BUyeVElfnNWcYv//cVMvsE65rFdkzhVqeTedi75AEQoe70GAP8b/2ToLV9R+q8IAbtKuh0C/maW3/UBRYv2ASqZ59nJcLbuKf08O9ndVKCZ8vv+QdHvGqj0gzNdxQn4/1XP5Kv/3tqRD1cz6yoPs9Y24w+rZJyn4gxEqFz7FUXDP8STEKvwPL6LySuD5jMewbuhhjt/93nr74X3Y4qu/pzl/4pEfw/8uw9Rcss/mPZGayF449pqKPNGottGz80bgU4Oss8zzhkAp0r2eQ6cxvtBIcQJdMYGIDBHQVgpAaqiYrfbSXI4SXamkZramWRnGg6HA0U1ghCxIhFjqsdQKNRa30BR2yRI6BEdLdI6W4bD4QCMUQ3WiAeF1hSP2JER1miHUCiEI6k1NeFkUVBwu90MHToEp9PJe++/z9q1f+GN199g9+7dBAPBNiM59IhxXV98Yfw/S6dOafTvn8/FuT/gBz+4jJ/m/4zOndNRFIVPPjH+E8Xn83Hw4EFUVeWSSy7lyp8MICenF/37D+CCC3qi6zqVlZU0Njbi9/v55JMdRCIRMjIy+fEV/el1kYuBPyvgggt6omkaG8s2RGe7iJ2pxGrf2JQPVVEJa2E++eQT1qxZy2uvbcDr9dK7d2+GDh1CakrqSb0HQgghTnG2XEaNNrpu1JWx+SMAP+UPDqXokVIq9wdwdkvHSQB/5XImDyli8Rfg7JZNdlZ6dDfObtlk98w0OmlvTWPobbMorfQTcKaT7oTA/kqW311A0dJqY4P3ZzG0yFwnPYPsbk78NZWUPlLErXOtEICllOKikmigILC/kuWT7mTxF+Zizcvi2wqYvLKSumivzUvZ40UMfbC8tSP31jSG3lZC2U6/2WmLuSbfka9JnOIyk4w0DKB6bzNQz+q5DdQB/Ph8yn2DqfTlUzLYWMezYA8eLqT4/QLWPGClwHZh7vsFlM+6EKo/5+m1xgucvFk/xvPJYDwfZVMAQJAVLxlBDt6pYbkfIIXirQVsfX8wnjXdSQfw1rL8HXPXlh9lsf6TAnw7+zHrp8ZX/rX7qACgljljaowA2A96sKLSWK/kBhWIUHrXJ0aA8JCPh/7TuLb0IdmU7RyMp/ISpvwIIEhJ8S6S/yOf8vcvotA8rPuBH1L+fj5js80vhBAnzBkbgLBGMShmSoXNZsPpdJKSkkJqShrJSamkpKTRqVMadru9TadT1yOoqi0uvQIlPoUjohvfoeuEgkYtA2skhFUHweoEx/4Z+30kEsFms6GqtugUoSdL586dGTLk5wC8/fY7vPH6G1RXVxMMBqPXZjOLZRKbvgJse+8fVFdXYbPZ+OHlP+I/7xjPHf8xnh/nXYnNprJz56f8veJdFEWlvr6eTZuNRNGMjExGjbqdu+6awpCfF5KUlMSePXt4483X0TRjpEh5+Wb27v2KTmlpDLtxBOMnTuLGm0bidDr55BMPH3/8YXR2C6v1YttbUZToyAiLjk4wFOSTTz7htdc28Mm//80FF1zAwJ8NjFtPCCGESGSNwINqqmuBPat5+hVjhEHejHI871fieb/E6HxpHlas8ZA/o5zyVVMwB09Q+EQ55W8Xk081q58tNTp+VxZT/lEllR9VUjLIWM/zwho8QPkry1vXeX8r5e97WDHa6Px7Fy5PGHWQwYhnt+LZ6WHr0rEYfSgP694yghmeZyZQ8hGAmwkrjfXKnigkA6h7ZRpz3geaynhoknFe6UNLKPvIh2frCqZcblxTySOryT3sNYnTyseHqKY7E177Ob4vf45vvZtsO2DvRP5PzWBDbYjaxO1iZbtZ/6Wx/dqJ5iwd3c8h/wfGX40gR6wAH7xTTyAM9L+MtyuvYmvlVRRfHb+We3gW7nQ7dOpBwWAr8NGMtxrYXctmMz434v4fkp9prDfq7u7GMx9o5J+7gb/XUwZAEhP+30vI7aTizMxmyq87GRv/3c8Oc89CiO/eGRuAiI5YsDrOqgNVsRt/2pJwJnciKSkFpyMNm2r8g6aaM2UAOFQndnsSdmcKoJgpG4qxX9WOothQsKHrCoriIBQK09zUSEQLodpUlORk7EnJRtqGOfpB0zRQIqBEiOjGGDPVrCFhdZJPZgDiggsuwOFwcODAAT788ENaWlogpl2s87NGQShmoAUgGAiycOF8/rFtK4FAgPT0LqSlpdHc3ETZ62UsWvwnQqEgdrsdTdN45523mT//WWq+rsFud9C1azeCwSDvvbeNZf+zhAMHDmCz2YlEdA4cOMC8PzzFB//chqoqdO/enUgkwnvvv8fav6yhudn4PzWj7Vo/xgCY1jY1RrAktK8CBxsP8uG/PqSpqQn3pZeaI16EEEKIo/N+Vg09J7De58Pn87H2TvOVabd88s2eeXXNkbpu2Ux41djW9/IEsm2ALZ18a+M91fEdv50fULHbGI+Q/9DbRm2KdxM7/fmMHJaB0+YkY1ABeea3Hp8PqObvm8xe2/DfUjzAWC+36LeM6gng55+V1VCxkTINIJcJ948iNxWcGflMGW++I95aIZ22M8VlncwgVTPel7czJqZOQmu9hw7w17J61rsURmtAbKfk3wnrXHMRxT/CSP34f7bjvvBN8ga9R8lf9tHSpTPpHR0+owG7mlvTfyZsap1qdNg+jCc8yI5dUO21gh9B5gxqrU/hnmLViWjGK7UehPjenLEBCEWBSGJn02R1mm02Gzab8Ubfmm7T+mgRo35DSmoqKSkpJCcng9mhjVJAUVXsNhud09PJyLqA1M5dUe1O7DYbNpvxVl5VjBQQq+NudeJ1swClohgFGq3lJ0tDQwOappGamsq5554bnbHCGv2RGBwxBn+0fhcMBVmzZjWPP/EYTz71BE89/X959LH/5q9/XW8W5oRwOAwY02x6PtnBzJkPM+v3M3i85Pf8/vePsHLVCurr90eDHqrNaLuDBw+ycOFzzHj4/+H/PvEo//XoTJYtW8Q333wTHxQxZySxWMuse24VJY3lTHLSs2dPUlJS+Oabb6KjKYQQQoijye1tBhz8XlY/OobCaA2IAkoSMyMOy493bQljorUWXBQ8Hr9xwZ3FuG2Av4zioW5cffIonFTCOk8L6RnpHUt7CAD42GHtev3kmGlGhzN/j/G151Mf1Z95zZW8zBnaOhWp+17jXTJ48VopHSJexSb4VUH0kzHlFs69+xff+pNa/r+JRzh+tUFjRA2QfV4KEKHydxUUTt9HhTdC9pBMZj1/EbNu7uB/E4WrmXXVhxQvasbblEThveez4PnzGZGZsJ69BxNK81k/pwf5vYz/NvPvbmb1f/soGLCdyoQaEB2Vnmkn+7y2n8yEX4z0dtaRWg9CfL/O2AAEGKkRVipEbGpEbBDASrGIdlCjQQAjKGAFH1JTjdoAsR1YxRxlodpUOnfuQo9zz6dL9x506X4OaWlpJDud0WPFdtRjj291jq1O78kMQHz99ddUbt9O165dGTp0CJdffjnJycnRtklkXZF1ztafzc3NfPPNPvbtqyMcDmOz2YhErJEJrUELq+0aGg7wdW0NLYGWaJqLtY5ifGHci9Q0QmGNr2vr8Pv92FSbcUy9NbXF+ME8r5j7abOZBUQTmje9czrXDLqGK6+8gmAwyObNUjpLCCHEkdXVRbtuZGcCWiWzhhZSvLQCb1M2hb+dxYJnZzGiZ8KGh1E5eyiFDy6mYmeA7KFTmPXsAmYNT0g+d01g/T/WU3JnPrnpRtFL75bVlNxZwKBHo6Uwj016Btk9s9t+usX22pykJy7vadZ6kE5b+/5vMfzj7ejHWVlxXJ9uz8xKPMJxiuB9+WuzjoJK4dAsoJrVS43/Js6++zLK/ueHjL3JRcFl7f83YBvR2g52ppRew4IH3BTelElfMxvDEvAfpK4+QsYQNyveHYzvs6spm9PZqEdRu48/v3EMhcAzHebIDfjxQ1dR/n5B6+fdgZS9X0DxNZB5nsNcy86oP13TZj2p9SDE96uD/6qcfowOKSiKCihmbUIVUImggGojgoKq2gAVRbGhqkRnq9CJkJSUQrKzM0kp6aiOFHNKzjCRiGbOhKGhqmBzJmN3puJISjFTO1JxOjtjdySZAQ4VnQgorUP7rcAIhEhypKDGdLpPlkgkwtvlb/Pe+++TlZXFsGE3MHr07Vx00UVGICAacYgOf4gLmFinH9F1tIhORActEol+b9wLI1BgjaqwqQ5sahI2uxNFUdEjEfMeWAELM3hkd6DabNjsdmx2O3ZbEopZo0M3a0/qGNOlKooSM2IjAjoo5qOuKioKCsnOZPIH5POrX/2Sq/r3x2638+abb/H555+3CVIIIYQQUZqX1SuNrhsZhVx7ObBlNcvrALKZ8nIZC6aNpXBYAX1b6zMeQTmrVxoBjexJaylbOJ2xwwop6Ns5Zp0A/ro66sIZXD9tBWWVPjyVZZQMM2pR1C39s5ku0RGZZFuBkbzplL5dTnn0U0bZ6+WUz8gnM8vqkWUy6g+x65RT/noZ5W8vYWwHAyxnndAxpC10gBIwUmKPS0uYutqD1NXWUv7kPxjzuHmOQ7KZ8mOACNZRGqoPGYVID9VQuv5I1xLE623GfyhspEQAEKH6q2YgQmBHDesSUjB8C/7JgLx/MODKSsr8gDOF3Gs6Yz1KgcAxDIH40fmMMB/T8unvMefvBwkQIbC3mjm3lFO0cB8AziGZZnHJMItHv8dqbxAI4//3Lib3eydutgzLns8P4vcHjRoVQogT6owNQJg9UIKhgNkRNWdBaPM2v7W3aeX+WyMS7HY7TmcyycmpOBxJMaMkYt+4G/tQrJQB1YaiqDgcSTgcSdgddiPYgE4kYkxdaW2rqgphLUxycoqx05NM13VaWlrY9NYmNm4so6WlhZycHG6//VeMGTOa3NxcFBRj5IHZbkbH32hfY+SCOWohTuu6VhRDVRUUxSgOanyMdurcOZ1Lf+COGRFibdGaYmG1s7WNEdgwDmC1rRWIiEQ0VJtKkjMJp9NJZmYmBdcWMGnSbxgy5Od0796dvXv3smrVi1RWVhrPwMmNAwkhhDjFBPx11NXVUbeznDkTxzDHTGEonDHFqK8QjnbdqN5rzCER8JSy7tPoLtqo/syL3x8gALSYnbeGPdVGx6/JQ+lfY1MwfCwuGsCAAQMY9HAZfsCZnsu1A6LdNgKx83UekZvrbzZ7bW8XM/qpCuoCQFMdFU8VkXfbYrwaOK8bSaENoJrFkyaz2hcwAiE7VzN50CCmvdV28s/YazqrJfy3ZvDyK2m48z4a7ryPlryfEuncJfpz48ixAAQuuyL63aHri+K219v8t+u38L9fGB3/vA8Z/4dDRvrFj3qw9pmLjRkouIDrbzBW9b/6OXkXvImrz8fM+Ze1g0i0M579ozRzm2ZKBr1L3sPV8NPuZic/QumEd3FdsAn3UHOGCoCwMbLBPflCRqQDgYNMvnQTA67cRN6VXxmzVaR3YdQQq9BkR2QyfUWWWQQ1yPxb/4H7gk24r/yU+f8Cz/paoxZEJxeP/08XY5SF/yDFg97BdUE5edd9QZk/QsWGWvOZ7c6Pf2zs2b/SR96lW1lupiUJIU6cE/Av2qlJUcDucERnlrA+VspF63pW57j1bb4VqLCCEA6HA7vdHlczwgo+xHZ2WzvHMc1qpgdY6QCYfxqdY6O+Qkpqauv6p4BwOExlZSUvvfQyW//xD7788kuysrL45S9vY+rUexg27Aby8vK46KKLuOCCC0jrlIYaU0CzTaHHKCNQgRmMsNrKCCYYgQRd1xk69HoGXj2QpCSH2Wa6GZ+xhl5YAQ7rnrUGgsAY/eBwJNGt+zn0usjFlT+5iusGX8cvf3kb//mfdzDommtQVRWv18uGDRtZuXIVX331VfS+CCGEELHK7jc6/wNuGM/8t43RCu5Ja3l8uDnEIf96s7Pup3RSnlErYfgcPNZb4bDZJe/ZlyvMTSofLyQv7yEqyOf6YcZ3/vWTyXO5cF0+nDkfmdsCAc3NhEdGkGGtkzeAgqvzGPCIkXqR8ctRFB7Df0q471lM8eXG3z0LxzDA7cJ1+QDGLPQQ8KyjfA+QWsjjC41jUmfWnXC5ybuhmLK6Oio2fWB02tq9prNd/H9LBC77CVrm+Tg/fp99jy1ByziPQ4W/ILny7wR+dBUN/zmNwGU/IZzVk+TKv5O0K6G85wn+b5P03BQmzLmMytJ+5EVH6SRR+MefsGB0khlcgPQf9WDJnC7mT83ssE7rp5eyYGIK6WZ5iPR0FTq5WPD+RYzta/43sF0lb+LFlFixlL8fNIIR6Rcx9103s4pSSLdHqNsbwW9XySs6n7XvXkGBOTFFh+Vexvr3L2LCT5Oi54PTTv7Ei9ha6o6maKQP+Qmvrz+fET9So9fnTE9hxH+5eX3OhWYNlS6MnZtNoVmbArtN0oyE+A4outVrPMnmzZvHM888w85dVtGj4/fl3i/Yv/9rnEmpqKoNVTU6qIpq1HIwAhJa9E28rrcGJ5SYOg2xrO+NZSqRiDGSwRjZYBSUTAxmhEIBtHCIQEszwZYmtEiEiKZBWCOst9D3sqvpce6JGcfY5+Jc7rnnHqZOnZq4KGrmzA7kEipmXQwdunbtyrnnnkvP7J70ufhiunbtis1mo6mpifr6ehobD9Lgb2DvV3upravF72/gwIEDNDc3R0d8WCMerLYz2qg1EGEFEZKTU5g8aQrnnXc+b7+9mfK3y2lqakLXMVNfDLH7A53k5GTOzcykS5cuZGZm0rVLN7p3P4eu3brSo0cGdruDQCDA3r172b37C6qqqqitrTX33fY+H87s2R1oOyGEEKe/t6bh+nVp/HfOdHJ/MorxD05hlDshv6KmjFm/eYjlH/nBmU7e6LmM2j+e4leAnlNY//Z03IB/awl3/nY5lfsDkD6WFZWzyNfqKJt9Jw+95MGvOUnPG8vcX9Yy/sFSI63j1XKmXw7+95cz8/E5lFX6CQDObnkUTpvB7F/mkW6D8vtdjH8FYARLfHONaUApZ5prPKUAtyzB95TxLVodZY9PY84rH+DdHwBbOrn5o5j+RDGFWa2X5a9czsxH51P+YR1+LeaYo/OiHbl2r6l1F2efEVfCx/+M/njwV5Nozr8W5/Z/cOj6X5B53xj2/f55ssYNIZCXT8OYu0l+7x0afzEOe001aX9ZRmr5X6Pba90z+LI0OhSBJIeDrIwe0Z+FEOJ0ckYHIPZ8+RkNB+tw2DqZHdbWTmZsIMH6OXbkglWjwVovdjuroKFu1h5QVdVMrzA6yPGdWSMNJBIKE2hupqXlELquo2kaqq7TuVtXfnDpldgdxiwbx+tEBiBiqWaQxm63k5GRQc/snlycm0tmZma0QGcoFCIUCqFpGpqm0dTURF1dLQcaDnDw4EEaDx6kJRCgqekQLS0tBAIBDh48SEtLCy0tLUQiEdLS0rjn7qlkZ+cQDAZ5a9NbvPXWm3Tr1pWuXbvSuXNnkpNT6JLehcxzMzmn+zkkJyeT5HSS7DQKZjocDuP+RSJokQherxev18fu3btpbGwkEAgQDofN9I2OBR4sEoAQQgghxBG1E4AIXZhLp7K12Pd8ju5IZt+ji8gaN4Smn99M89VDcHz6EXpqJ7osfTpuV0gAQghxhjmjAxBffvU5Bxv3oSopcQEIa+rL2HSMxACEEjNlZiwrMAFgs9nNERBGAELXjbf90RkXoE0AIhAw3rhHIhHCkSCX/OBKzsnIwqacmDFe31UAog0ztaSx8QA5F2ZzUa9cevXqxTnn9CA52YnNZsdut2G3O7DZbGaqhRod9WC1T3ujD2LbOBwOs/Yva9i1axe/nvhrsrLOA7NeRyQSQdM0QqEQYS1MKBii8aCfquoqdu/+jN2f+/AfbKJLt3PQwhp6JP6Yife8IyQAIYQQQogjaicAoTuSSP/zPADC5/di7wtv4Pz3vwifez4ZD91Jc/8CCUAIIc4KZ3QA4qu9X+D3f4Oq2s0UDKOzGRuAiOiR6HSOiU0R2xEmoeNqUZTWaT1bCyyq0WPo0RSMMIGWFkLBQ0S0CJEInHtBTy7MuRRsCrYTVI7jhAUg6EAQAti3r8ZMXTHaQVGgS5eupKenk945na5du5KWlobdbie1UydSU1ITamrY41Ib7XYHWVlZOJ1ONE3jyy/3sH59KQ1+P9dccw3OJCctgRYOHTpEKBSi8eBBavfVcrChAb/fz6FGP+FwCE2LkJySyjnnZBnFoPTW6TktifeyIyQAIYQQQogjuikPPNsTv/3WIl26s+evH0d/lgCEEOJ0dsYGIHQ9wt6aLzlw4BtsdlAVe0LgQDHSIGwqarSWQOz2bQMP1t9jAxHWW3Rrfes76+dIJIIeCRMOh2luaSYSaiIU0ujcqSsXX/pjHA5jbuJj7QgfzgkNQByFrkf4Zv8+9EgkOsLEajbjeqzZPoz2URUVZ3R0hHE/EkcgdOnShVG3/pKsrCz27t3LSy+vYu/er0hKcqKqCpoWIRgMEAyFwawtoesR9IhOOBwmEgkS0SKoip3uPbJIchplhdrOzPHtSABCCCGEEEc0+jqo2JT47bcWujCXvSvfif4sAQghxOnsjA1AgE7dvq/58qsqnMl20I1AQyzFHAWhqlYRyvigQ+zfrY6yFWCwZrCwfrbEBiqsGgMRzaiN0NTchBZoJhJRcV96OWldM9oELI7X9xqAQKehYT8tLc3RWSwS1zCGUVjtZ4yQaBUfFFAUSE/vwsSJd5F17rn8Yd4fqK6uis6wYbSRgh6JoJsjTRRFAd0YyRIKhYiEQ0QiOp3TupDetbtxTsYpnBASgBBCCCHEEXm2wxuvRn/0Nxr1v76tlv6DCFx2ZfRnCUAIIU5nZ3AAAiKREA3+/bS0NBEIhAiFguhAOBQiPT0dm81OS0szoXDIfIuumZ1k6828YnR0Y4IKlsTAgaKoaFo47nvdrPWgoKNFwrS0NBMOBMjKyia7Z2+wGfMFxQYwjtf3GYAAnYiu0dLSjKaFCYU1IzigGxNxpqakoGka4XDYbA+j5kZsQMcKQlhNkJbWmV/8nyLe2vwW1VVfYLcbU3FaQR8w2jQSsfZnRhd0nbAWJhwK4nA46XHOudjsduMetlNn4tuSAIQQQgghjsWemq/j6o4dLwlACCFOZ4mvrM8oquqga5cMzj/vIi7MyeWiXpeQ09PFRb0u4bysC8k6N5sLcy7mwhwX3bv14FBTA/sP1OL3f0Ow5ZBRu0GHkBYmFDZGMei6TsQsNqnroOsqmCkcsaMfooEIdDQtQlgLoUWCpHZJIyPrfBRbUnSd05aioCg2UlLS6Ny5G926nkPXrufQpUt3unU9h9TUznTu3JWuXc8hPb0LdrudUDjAgQPfABpaOEREjxBBMaYmjURobm7i/3vlL+yprsJms6FpRqFJo+ikhqa1Tutps9miaR4RPUJE11DtKuldu0aDD8ZpnsZtLIQQQgghhBBniDM6ABFLNadnTE5OJiUlxey8Gp1TZ1ISTqeTpKQkmpuaCYaC+L+p55DfTyQUIhzU0MJwzjkZpKamoWAnFI4QDgVBC6BGwkTCRnDC2qf1p1XgEnPqzfPP7U2ysxM6Jy4SfqpQzClKHXYHdps9WndBVZRo0UlVVWlsbERVVZoPNaFrESLhMBFNx+FwYrM58PsPousQ1iIQCYMeQdeMURRgTY1qHdNI/dCNaBCdUruS7Ew9URkXQgghhBDHJbHelRBCnM3Oqn8RrZSI2D9jl9lUG6qq0NLcTKP/IOmdOtP30su49Ad9ufQHfcnMOI/zz8vm4txLyO19CZk9Mgg0H8Ln/ZRAyyGCoSDhcDg6RaQxSkJHM6eLzMnOoVvXc1EUFVU9c7rIsQUerWu2PpiTT1iDEFRrZpBgiEg4TLeu3cjMyCSjRyZdunQlNaUT3bp1p1u3c+ia3g2bqnDQf4BAoDnarq1ti5GSoWlGIMnppHNaFxTUE1RyUgghhBDi+JzTtQtdOqedsE9ap9TEQwghxGnjjA9AGG/LrQKGrYULVVU1/240QSgUQo3oKJpOuDnAgUN+UG1EdBt2u/FmXlFs0Y/DkYTNZsdmV/m6Zi/NjX6UYBOEQygoRCIQ1nTC4Qh6BFKSu5CZcSGKGXjQ9TOg6fWY4IMxOAHFrKER9wFAIaJFIKKj6hBsCRDWI8Y4EMWGqtpAV1BVmxmgsWGz21FVlWAwSHNzM4oWQtfC0cNbtSBQFNBVUlO7oKpW6EFCEEIIIYQ4+ZxJSXTp3PmEfdJSJQAhhDh9nQG94ONjvZkPhcIkOZLQNI2WQIDmpiYcDke0AGV7wuEQBw8eRLXZ6NQpjebmFlAUsrLOJ+vc88k4J5Pu3XrQo8e55GT3wm5LStzF2cEMAkV0Y9aQiK4TDAXRzak522MFjQLBAOFwODpdaTAYIiU5hU6d0uiUmkZKSiopyal07tyFZGeyBB6EEEIIIYQQ4hTVfu/vLBJNw9B1QiFj9ILD4UBRVBxJSUfsz2qRCM3NzUZxxVCIJIcDUOic1pkuXbpzzjmZnHvu+ZybeT6pKZ3RI2dpc1tNHDHzMSBaD8IYJRG3dhxN06J/qooxasXhcOB0ppCc0olOnTqT1imd5OQUeZyFEEIIIYQQ4hR21vfYjFmRVBTVhsPhIKyFSU5Oxu7QsalOs8PcWq9BMaeDVBSFcCjEQb8fm81GBJ1QJILDmQJK69SRqqqi2lRQFRTbEXraZygzM8OoyxCTDpOUlGQWZVLBnJ4zloICOtGaGrquo9sUY8iKYjNSPcz1FLU13UMIIYQQQgghxKnprA9AoBvd2JTkZFpaWkhKSiI1JcUIHCgq+hHmUwhrmpEeYLeTlOQgEomQkpISF7AQrYNIbHY7ET1CUlISNps5O8hRWkvTNBSzdoc9ZuYSIYQQQgghhBCnl7M+AGH0ZXWSk1MIBAOkd04nyekkrGkoqho3w0MiKyXAZrejaRqhUJDU1E7RKSJFa/BB13XsZtpFstMZTbuwRjEcjqIoKOb0VZoWiRa5FEIIIYQQQghxejnrAxCqDRRFxelMJSMjg27duqHrOk1NTaiKFaGI7/DabDYiRu4GKEbNiCSHE7CRmpImzZpIAUVVSUpKJtmZTJeuXWlqajbaUFESmzcakIhEItGREna73agbYTNmIRFCCCGEEEIIcXo563vKxlSOEXRd58CBA4S1MLquY1NV7A7HYRMEdLNopdPppFu3bjQ1N2Oz2bDb7TFTQQpiZrSIRCKEQiH0iPGzUYQyce1WOjqapuF0OgFobm7BmeQ84swkQgghhBBCCCFOTWd9AMIqXmgUlQwTDAYBOHToUEwqRftBCC2ikZqSSlZWFjZV5dxzz0VVVSKSgxHHKBhpBA3CWhgUiEQ0s7ikMQPJkXTq1ImU5BRaWprplJZ2xLocQgghhBBCCCFOTRKAMGsK6LpO46FGwmFjBIQWtqPaFLNvHP/GPfpGXwtzTveuaKEQ+/fXG7NmYENV287qcFYzm88aAWHEDxTQVXOcQ9sRDdboB5uq4rDbCYWCtLQEsNkc7awthBBCCCGEEOJUd9YHIGLfpjc2NtLcbNQmcNhTSHY6E9ZoZU3DGQ6H0LQQoVAQdBVFMTrVoi0rAPH/t3f/wW2Vd77H35Ydq46xUkLkhh+uCTKUKxKoICw26YAJTRSY2oFd1+ltQu8OmOnFaaEJLMVbhrq7UNOZNllgE6bF4XYwuQvGlNjuhSgpqcjcYHcTIn4EFbo2SdYhZCxvaJQmrox/7B/nkSwfyY4DiDrN5zVzZmydR0c6x1Imz+c8z/cZGraW1czJmYbDEQ95xsoyy50ODw+Z0RKDjIxMXLBSREREREREpq7TPoBI5nK5OHr0KPv27WPWrLP4XN70cddosGoajNDf38/x48c5evRo4sa+8of0rJoPWfzpT3/i2J+OMT0/37q+6Wo6mLAhHlr09/czMjKcMhpFRERERERETg0KIEyYADBnjoecnByczml453153BxhZGSE4ZFhBgYH+OORDzn8x//iz3/uZ3hkmJHhIYbVSR7LXMhp06bhdDrJzc0lZ1oOZxQUmFVGUq/0CNY0l4GPYhzvP04s9mdGRrIYYThNaxEREREREZnqFEAYWVlZnHXWOcyaNRu3ezbFczyMpLk88XoRWWQxNDTEwOBHfDT4ER8NDpE9LdsqsDiiACIdhyObM/JnkJvrZMaMz+N05o0zvsQyPGKtTjI8MszARx8xLTcX0sYVIiIiIiIiMtWl9rBPY848F95581lwzSIKClz23WDqGGRnZ+NwOCgsnM35xR5crpnMuaCEmWedRZYjS8tEjiMry0G+6/Ocfe4XObfofBwO8/EbJ1GYnjed6dMLOCO/gPwzCvjCF2ZD1niTYkRERERERGQqUwCRZATIysphhBwwNQvs4iMgHA4HBQUucqblccYZZ5I/3UXe5/KArPH60wKmhkM2IyNm9RFGUmpAWOtiWPudn8sjJ8fJyHAWBWcUjGknIiIiIiIip47UHvZpbYQsc4c93im2d47jsrKycH3+LL5wzheZfe75XHb5VTiynTAC2fbGkpCV2Mz1TTOaIbEvK4sZM2Yy/YwCiud4cGRPIwtHmmeIiIiIiIjIVKcA4hPIyZ7GzDPdzDzTzbRpTvtu+RRMm+Zket4Z5Or6ioiIiIiInNIUQHwC1uIZDoaH4z/Lp21kBEY0rUVEREREROSUpwDiE4hPz3A4RqdsyKcrK8uakJFuqoaIiIiIiIicOhRAiIiIiIiIiEjGKYAQERERERERkYzLGhmZGtULHnnkER599FH7w/Ix3Hnnndx11132h0VERERERET+YqZUAHEqyMrKwn7Jkh870f7Jmsxz7G2Sf1cAISIiIiIiIlPJlAkgREREREREROSvl2pAiIiIiIiIiEjGKYAQERERERERkYxTACEiIiIiIiIiGacAQkREROSv3f5GKjwePB4PFU/02PeO7+VVeDwePJ4KGvfbd4rICe3bQ8W5v8Fz7m+oeLzPvncCfTRebz3Pc9de+06RU5YCCBERETkpPU9UmE7peNsqguO185VSdU8jwf0x+2GThFmzMN6+no4h+36bt9ZQ7vHge6Bj9LGhKKGNq6ha4Eu8tm/xChpawkTHO97xALUXmddd1kTEvv8TnRNAkFVJz/P9KGRvYAlb5xNvd1KBgfxF9Dy+3eoo2rcLtlF11x46Phi2PWOQnl+/zooF2xJtfQt20PDSkaQ2SR1Q2+bz7WDV4/uJDCY1n8jWnSnHsLZtlN64k6Z/P5bUOOl1r99D6qdvL6vM8yfXoR5tb+9IR7fupDS+78Y9dJ3gKxTb103D17fjKzbPKd6G/+uvE9g38YUY+/fZQXOvvQXAAIGa5Guzk6C9iYh8YgogRERE5LMTjRB6oYHbFl5LbXu6Lj4Q3kxb/G57tJXATtt+m3CgjR5cLL2xzHpgqIvGb5ZS9UAboUPRRLtodweN36+g9JuNdKUJIWLBVgLxx3e1svmQrcF4JnNOaUQ3taYNV6zzkb8KsWFCLYdYMf//07gv/uAAwXu3U/7tPjr2jQYT0X39NNbspOKJE3fqo739tD34H5RWhj/hZ2WYyBtHqL+5Y5JhwqdoX5jlf3/EBH251K2fS4nT3mhUdOtOrl2wl8ZXB4jG84bBYbpe7aN2wXZWbe23PWM8/TT/OjnoMY710PqS/UER+bQpgBAREZGPqYSVz3bS2WnffoSJAlLaBTc1UO0BiBD43tdZ89aYhgCEnmtK6lRFadoYYPwbo2E2t/eAayn+K80ja2to2BUDnPhu30Cgs5POzgAbbvUCENvVwKon7d22CK0bA0m/h9jwb+Gk3+1O7pzSShuuhNm8yf7e5NSRy8r2q+gMXUVn6HLa/zkfFwADrNtg/q7vvEP9Rit4cFfNofO9rxIOzaHSaki44T9JGRtTMouWkDlu51zqF5n/wr9xiA3/bm88Mf8j8fd3FZ0vF+OPv+6D79L0gb11hgz20Vh7EOsb5qDyl1dSc769UZLBvfwwHla4Cmh4+SpCv1+Q9P6Hafv27+mYeCBEQuiF91NGOMW29pL8L4CIZIYCCBEREfmYcnG53bhTNhdjb2SOtiuaV01Dy3rT2eph3drmsR2BoQ5aN1mjFrzzrMCAQCvB48mNkry1mbYD4KrwU5YNDAV54hemo7f4YZ68r5wStxu3u4TyHzxJ/XxrV7gtMPbO8aHNNHcCuPDOKwKgp32z6SClcxLnlIbL5QKitL6YNG2E0fPB5TIdV5toiKZ7qvB549M//Kx4KEDENpIiGmqkdqHXtKmg4eUIA2ObWGI9BB6ootQ3erzaJ0LjT1MxIlsaWLE4Pr3Fi++GFTRsOdFZnx5cMwtwFxbgLpyJ99bZlJvHo+a2fc9v/2g+e/n84489uJ3gLPSwsjbXahgbIuX+fE4OswrNcYtmc8vyArNjmCMpjSfmnBF/fwW4L76Q9Y/OMHv62f26fapIJvQTvPtNGt6wfvPefylrF+XZG4114Bhd5kfvnR6qLy7A5crDffGF/Oh+89xYlI63k5+UhtNhfa92f8jmMWHLAIFN1jQUlzN99yi6O8yqG7fhNVM0UqfMxNvtoXa+mcZxwXYatg6M8907TODeHZReEG8bpPbxg6OjO8YTPUjTXTtGp6FcsI2qu8KERgd7iUxp6b9hIiIiIpni8vOtm0z3+pUgHcnhws4ArVEAH9U/+w7+bGAoQFNb+s5t6FdNY6dfhIIETefZf6Pf1ol3c8XN1VR/o5rqS10cTdoTebnVuuvsWso//nMlRQD7m2jeldRoIhOdUxrly6opAqLPNCfeL4nzAVfF0kTHNSEaZNXiKupfCBGNDwmJdtHxZC2lf5c0raS7keXLGgjEa1JEwzQ+1JjowCUMddG4rJzajSEi8c5LtIvAw1Us/n6Q8fozkWdWUHpHIx3dUZxnFuF2xYj+oYPGO66l9sXxnnU6GiTy6z7iEVP51bMAKPrWFWYEwpfx54+2Hjg2yc5/7CiBX8c/vfmUXWbbf7IKp1mfdyByOLkWRGZEX3qTVS3mXBcVs/EO67pM6Lx8SsyP4Ue7aU6q+eBevoDu979K9/vlrD7RtSiaSfUirGkYm5KmnPTupXkrQB5Ll+WMPm5Et+5kccVB2t4YTozGSkyZSZ660rWH5RWHCMTDjdgAjfWHU797g3003ryb2o39ROIHjA0SeDDM4rv3jvvdY7CH+qvC1Lf0Ex104D7bgTM2TKjlIFUVbxI+UXghMgUogBAREZGPKUxDvFhkYpvcagmzzjnP/NRDbyJbiBHY2GT953v+UpZ4ylnqt/Z0vLA5zaiCkDVaImn6BUeOJP7z7pyeOqHc+40GGh5qoOGhasz4CiBM0wZr0Lurwk/ZvCVUFmONUGizjVCYQPpzSq/rrMut1xhqozVR6c6cDy6WVqbED4TW3kdbBMj2snJjJ+E/hAn8xI8b4K0G7nsmYl3Df2kgPGS1W90epjscov2e0bONCz9aQ8NbAF5qbMeLvLCKNWnDlx5an7GuiesbGwjtCtIZ6jQjS2IEftH8CWsSnOoGaFgQL2IYpPTbR4jgoPx+L2uXmVEL+flmBELe6EihD97lx49ZvUd30qiJhHcOUR4vjnjB76htGQZXPnXtX6a60N74JBzro3ntYfM3y+HyK+IjK4zk101s3bSNbTV57x2ktuao9R11FrD+0QvTj/Sxy5nD6nozQiR6lLoFQbzzd1D3+F66JhvcAHR9xCU3WecYbjmU+KxGtpqg6OpZLP1i8hOsTv+aO830j8tm8XSonO4/fJmGG6xu1OjUlQECDx8yo6ZyWb3lGrrfW0D7feZ9Jwmv3WNGgORS89xVhPdfQ2BNgfXda9nLmvGm1Ww/RFMUII+6znI6dy0k/NxM6xp29dK03f4EkalHAYSIiIj8BYV5O3578HiQVjMJ21e5BDdOym8wCcSuZlrtwcauVlqjSdMvgJ79KfcaTyxR9DI+ksLLkgrrnrB9hMLkJJ3TuEZfo22TqXHRaZ0P591CtTdqq3sRonWTSTUq72Z1qRtntpOSqjpqTLYQevG3ROggGJ/IXnk3K71OcLrw3nE3lYljAfTw6jbT/ar4DnWJ432H6vMAorwWmjhKiL7Zwe5IDHBT/YSp//F/bkncTT9duQpzKDo7h6KzHSZgGCb4i/fZPd5t7cE+Gm/rsTrArhk8/A/prqAD99nmuPEee/QYjU8fSgRu6VbiSFdYsu3vk9pc9Dp1W+P1KIqpudjeepKSlppMbOlW0NjdnxgRQixGV29SeHCCYxTd/hU6G2fiNalN7IN+mh/sxn/RNvz1+088dcFwLZqFH+CdPp57B+AIm5+xClj6l8/BecQWaOyOmFFZULnqUsoKcyB/FtX3F5oQs5/AtqPABwTjRSyrilh5SS448/B+t8j23evj1c3mzd50LnVXF+DMyaVkWbEJk4Z57bXUv9tYMXZvP0xsEPibubxianrULbC3E5l6FECIiIjIx+Slbls33d3JWzs1xfZ2E/FyiRlbHWlrMqtQ+Fh6vRsAp7+aymyAME//amxFhtD/ayWaPP0CKCqOD9SevETRy6SRFN6/XWF1LobaaA6MXwIzvdFzmkjiNUyNi44XW4kCRRVL8EZ6x3bejvfQazpB3i95knYUUfIl8+OBA0QOdLHHBCZj29l183b8crbXjhnBsu6A9XD43e7kJxhFVH+30hp1EW5kRakXj9fH8u838duIE/eZqaNOTi+5rHyhnOCucoK7FhJ+aw6VTqD3CLet7k4tpjrYR+PNryfuhte1X0F5uiEBFxfy3C5z3N8vJPTzAlxA5Nlu7tuUtsLA5Dlz8N/vZcvP5qSORkgufpnYiq0O/Cc2wJpvh+maZHAADtw3XE77e+V0vjiHuqrcxPvteuI/WHzv/tTrm07+HKqrAAZpa++FD96ndTdAPksW5dL7wdg3FDsYMyFPLpdcmNR1On90WsiBnmPQc4w95nfvxbaRJGMc5e13zI+b9iYFLntYZ5YHDb+TPEEsyTVzqLsMYJjAva/jLf4Nvmt30vB8H3+eUYDrdP/6ySlBAYSIiIh85voOml4uRRS6ASJsfiF+bzRE/QLTIb7oNtpMh7pnU3JRyDTTLwBmzEh0SmLHU7sjkbcCBF4MEHgxbA2pTip6SbSJFReZ113YkHitQPtEq3CMSj2n8Q0MxqB4KdXzrRoXrS8HCLRHgSIqb0ydLjFpThfxkoKT5nJTdF5R6jZOmOC6fi2vbNtA3c0+q8MTixLaso66ilJuaznB3JPTzUwPSyvMzy8dHr37DzB4jMDdb9KwG8BB9S+vpKZkMv81d+D6WmFimkZgu1VwoOiOa0wthNGtPU19heRVMELvfZXu98pZf8c5uFJLH4wtfpnYcmxFZoHz59Jue+3ul+emGQ3joPKXZbR/17zYO4dYFV92dKJjHDtGpPcokd5jxAZzcF/moeaRawi9d2mi7kPk2QO0mg78+IaJDTooX2ZNW+h5/hDBlz606r/cUDimJsdJc2af/HfP6TCjZWzbmeN8DnJmUdNWRvuaWZSdb7WJ7rNGgpSXvk5o0mGOyF/OOJ9uERERkQyJBngq3um/tpyy6dYqFK1paw4kOdBkVqpIP/0CAG9Z4vfAlqAtOIiw+cFaar9bS+1PTE2JRNHLCWx5iuZD9gdt0p3TBLq6DwBullT6AAg8cJ/1PoorWZIuf5heRKFJVg70xIMOgB663jU/nncebnchReb8x7azK6QoXrLCt5q2V4IEE1uAwJYgwR+MXUwVgKEY0UiE6PRLqH6ohVC4m/COp1k5DyBGcENzasG909qwNUw+RT/Bu00tB9MpbzjRShDJBk+i7oFN8ioYn/kd85uKWbsoH+89Hm4xn+fwg2Ea99kbjtXz1GuU+n5Hqe+1sW2dhdTUxkcbxOie6CMPQIyeA8DfuFnqBHr6WPWgmX7xtaLUYAVwnuM0oeYgBw4mTxkZXZnjvKJ8KPxcInA58J/WMdPLoyhet2NBEW3xkS27ygnu+gqBHeUE69MPI4tFjxI5PIx7kZendyyk+70FidoR9PbxlJlOIzKVKYAQERGRj2mAaCRCJGWz1y8YbdfzVjN1VbW0RQGKWLmqGjcQ/rcN1l1IfNS9ZOoJJLa1ZhrG6LKV6aZfADDdz+3LzfCDF39I7dogXZEIkUgXgR+soN6EHEU3LcGbXPTSVc36Ma/ZSeem1WaOd4jWl+139k98TpPhXlxNGUA0ShTw/s+vJxXHTObDX2F1g6LP/Jg1nRFiQzG6WhpoNEM1fDdeh5syys34+OgzP2ZdOAaxKOHHf2YrHOhlyU2mu/RKHct/2mFV4z8eoeOnVfiWJa2qkSwW4L7SUkpLS1n+pNX9cs4uo+xS05s8Hku/5OBpJHr4qLlbf5SuZ3fyw01mx9UuLgGgn9DDO7nNhA/+dVeceBnKwUH6zDEjvb00/+/9ib9n2RUzbY2nsBzT9cgpom7dDPM9GaChNpxaLyJJ0XWfN537Adbc+TodPceIDQ4S7elh3fr4dAUnnniodiI5RSxd7gCGzYoyM6j+WmqxSAAuN2EFwzQ9+CYdvYNW8c4He80oqTz8CwuAsym/wXpK9Km9rHt7AGL9hB/rsX33ZrPkm2YEyLb9LH+4x/ruHTtCx8Ov4rt5z7jTUrrXmyBmfohAFHDmUXJNAfHTjqVPu0SmFAUQIiIi8jF1sW6Z1Rkdu/1w7FDzpHblN9XR3A3gxv8vz7F6HkCYze2m++Fdgv8iN2538ubnuuut3VZRyHGmXxi++5+mbh5AhOC/3oa/tJTSUj+1z5gO8/w6Gu/0jil6yfV+/GNe04173nVcZ/5nH3qm1dZBOtE5TZJ7KdWL47/4qDaFKdMpu2ctlW5gKMy65aV4L/Li/37AGskxr46Hv+EGnPi/V4c322q3psKq0VDx07H1MwC8dzaa6wThx1dQ6vXgmVfKisfDxMKtBNPdTZ5eyer7rIgk/FM/3vnllM/3smKjNfrD+7/GC1BOFwOsq/iduVv/O/yrj5rVW3Kpa7jQ6nBv20PVY/GYZpjAyp0nLh7Z1UeVOWap703qXjJ3ui+bTX18dY1TjHPhXH50k+mKvHGQuo1H7E1GXTyXxnqzasgbfawo7cBbHMRX+i7r3rCalHzPc1IrgviqZiZGLLi+NZvydFNQsMKK1T83YckbfazwBa3ineZv4L3/S9xyNkAu/vtmm8//AGsWb8dzwQ4qHk6N5Lyr5ppaDhB+7F1KL/gNnot2suKxAWJvHE7/3QO8tcVUuoDYUWr/xzZK52/DN/+gWUJ4BtWLxglRRKYQBRAiIiLy2XG58d1cx4Ztr7C+wowT6Gymyaxw4a30p5k37sR/o7mtP9RG8/pfpZ9+EZddQs3zIVr+qRJfUh0Dl6eM6n9qofP/1lCSDZEXnjBFL6HyhpSFD61RAvFAIPw0z6X24S3pzmnSnPgrzLnNX8qS2fb9SVzlrN3SQn289gKAq4SyW9fT+bx1TgB4atj4bB3+YtPI5eWWxzew+qL4gYzsEmqe72T9rWWUxK9TtouSr9Swfvv4xURLbm8h+FgNZR4XsQ976PkwhstTRs1jQVpuTf3rndZyHJRcPYv1O64ere+QbmTJSXK6cim7fQ7BF+ZSMl7HecrLw99QlCho2XHvHpqtchZpOCi5vYzOLcXUXJ2bVK/CgfuyfFb+/HLa/mGiL08al51DZRGAg6UV59r3juFadCVb2s+h8rL4yibgOj+PmsYrx9bZKJnLxvbZ+M82vztzuaXRw2p7UdqcWdS0Xcn62/MoSVT+NJ+VXV+h5vyxzRNcc1i7w0t9VR6unGEiHwwTzXHgqzqHlh1XUP5JaliIfEayRkZGRuwPioiIiExVHQ/4WLERbtkYor7UvldERESmKgUQIiIiIiIiIpJxmoIhIiIiIiIiIhmnAEJEREREREREMk4BhIiIiIiIiIhknAIIEREREREREck4BRAiIiIiIiIiknEKIEREREREREQk4xRAiIiIiIiIiEjGKYAQERERERERkYxTACEiIiIiIiIiGacAQkREREREREQyTgGEiIiIiIiIiGScAggRERERERERyTgFECIiIiIiIiKScQogRERERERERCTjFECIiIiIiIiISMYpgBARERERERGRjFMAISIiIiIiIiIZpwBCRERERERERDJOAYSIiIiIiIiIZJwCCBERERERERHJOAUQIiIiIiIiIpJxCiBEREREREREJOMUQIiIiIiIiIhIximAEBEREREREZGMUwAhIiIiIiIiIhmnAEJEREREREREMk4BhIiIiIiIiIhknAIIEREREREREck4BRAiIiIiIiIiknEKIEREREREREQk4xRAiIiIiIiIiEjGKYAQERERERERkYxTACEiIiIiIiIiGacAQkREREREREQyTgGEiIiIiIiIiGScAggRERERERERyTgFECIiIiIiIiKScQogRERERERERCTj/huj3/L60KqUlgAAAABJRU5ErkJggg==;" vertex="1" parent="1">
          <mxGeometry x="1585" y="1401.71" width="286" height="157.62" as="geometry" />
        </mxCell>
        <UserObject label="https://forum.arduino.cc/t/atsamd21g18a-custom-board-implementation-design-check/701503" link="https://forum.arduino.cc/t/atsamd21g18a-custom-board-implementation-design-check/701503" id="yOwYsY-LEfKTVWmutYIh-12">
          <mxCell style="text;whiteSpace=wrap;" vertex="1" parent="1">
            <mxGeometry x="1430" y="1830" width="530" height="40" as="geometry" />
          </mxCell>
        </UserObject>
        <mxCell id="yOwYsY-LEfKTVWmutYIh-13" value="" style="shape=image;verticalLabelPosition=bottom;labelBackgroundColor=default;verticalAlign=top;aspect=fixed;imageAspect=0;image=https://europe1.discourse-cdn.com/arduino/original/4X/4/3/1/431919c600699475c8522819ba7bb41d12c9705d.png;" vertex="1" parent="1">
          <mxGeometry x="1280" y="1870" width="1129" height="800" as="geometry" />
        </mxCell>
        <mxCell id="yOwYsY-LEfKTVWmutYIh-14" value="Oled touch screen&lt;div&gt;&lt;br/&gt;&lt;/div&gt;" style="rounded=0;whiteSpace=wrap;html=1;" vertex="1" parent="1">
          <mxGeometry x="680" y="1780" width="120" height="110" as="geometry" />
        </mxCell>
        <mxCell id="yOwYsY-LEfKTVWmutYIh-15" value="https://www.buydisplay.com/3-5-inch-capacitive-touch-panel-wiith-controller-ft6236-for-320x480-dots?srsltid=AfmBOoppQUtn8ocIPHxB2F4okvirqt1jA2vh7vzSwWeEwpSsFPFW1S8v" style="text;html=1;align=center;verticalAlign=middle;resizable=0;points=[];autosize=1;strokeColor=none;fillColor=none;" vertex="1" parent="1">
          <mxGeometry x="280" y="1905" width="980" height="30" as="geometry" />
        </mxCell>
      </root>
    </mxGraphModel>
  </diagram>
</mxfile>
